<svg xmlns="http://www.w3.org/2000/svg" xmlns:xlink="http://www.w3.org/1999/xlink" width="1646" height="601" viewBox="0 0 1646 601"><defs><clipPath id="a"><rect width="1646" height="601" fill="none"/></clipPath></defs><g transform="translate(-133 -2105.5)"><g transform="translate(133 2105.5)" opacity="0.959" clip-path="url(#a)"><g transform="translate(-191 -2105.5)"><line y2="601" transform="translate(191.5 2105.5)" fill="none" stroke="#f5f7fd" stroke-width="1"/></g><g transform="translate(-168 -2105.5)"><line y2="601" transform="translate(191.5 2105.5)" fill="none" stroke="#f5f7fd" stroke-width="1"/></g><g transform="translate(-145 -2105.5)"><line y2="601" transform="translate(191.5 2105.5)" fill="none" stroke="#f5f7fd" stroke-width="1"/></g><g transform="translate(-122 -2105.5)"><line y2="601" transform="translate(191.5 2105.5)" fill="none" stroke="#f5f7fd" stroke-width="1"/></g><g transform="translate(-99 -2105.5)"><line y2="601" transform="translate(191.5 2105.5)" fill="none" stroke="#f5f7fd" stroke-width="1"/></g><g transform="translate(-76 -2105.5)"><line y2="601" transform="translate(191.5 2105.5)" fill="none" stroke="#f5f7fd" stroke-width="1"/></g><g transform="translate(-53 -2105.5)"><line y2="601" transform="translate(191.5 2105.5)" fill="none" stroke="#f5f7fd" stroke-width="1"/></g><g transform="translate(-30 -2105.5)"><line y2="601" transform="translate(191.5 2105.5)" fill="none" stroke="#f5f7fd" stroke-width="1"/></g><g transform="translate(-7 -2105.5)"><line y2="601" transform="translate(191.5 2105.5)" fill="none" stroke="#f5f7fd" stroke-width="1"/></g><g transform="translate(16 -2105.5)"><line y2="601" transform="translate(191.5 2105.5)" fill="none" stroke="#f5f7fd" stroke-width="1"/></g><g transform="translate(39 -2105.5)"><line y2="601" transform="translate(191.5 2105.5)" fill="none" stroke="#f5f7fd" stroke-width="1"/></g><g transform="translate(62 -2105.5)"><line y2="601" transform="translate(191.5 2105.5)" fill="none" stroke="#f5f7fd" stroke-width="1"/></g><g transform="translate(85 -2105.5)"><line y2="601" transform="translate(191.5 2105.5)" fill="none" stroke="#f5f7fd" stroke-width="1"/></g><g transform="translate(108 -2105.5)"><line y2="601" transform="translate(191.5 2105.5)" fill="none" stroke="#f5f7fd" stroke-width="1"/></g><g transform="translate(131 -2105.5)"><line y2="601" transform="translate(191.5 2105.5)" fill="none" stroke="#f5f7fd" stroke-width="1"/></g><g transform="translate(154 -2105.5)"><line y2="601" transform="translate(191.5 2105.5)" fill="none" stroke="#f5f7fd" stroke-width="1"/></g><g transform="translate(177 -2105.5)"><line y2="601" transform="translate(191.5 2105.5)" fill="none" stroke="#f5f7fd" stroke-width="1"/></g><g transform="translate(200 -2105.5)"><line y2="601" transform="translate(191.5 2105.5)" fill="none" stroke="#f5f7fd" stroke-width="1"/></g><g transform="translate(223 -2105.5)"><line y2="601" transform="translate(191.5 2105.5)" fill="none" stroke="#f5f7fd" stroke-width="1"/></g><g transform="translate(246 -2105.5)"><line y2="601" transform="translate(191.5 2105.5)" fill="none" stroke="#f5f7fd" stroke-width="1"/></g><g transform="translate(269 -2105.5)"><line y2="601" transform="translate(191.5 2105.5)" fill="none" stroke="#f5f7fd" stroke-width="1"/></g><g transform="translate(292 -2105.5)"><line y2="601" transform="translate(191.5 2105.5)" fill="none" stroke="#f5f7fd" stroke-width="1"/></g><g transform="translate(315 -2105.5)"><line y2="601" transform="translate(191.5 2105.5)" fill="none" stroke="#f5f7fd" stroke-width="1"/></g><g transform="translate(338 -2105.5)"><line y2="601" transform="translate(191.5 2105.5)" fill="none" stroke="#f5f7fd" stroke-width="1"/></g><g transform="translate(361 -2105.5)"><line y2="601" transform="translate(191.5 2105.5)" fill="none" stroke="#f5f7fd" stroke-width="1"/></g><g transform="translate(384 -2105.5)"><line y2="601" transform="translate(191.5 2105.5)" fill="none" stroke="#f5f7fd" stroke-width="1"/></g><g transform="translate(407 -2105.5)"><line y2="601" transform="translate(191.5 2105.5)" fill="none" stroke="#f5f7fd" stroke-width="1"/></g><g transform="translate(430 -2105.5)"><line y2="601" transform="translate(191.5 2105.5)" fill="none" stroke="#f5f7fd" stroke-width="1"/></g><g transform="translate(453 -2105.5)"><line y2="601" transform="translate(191.5 2105.5)" fill="none" stroke="#f5f7fd" stroke-width="1"/></g><g transform="translate(476 -2105.5)"><line y2="601" transform="translate(191.5 2105.5)" fill="none" stroke="#f5f7fd" stroke-width="1"/></g><g transform="translate(499 -2105.5)"><line y2="601" transform="translate(191.5 2105.5)" fill="none" stroke="#f5f7fd" stroke-width="1"/></g><g transform="translate(522 -2105.5)"><line y2="601" transform="translate(191.5 2105.5)" fill="none" stroke="#f5f7fd" stroke-width="1"/></g><g transform="translate(545 -2105.5)"><line y2="601" transform="translate(191.5 2105.5)" fill="none" stroke="#f5f7fd" stroke-width="1"/></g><g transform="translate(568 -2105.5)"><line y2="601" transform="translate(191.5 2105.5)" fill="none" stroke="#f5f7fd" stroke-width="1"/></g><g transform="translate(591 -2105.5)"><line y2="601" transform="translate(191.5 2105.5)" fill="none" stroke="#f5f7fd" stroke-width="1"/></g><g transform="translate(614 -2105.5)"><line y2="601" transform="translate(191.5 2105.5)" fill="none" stroke="#f5f7fd" stroke-width="1"/></g><g transform="translate(637 -2105.5)"><line y2="601" transform="translate(191.5 2105.5)" fill="none" stroke="#f5f7fd" stroke-width="1"/></g><g transform="translate(660 -2105.5)"><line y2="601" transform="translate(191.5 2105.5)" fill="none" stroke="#f5f7fd" stroke-width="1"/></g><g transform="translate(683 -2105.5)"><line y2="601" transform="translate(191.5 2105.5)" fill="none" stroke="#f5f7fd" stroke-width="1"/></g><g transform="translate(706 -2105.5)"><line y2="601" transform="translate(191.5 2105.5)" fill="none" stroke="#f5f7fd" stroke-width="1"/></g><g transform="translate(729 -2105.5)"><line y2="601" transform="translate(191.5 2105.5)" fill="none" stroke="#f5f7fd" stroke-width="1"/></g><g transform="translate(752 -2105.5)"><line y2="601" transform="translate(191.5 2105.5)" fill="none" stroke="#f5f7fd" stroke-width="1"/></g><g transform="translate(775 -2105.5)"><line y2="601" transform="translate(191.5 2105.5)" fill="none" stroke="#f5f7fd" stroke-width="1"/></g><g transform="translate(798 -2105.5)"><line y2="601" transform="translate(191.5 2105.5)" fill="none" stroke="#f5f7fd" stroke-width="1"/></g><g transform="translate(821 -2105.5)"><line y2="601" transform="translate(191.5 2105.5)" fill="none" stroke="#f5f7fd" stroke-width="1"/></g><g transform="translate(844 -2105.5)"><line y2="601" transform="translate(191.5 2105.5)" fill="none" stroke="#f5f7fd" stroke-width="1"/></g><g transform="translate(867 -2105.5)"><line y2="601" transform="translate(191.5 2105.5)" fill="none" stroke="#f5f7fd" stroke-width="1"/></g><g transform="translate(890 -2105.5)"><line y2="601" transform="translate(191.5 2105.5)" fill="none" stroke="#f5f7fd" stroke-width="1"/></g><g transform="translate(913 -2105.5)"><line y2="601" transform="translate(191.5 2105.5)" fill="none" stroke="#f5f7fd" stroke-width="1"/></g><g transform="translate(936 -2105.5)"><line y2="601" transform="translate(191.5 2105.5)" fill="none" stroke="#f5f7fd" stroke-width="1"/></g><g transform="translate(959 -2105.5)"><line y2="601" transform="translate(191.5 2105.5)" fill="none" stroke="#f5f7fd" stroke-width="1"/></g><g transform="translate(982 -2105.5)"><line y2="601" transform="translate(191.5 2105.5)" fill="none" stroke="#f5f7fd" stroke-width="1"/></g><g transform="translate(1005 -2105.5)"><line y2="601" transform="translate(191.5 2105.5)" fill="none" stroke="#f5f7fd" stroke-width="1"/></g><g transform="translate(1028 -2105.5)"><line y2="601" transform="translate(191.5 2105.5)" fill="none" stroke="#f5f7fd" stroke-width="1"/></g><g transform="translate(1051 -2105.5)"><line y2="601" transform="translate(191.5 2105.5)" fill="none" stroke="#f5f7fd" stroke-width="1"/></g><g transform="translate(1074 -2105.5)"><line y2="601" transform="translate(191.5 2105.5)" fill="none" stroke="#f5f7fd" stroke-width="1"/></g><g transform="translate(1097 -2105.5)"><line y2="601" transform="translate(191.5 2105.5)" fill="none" stroke="#f5f7fd" stroke-width="1"/></g><g transform="translate(1120 -2105.5)"><line y2="601" transform="translate(191.5 2105.5)" fill="none" stroke="#f5f7fd" stroke-width="1"/></g><g transform="translate(1143 -2105.5)"><line y2="601" transform="translate(191.5 2105.5)" fill="none" stroke="#f5f7fd" stroke-width="1"/></g><g transform="translate(1166 -2105.5)"><line y2="601" transform="translate(191.5 2105.5)" fill="none" stroke="#f5f7fd" stroke-width="1"/></g><g transform="translate(1189 -2105.5)"><line y2="601" transform="translate(191.5 2105.5)" fill="none" stroke="#f5f7fd" stroke-width="1"/></g><g transform="translate(1212 -2105.5)"><line y2="601" transform="translate(191.5 2105.5)" fill="none" stroke="#f5f7fd" stroke-width="1"/></g><g transform="translate(1235 -2105.5)"><line y2="601" transform="translate(191.5 2105.5)" fill="none" stroke="#f5f7fd" stroke-width="1"/></g><g transform="translate(1258 -2105.5)"><line y2="601" transform="translate(191.5 2105.5)" fill="none" stroke="#f5f7fd" stroke-width="1"/></g><g transform="translate(1281 -2105.5)"><line y2="601" transform="translate(191.5 2105.5)" fill="none" stroke="#f5f7fd" stroke-width="1"/></g><g transform="translate(1304 -2105.5)"><line y2="601" transform="translate(191.5 2105.5)" fill="none" stroke="#f5f7fd" stroke-width="1"/></g><g transform="translate(1327 -2105.5)"><line y2="601" transform="translate(191.5 2105.5)" fill="none" stroke="#f5f7fd" stroke-width="1"/></g><g transform="translate(1350 -2105.5)"><line y2="601" transform="translate(191.5 2105.5)" fill="none" stroke="#f5f7fd" stroke-width="1"/></g><g transform="translate(1373 -2105.5)"><line y2="601" transform="translate(191.5 2105.5)" fill="none" stroke="#f5f7fd" stroke-width="1"/></g><g transform="translate(1396 -2105.5)"><line y2="601" transform="translate(191.5 2105.5)" fill="none" stroke="#f5f7fd" stroke-width="1"/></g><g transform="translate(1419 -2105.5)"><line y2="601" transform="translate(191.5 2105.5)" fill="none" stroke="#f5f7fd" stroke-width="1"/></g><g transform="translate(1442 -2105.5)"><line y2="601" transform="translate(191.5 2105.5)" fill="none" stroke="#f5f7fd" stroke-width="1"/></g></g></g></svg>