<svg fill="none" viewBox="0 0 40 40"><path fill="#0E1856" fill-rule="evenodd" d="M32.693 12.063H7.383c-.971 0-1.758-.742-1.758-1.657 0-.914.787-1.656 1.757-1.656h25.311c.97 0 1.758.742 1.758 1.656 0 .915-.787 1.656-1.758 1.656Z" clip-rule="evenodd"/><path fill="#0E1856" fill-rule="evenodd" d="M32.693 21.844H7.383c-.971 0-1.758-.742-1.758-1.657 0-.914.787-1.656 1.757-1.656h25.311c.97 0 1.758.742 1.758 1.657 0 .914-.787 1.656-1.758 1.656Z" clip-rule="evenodd"/><path fill="#0E1856" fill-rule="evenodd" d="M32.693 31.625H7.383c-.971 0-1.758-.741-1.758-1.656 0-.915.787-1.657 1.757-1.657h25.311c.97 0 1.758.742 1.758 1.657s-.787 1.656-1.758 1.656Z" clip-rule="evenodd"/></svg>