<svg xmlns="http://www.w3.org/2000/svg" xmlns:xlink="http://www.w3.org/1999/xlink" width="1920" height="1094" viewBox="0 0 1920 1094">
  <defs>
    <clipPath id="clip-path">
      <rect id="Rectangle_382" data-name="Rectangle 382" width="1920" height="1094" transform="translate(0 -15)" fill="#fff"/>
    </clipPath>
    <clipPath id="clip-path-2">
      <rect id="Rectangle_321" data-name="Rectangle 321" width="1964.949" height="2052.953" fill="none"/>
    </clipPath>
  </defs>
  <g id="Mask_Group_7" data-name="Mask Group 7" transform="translate(0 15)" clip-path="url(#clip-path)">
    <g id="Group_556" data-name="Group 556" transform="translate(292)">
      <rect id="Rectangle_193" data-name="Rectangle 193" width="34.868" height="8.966" transform="matrix(0.754, -0.657, 0.657, 0.754, 339.134, 482.793)" fill="#f5f7fd"/>
      <g id="Group_555" data-name="Group 555">
        <g id="Group_554" data-name="Group 554" transform="translate(-314.484 -328.569)" clip-path="url(#clip-path-2)">
          <path id="Path_467" data-name="Path 467" d="M154.12,229.941l-6.776-11.312c2.289-1.405,22.006-14.549,8.759-43.095l11.962-5.553c14.862,32.026-2.622,53.225-13.945,59.96" transform="translate(358.977 414.128)" fill="#44b5a3"/>
          <rect id="Rectangle_194" data-name="Rectangle 194" width="13.187" height="51.282" transform="translate(578.685 616.825) rotate(-49.682)" fill="#f5f7fd"/>
          <rect id="Rectangle_195" data-name="Rectangle 195" width="19.336" height="75.195" transform="matrix(0.349, -0.937, 0.937, 0.349, 401.375, 620.853)" fill="#d02d5d"/>
          <path id="Path_468" data-name="Path 468" d="M195.872,166.04l21.034,7.952c-1.577,4.3-14.02,42.741,33.9,66.878L240.7,260.948c-53.765-27.078-52.83-73.915-44.823-94.908" transform="translate(467.413 404.526)" fill="#f5f7fd"/>
          <path id="Path_469" data-name="Path 469" d="M145.683,269.338l-.529-13.171c2.684-.141,26.288-2.23,28.336-33.631l13.158.856c-2.3,35.229-27.8,45.459-40.964,45.947" transform="translate(353.641 542.166)" fill="#d02d5d"/>
          <rect id="Rectangle_196" data-name="Rectangle 196" width="13.187" height="51.285" transform="translate(436.916 703.041) rotate(-21.41)" fill="#f5f7fd"/>
          <rect id="Rectangle_197" data-name="Rectangle 197" width="78.539" height="20.195" transform="translate(652.491 507.476) rotate(-41.032)" fill="#0e1c42"/>
          <rect id="Rectangle_198" data-name="Rectangle 198" width="13.186" height="51.282" transform="matrix(0.931, -0.365, 0.365, 0.931, 555.565, 516.314)" fill="#f5f7fd"/>
          <path id="Path_470" data-name="Path 470" d="M167.519,164.363a13.087,13.087,0,1,1-13.089-13.089,13.09,13.09,0,0,1,13.089,13.089" transform="translate(344.362 368.552)" fill="#f5f7fd"/>
          <path id="Path_471" data-name="Path 471" d="M240.1,170.8a15.544,15.544,0,1,1-15.543-15.546A15.545,15.545,0,0,1,240.1,170.8" transform="translate(509.215 378.243)" fill="#f5f7fd"/>
          <path id="Path_472" data-name="Path 472" d="M139.17,223.927a13.087,13.087,0,1,1-13.086-13.089,13.089,13.089,0,0,1,13.086,13.089" transform="translate(275.294 513.669)" fill="#f5f7fd"/>
          <path id="Path_473" data-name="Path 473" d="M188.548,133.318a13.087,13.087,0,1,1-13.086-13.089,13.089,13.089,0,0,1,13.086,13.089" transform="translate(395.595 292.916)" fill="#f5f7fd"/>
          <path id="Path_474" data-name="Path 474" d="M137.61,103.773l21.034,7.952c-1.577,4.3-14.017,42.741,33.9,66.878l-10.113,20.075c-53.765-27.075-52.83-73.915-44.823-94.9" transform="translate(325.468 252.824)" fill="#f5f7fd"/>
          <rect id="Rectangle_199" data-name="Rectangle 199" width="13.187" height="51.283" transform="matrix(0.931, -0.365, 0.365, 0.931, 398.966, 444.14)" fill="#d02d5d"/>
          <path id="Path_475" data-name="Path 475" d="M107.6,207.2l-6.783-11.312c2.292-1.405,22.013-14.549,8.763-43.095l11.965-5.553c14.855,32.027-2.618,53.225-13.945,59.96" transform="translate(245.627 358.731)" fill="#f5f7fd"/>
          <rect id="Rectangle_200" data-name="Rectangle 200" width="51.284" height="13.188" transform="matrix(0.754, -0.657, 0.657, 0.754, 322.78, 661.872)" fill="#f98622"/>
          <rect id="Rectangle_201" data-name="Rectangle 201" width="13.187" height="51.283" transform="translate(247.221 447.688) rotate(-21.397)" fill="#f98622"/>
          <rect id="Rectangle_202" data-name="Rectangle 202" width="51.284" height="13.188" transform="matrix(0.754, -0.657, 0.657, 0.754, 336.002, 425.01)" fill="#f5f7fd"/>
          <path id="Path_476" data-name="Path 476" d="M227.207,165.664l-6.776-11.316c2.289-1.4,22.01-14.543,8.759-43.088l11.962-5.553c14.862,32.023-2.622,53.222-13.945,59.957" transform="translate(537.04 257.536)" fill="#f98622"/>
          <rect id="Rectangle_203" data-name="Rectangle 203" width="19.336" height="75.195" transform="matrix(0.349, -0.937, 0.937, 0.349, 636.597, 399.985)" fill="#d02d5d"/>
          <path id="Path_477" data-name="Path 477" d="M230.918,104.782A13.087,13.087,0,1,1,217.83,91.693a13.09,13.09,0,0,1,13.089,13.089" transform="translate(498.822 223.393)" fill="#f5f7fd"/>
          <rect id="Rectangle_204" data-name="Rectangle 204" width="13.187" height="51.282" transform="matrix(0.647, -0.762, 0.762, 0.647, 154.35, 329.461)" fill="#f5f7fd"/>
          <path id="Path_478" data-name="Path 478" d="M72.387,82.415l21.034,7.952c-1.577,4.3-14.02,42.741,33.9,66.878l-10.113,20.078c-53.765-27.078-52.83-73.915-44.823-94.908" transform="translate(166.564 200.789)" fill="#d02d5d"/>
          <rect id="Rectangle_205" data-name="Rectangle 205" width="78.537" height="20.193" transform="matrix(0.754, -0.656, 0.656, 0.754, 190.802, 233.354)" fill="#0e1c42"/>
          <path id="Path_479" data-name="Path 479" d="M116.612,87.169A15.544,15.544,0,1,1,101.07,71.627a15.548,15.548,0,0,1,15.542,15.542" transform="translate(208.364 174.506)" fill="#f98622"/>
          <rect id="Rectangle_206" data-name="Rectangle 206" width="19.338" height="75.196" transform="matrix(0.349, -0.937, 0.937, 0.349, 147.114, 507.439)" fill="#d02d5d"/>
          <path id="Path_480" data-name="Path 480" d="M60.872,187.326a13.087,13.087,0,1,1-13.086-13.089,13.091,13.091,0,0,1,13.086,13.089" transform="translate(84.535 424.497)" fill="#0e1c42"/>
          <path id="Path_481" data-name="Path 481" d="M29.3,170.6,22.523,159.29c2.289-1.405,22.006-14.549,8.763-43.095l11.958-5.553C58.1,142.672,40.626,163.867,29.3,170.6" transform="translate(54.873 269.559)" fill="#f5f7fd"/>
          <rect id="Rectangle_207" data-name="Rectangle 207" width="51.285" height="13.187" transform="translate(53.727 536.104) rotate(-41.048)" fill="#f5f7fd"/>
          <path id="Path_482" data-name="Path 482" d="M37.843,142.776A15.544,15.544,0,1,1,22.3,127.23a15.548,15.548,0,0,1,15.542,15.546" transform="translate(16.457 309.973)" fill="#f98622"/>
          <rect id="Rectangle_208" data-name="Rectangle 208" width="19.338" height="75.196" transform="matrix(0.349, -0.937, 0.937, 0.349, 265.461, 757.225)" fill="#44b5a3"/>
          <path id="Path_483" data-name="Path 483" d="M99.618,263.612a13.087,13.087,0,1,1-13.085-13.089,13.089,13.089,0,0,1,13.085,13.089" transform="translate(178.933 610.354)" fill="#f5f7fd"/>
          <path id="Path_484" data-name="Path 484" d="M68.044,246.888l-6.776-11.312c2.289-1.405,22.006-14.549,8.763-43.095l11.958-5.553c14.862,32.027-2.618,53.225-13.945,59.96" transform="translate(149.268 455.416)" fill="#d02d5d"/>
          <rect id="Rectangle_209" data-name="Rectangle 209" width="51.284" height="13.188" transform="matrix(0.754, -0.657, 0.657, 0.754, 186.864, 798.243)" fill="#f5f7fd"/>
          <path id="Path_485" data-name="Path 485" d="M72.5,220.687a15.544,15.544,0,1,1-15.542-15.546A15.545,15.545,0,0,1,72.5,220.687" transform="translate(100.888 499.789)" fill="#f98622"/>
          <path id="Path_486" data-name="Path 486" d="M299.716,94.644l21.037,7.952c-1.581,4.3-14.02,42.741,33.9,66.878l-10.113,20.075c-53.768-27.075-52.83-73.912-44.827-94.9" transform="translate(720.413 230.583)" fill="#f5f7fd"/>
          <rect id="Rectangle_210" data-name="Rectangle 210" width="78.538" height="20.194" transform="translate(971.984 275.378) rotate(-41.032)" fill="#0e1c42"/>
          <rect id="Rectangle_211" data-name="Rectangle 211" width="13.186" height="51.282" transform="translate(912.412 270.973) rotate(-21.397)" fill="#f5f7fd"/>
          <path id="Path_487" data-name="Path 487" d="M261.677,97.66a13.087,13.087,0,1,1-13.089-13.089A13.09,13.09,0,0,1,261.677,97.66" transform="translate(573.76 206.042)" fill="#f5f7fd"/>
          <path id="Path_488" data-name="Path 488" d="M343.94,99.4A15.542,15.542,0,1,1,328.4,83.855,15.543,15.543,0,0,1,343.94,99.4" transform="translate(762.215 204.298)" fill="#44b5a3"/>
          <path id="Path_489" data-name="Path 489" d="M244.44,38.833l21.034,7.952c-1.577,4.3-14.017,42.741,33.9,66.878l-10.113,20.078C235.5,106.662,236.437,59.825,244.44,38.833" transform="translate(585.743 94.61)" fill="#d02d5d"/>
          <path id="Path_490" data-name="Path 490" d="M171.6,145.012,164.823,133.7c2.292-1.405,22.01-14.549,8.759-43.095l11.962-5.553c14.862,32.03-2.618,53.225-13.945,59.96" transform="translate(401.561 207.214)" fill="#0e1c42"/>
          <rect id="Rectangle_212" data-name="Rectangle 212" width="78.537" height="20.195" transform="matrix(0.754, -0.657, 0.657, 0.754, 675.204, 228.879)" fill="#d02d5d"/>
          <rect id="Rectangle_213" data-name="Rectangle 213" width="13.186" height="51.283" transform="matrix(0.931, -0.365, 0.365, 0.931, 615.63, 224.47)" fill="#f5f7fd"/>
          <path id="Path_491" data-name="Path 491" d="M175.311,84.127a13.087,13.087,0,1,1-13.089-13.089,13.087,13.087,0,0,1,13.089,13.089" transform="translate(363.345 173.071)" fill="#d02d5d"/>
          <rect id="Rectangle_214" data-name="Rectangle 214" width="13.187" height="51.283" transform="translate(440.72 211.8) rotate(-21.41)" fill="#f5f7fd"/>
          <path id="Path_492" data-name="Path 492" d="M120.619,140.262l-6.776-11.312c2.292-1.405,22.006-14.549,8.763-43.095L134.564,80.3c14.862,32.027-2.618,53.225-13.945,59.96" transform="translate(277.358 195.641)" fill="#44b5a3"/>
          <rect id="Rectangle_215" data-name="Rectangle 215" width="13.186" height="51.285" transform="translate(104.393 214.586) rotate(-21.411)" fill="#d02d5d"/>
          <rect id="Rectangle_216" data-name="Rectangle 216" width="19.336" height="75.195" transform="translate(4.292 274.333) rotate(-69.571)" fill="#f5f7fd"/>
          <rect id="Rectangle_217" data-name="Rectangle 217" width="51.283" height="13.189" transform="translate(176.018 125.986) rotate(-41.048)" fill="#f5f7fd"/>
          <path id="Path_493" data-name="Path 493" d="M60.188,59.96,53.412,48.648C55.7,47.243,75.418,34.1,62.171,5.557L74.133,0c14.859,32.026-2.618,53.229-13.945,59.96" transform="translate(130.129)" fill="#f5f7fd"/>
          <rect id="Rectangle_218" data-name="Rectangle 218" width="19.338" height="75.196" transform="translate(78.596 36.747) rotate(-69.571)" fill="#d02d5d"/>
          <rect id="Rectangle_219" data-name="Rectangle 219" width="13.187" height="51.282" transform="translate(114.141 118.933) rotate(-21.397)" fill="#f98622"/>
          <path id="Path_494" data-name="Path 494" d="M45.238,58.344A13.087,13.087,0,1,1,32.153,45.255,13.089,13.089,0,0,1,45.238,58.344" transform="translate(46.446 110.256)" fill="#f5f7fd"/>
          <rect id="Rectangle_220" data-name="Rectangle 220" width="51.284" height="13.188" transform="matrix(0.754, -0.657, 0.657, 0.754, 0.001, 92.877)" fill="#f5f7fd"/>
          <rect id="Rectangle_221" data-name="Rectangle 221" width="51.283" height="13.189" transform="matrix(0.754, -0.657, 0.657, 0.754, 454.564, 138.766)" fill="#f98622"/>
          <path id="Path_495" data-name="Path 495" d="M141.248,63.681l-6.776-11.312c2.289-1.405,22.006-14.549,8.759-43.095l11.962-5.553c14.862,32.027-2.618,53.225-13.945,59.96" transform="translate(327.617 9.066)" fill="#f5f7fd"/>
          <rect id="Rectangle_222" data-name="Rectangle 222" width="19.336" height="75.195" transform="translate(357.146 49.531) rotate(-69.571)" fill="#f5f7fd"/>
          <rect id="Rectangle_223" data-name="Rectangle 223" width="13.188" height="51.284" transform="matrix(0.931, -0.365, 0.365, 0.931, 392.685, 131.721)" fill="#f5f7fd"/>
          <path id="Path_496" data-name="Path 496" d="M126.3,57.667a13.087,13.087,0,1,1-13.086-13.089A13.089,13.089,0,0,1,126.3,57.667" transform="translate(243.936 108.606)" fill="#d02d5d"/>
          <rect id="Rectangle_224" data-name="Rectangle 224" width="51.284" height="13.188" transform="matrix(0.754, -0.657, 0.657, 0.754, 270.994, 75.44)" fill="#f98622"/>
          <path id="Path_497" data-name="Path 497" d="M167.961,21.849,189,29.8c-1.577,4.3-14.02,42.741,33.9,66.878l-10.113,20.075c-53.765-27.075-52.83-73.915-44.823-94.9" transform="translate(399.413 53.231)" fill="#f98622"/>
          <path id="Path_498" data-name="Path 498" d="M207.672,81.823,200.9,70.51c2.289-1.405,22.006-14.549,8.763-43.095l11.958-5.557c14.862,32.03-2.618,53.229-13.945,59.964" transform="translate(489.447 53.255)" fill="#f5f7fd"/>
          <path id="Path_499" data-name="Path 499" d="M250.5,43.6a13.089,13.089,0,1,1-13.089-13.089A13.09,13.09,0,0,1,250.5,43.6" transform="translate(546.51 74.335)" fill="#f5f7fd"/>
          <path id="Path_500" data-name="Path 500" d="M241.449,211.558l-6.776-11.312c2.292-1.406,22.01-14.549,8.759-43.095l11.962-5.553c14.862,32.026-2.618,53.225-13.945,59.96" transform="translate(571.738 369.341)" fill="#44b5a3"/>
          <path id="Path_501" data-name="Path 501" d="M409.439,15.436l21.03,7.952c-1.574,4.3-14.013,42.741,33.9,66.878l-10.11,20.078c-53.768-27.078-52.83-73.915-44.823-94.908" transform="translate(987.727 37.607)" fill="#d02d5d"/>
          <rect id="Rectangle_225" data-name="Rectangle 225" width="78.537" height="20.195" transform="translate(915.221 457.537) rotate(-41.018)" fill="#d02d5d"/>
          <rect id="Rectangle_226" data-name="Rectangle 226" width="13.184" height="51.283" transform="matrix(0.931, -0.365, 0.365, 0.931, 855.656, 453.142)" fill="#f5f7fd"/>
          <path id="Path_502" data-name="Path 502" d="M327.43,152.414a15.546,15.546,0,1,1-15.542-15.546,15.545,15.545,0,0,1,15.542,15.546" transform="translate(721.974 333.454)" fill="#f5f7fd"/>
          <path id="Path_503" data-name="Path 503" d="M401.389,149.634A13.087,13.087,0,1,1,388.3,136.545a13.092,13.092,0,0,1,13.089,13.089" transform="translate(914.143 332.667)" fill="#44b5a3"/>
          <rect id="Rectangle_227" data-name="Rectangle 227" width="13.187" height="51.283" transform="translate(1235.907 377.402) rotate(-21.41)" fill="#f98622"/>
          <path id="Path_504" data-name="Path 504" d="M351.155,187.785l-6.777-11.316c2.289-1.4,22.006-14.546,8.763-43.091l11.962-5.557c14.859,32.03-2.622,53.229-13.948,59.964" transform="translate(839.015 311.413)" fill="#d02d5d"/>
          <path id="Path_505" data-name="Path 505" d="M355.611,161.577a15.546,15.546,0,1,1-15.546-15.542,15.549,15.549,0,0,1,15.546,15.542" transform="translate(790.632 355.788)" fill="#0e1c42"/>
          <path id="Path_506" data-name="Path 506" d="M343.411,44.124a13.087,13.087,0,1,1-13.089-13.089,13.09,13.09,0,0,1,13.089,13.089" transform="translate(772.891 75.611)" fill="#f5f7fd"/>
          <rect id="Rectangle_228" data-name="Rectangle 228" width="13.188" height="51.282" transform="translate(1036.682 14.831) rotate(-21.397)" fill="#f5f7fd"/>
          <path id="Path_507" data-name="Path 507" d="M293.176,82.271,286.4,70.959c2.289-1.405,22.006-14.549,8.759-43.095l11.965-5.553c14.859,32.027-2.622,53.225-13.948,59.96" transform="translate(697.762 54.357)" fill="#f5f7fd"/>
          <path id="Path_508" data-name="Path 508" d="M297.634,56.067a15.546,15.546,0,1,1-15.546-15.542,15.551,15.551,0,0,1,15.546,15.542" transform="translate(649.381 98.732)" fill="#f98622"/>
          <path id="Path_509" data-name="Path 509" d="M411.883,59.885A13.087,13.087,0,1,1,398.8,46.8a13.089,13.089,0,0,1,13.085,13.089" transform="translate(939.71 114.01)" fill="#f5f7fd"/>
          <rect id="Rectangle_229" data-name="Rectangle 229" width="13.185" height="51.284" transform="matrix(0.931, -0.365, 0.365, 0.931, 1271.968, 68.995)" fill="#f5f7fd"/>
          <path id="Path_510" data-name="Path 510" d="M361.652,98.032l-6.78-11.312c2.292-1.405,22.01-14.549,8.763-43.095L375.6,38.072c14.859,32.026-2.619,53.225-13.945,59.96" transform="translate(864.581 92.756)" fill="#f98622"/>
          <path id="Path_511" data-name="Path 511" d="M366.106,71.831A15.546,15.546,0,1,1,350.56,56.285a15.546,15.546,0,0,1,15.546,15.546" transform="translate(816.201 137.128)" fill="#d02d5d"/>
          <path id="Path_512" data-name="Path 512" d="M347.309,144.14l-6.78-11.316c2.292-1.4,22.01-14.546,8.766-43.091l11.962-5.553c14.859,32.026-2.622,53.225-13.948,59.96" transform="translate(829.637 205.089)" fill="#d02d5d"/>
          <path id="Path_513" data-name="Path 513" d="M24.191,246.741l-6.776-11.312c2.289-1.405,22.006-14.549,8.763-43.095l11.958-5.553c14.862,32.026-2.618,53.225-13.945,59.96" transform="translate(42.428 455.058)" fill="#f5f7fd"/>
          <rect id="Rectangle_230" data-name="Rectangle 230" width="19.336" height="75.195" transform="matrix(0.349, -0.937, 0.937, 0.349, 1650.613, 356.53)" fill="#d02d5d"/>
          <rect id="Rectangle_231" data-name="Rectangle 231" width="13.185" height="51.284" transform="matrix(0.931, -0.365, 0.365, 0.931, 1686.152, 438.72)" fill="#f5f7fd"/>
          <path id="Path_514" data-name="Path 514" d="M521.371,92.136a13.087,13.087,0,1,1-13.089-13.089,13.092,13.092,0,0,1,13.089,13.089" transform="translate(1206.458 192.584)" fill="#d02d5d"/>
          <path id="Path_515" data-name="Path 515" d="M502.709,147.006a13.087,13.087,0,1,1-13.089-13.089,13.092,13.092,0,0,1,13.089,13.089" transform="translate(1160.991 326.265)" fill="#f5f7fd"/>
          <rect id="Rectangle_232" data-name="Rectangle 232" width="13.188" height="51.282" transform="translate(1648.206 164.838) rotate(-21.397)" fill="#f98622"/>
          <path id="Path_516" data-name="Path 516" d="M471.135,130.283l-6.776-11.312c2.289-1.406,22.01-14.549,8.763-43.095l11.962-5.553c14.859,32.027-2.622,53.225-13.948,59.96" transform="translate(1131.327 171.329)" fill="#0e1c42"/>
          <rect id="Rectangle_233" data-name="Rectangle 233" width="51.284" height="13.188" transform="translate(1572.015 397.549) rotate(-41.039)" fill="#f5f7fd"/>
          <path id="Path_517" data-name="Path 517" d="M475.593,104.082a15.546,15.546,0,1,1-15.546-15.546,15.546,15.546,0,0,1,15.546,15.546" transform="translate(1082.946 215.702)" fill="#f98622"/>
          <rect id="Rectangle_234" data-name="Rectangle 234" width="13.188" height="51.281" transform="translate(1496.459 183.366) rotate(-21.397)" fill="#0e1c42"/>
          <rect id="Rectangle_235" data-name="Rectangle 235" width="19.339" height="75.198" transform="translate(1396.354 243.109) rotate(-69.562)" fill="#d02d5d"/>
          <path id="Path_518" data-name="Path 518" d="M424.415,110.4a13.089,13.089,0,1,1-13.093-13.089A13.093,13.093,0,0,1,424.415,110.4" transform="translate(970.232 237.093)" fill="#d02d5d"/>
          <rect id="Rectangle_236" data-name="Rectangle 236" width="51.283" height="13.187" transform="translate(1302.957 271.765) rotate(-41.016)" fill="#f5f7fd"/>
          <rect id="Rectangle_237" data-name="Rectangle 237" width="19.337" height="75.197" transform="translate(1514.696 492.894) rotate(-69.562)" fill="#44b5a3"/>
          <path id="Path_519" data-name="Path 519" d="M463.157,186.691A13.087,13.087,0,1,1,450.068,173.6a13.09,13.09,0,0,1,13.089,13.089" transform="translate(1064.63 422.95)" fill="#f5f7fd"/>
          <path id="Path_520" data-name="Path 520" d="M431.582,169.968l-6.776-11.312c2.292-1.406,22.01-14.549,8.763-43.095l11.962-5.553c14.859,32.027-2.622,53.225-13.948,59.96" transform="translate(1034.963 268.015)" fill="#f5f7fd"/>
          <rect id="Rectangle_238" data-name="Rectangle 238" width="51.282" height="13.188" transform="translate(1436.101 533.919) rotate(-41.039)" fill="#f98622"/>
          <path id="Path_521" data-name="Path 521" d="M436.034,143.767A15.542,15.542,0,1,1,420.5,128.221a15.539,15.539,0,0,1,15.536,15.546" transform="translate(986.585 312.387)" fill="#f5f7fd"/>
          <rect id="Rectangle_239" data-name="Rectangle 239" width="78.538" height="20.197" transform="translate(856.943 652.036) rotate(-71.451)" fill="#d02d5d"/>
          <path id="Path_522" data-name="Path 522" d="M307.748,182.526a15.544,15.544,0,1,1-21.271-5.536,15.539,15.539,0,0,1,21.271,5.536" transform="translate(679.242 425.991)" fill="#f5f7fd"/>
          <rect id="Rectangle_240" data-name="Rectangle 240" width="51.284" height="13.188" transform="translate(1568.244 112.365) rotate(-41.049)" fill="#f5f7fd"/>
          <rect id="Rectangle_241" data-name="Rectangle 241" width="19.339" height="75.198" transform="translate(1850.988 204.424) rotate(-69.562)" fill="#d02d5d"/>
          <path id="Path_523" data-name="Path 523" d="M547.535,110.4a13.087,13.087,0,1,1-13.089-13.089A13.09,13.09,0,0,1,547.535,110.4" transform="translate(1270.199 237.093)" fill="#f5f7fd"/>
          <path id="Path_524" data-name="Path 524" d="M522.562,85.208,515.782,73.9c2.292-1.405,22.01-14.549,8.762-43.095l11.962-5.553c14.862,32.026-2.619,53.225-13.945,59.96" transform="translate(1256.609 61.512)" fill="#f5f7fd"/>
          <rect id="Rectangle_242" data-name="Rectangle 242" width="51.284" height="13.188" transform="translate(1772.397 245.458) rotate(-41.06)" fill="#44b5a3"/>
          <path id="Path_525" data-name="Path 525" d="M529.378,53.027a15.544,15.544,0,1,1-15.539-15.546,15.542,15.542,0,0,1,15.539,15.546" transform="translate(1213.993 91.316)" fill="#f5f7fd"/>
          <path id="Path_526" data-name="Path 526" d="M547.987,13.318l21.034,7.955c-1.574,4.3-14.017,42.741,33.9,66.874l-10.11,20.078c-53.768-27.078-52.83-73.915-44.827-94.908" transform="translate(1325.281 32.447)" fill="#f5f7fd"/>
          <rect id="Rectangle_243" data-name="Rectangle 243" width="19.336" height="75.195" transform="matrix(0.349, -0.937, 0.937, 0.349, 1859.809, 559.999)" fill="#f5f7fd"/>
          <rect id="Rectangle_244" data-name="Rectangle 244" width="13.188" height="51.284" transform="translate(1933.96 688.711) rotate(-21.397)" fill="#f5f7fd"/>
          <path id="Path_527" data-name="Path 527" d="M574.822,219.757a13.087,13.087,0,1,1-13.086-13.089,13.089,13.089,0,0,1,13.086,13.089" transform="translate(1336.682 503.509)" fill="#f5f7fd"/>
          <rect id="Rectangle_245" data-name="Rectangle 245" width="51.284" height="13.188" transform="translate(1819.819 647.545) rotate(-41.039)" fill="#f5f7fd"/>
          <path id="Path_528" data-name="Path 528" d="M547.708,176.833a15.548,15.548,0,1,1-15.546-15.546,15.55,15.55,0,0,1,15.546,15.546" transform="translate(1258.634 392.947)" fill="#d02d5d"/>
          <path id="Path_529" data-name="Path 529" d="M496.528,183.156a13.089,13.089,0,1,1-13.089-13.089,13.094,13.094,0,0,1,13.089,13.089" transform="translate(1145.923 414.337)" fill="#f98622"/>
          <rect id="Rectangle_246" data-name="Rectangle 246" width="19.339" height="75.198" transform="matrix(0.349, -0.937, 0.937, 0.349, 1762.5, 742.891)" fill="#f98622"/>
          <path id="Path_530" data-name="Path 530" d="M535.269,259.442a13.087,13.087,0,1,1-13.085-13.089,13.092,13.092,0,0,1,13.085,13.089" transform="translate(1240.318 600.194)" fill="#f5f7fd"/>
          <path id="Path_531" data-name="Path 531" d="M503.7,242.719l-6.78-11.312c2.292-1.405,22.01-14.549,8.763-43.095l11.965-5.553c14.859,32.026-2.622,53.225-13.948,59.96" transform="translate(1210.653 445.259)" fill="#0e1c42"/>
          <rect id="Rectangle_247" data-name="Rectangle 247" width="51.284" height="13.188" transform="translate(1683.903 783.915) rotate(-41.039)" fill="#d02d5d"/>
          <path id="Path_532" data-name="Path 532" d="M508.147,216.515a15.542,15.542,0,1,1-15.539-15.542,15.545,15.545,0,0,1,15.539,15.542" transform="translate(1162.275 489.634)" fill="#f98622"/>
          <path id="Path_533" data-name="Path 533" d="M551.66,141.034a13.087,13.087,0,1,1-13.089-13.089,13.092,13.092,0,0,1,13.089,13.089" transform="translate(1280.249 311.715)" fill="#0e1c42"/>
          <path id="Path_534" data-name="Path 534" d="M384.917,179.989a15.544,15.544,0,1,1-5.625-21.254,15.551,15.551,0,0,1,5.625,21.254" transform="translate(867.157 381.598)" fill="#f5f7fd"/>
          <path id="Path_535" data-name="Path 535" d="M397.953,220.01l-.175-13.189c2.691-.058,26.339-1.512,29.24-32.848l13.127,1.21c-3.247,35.157-29.016,44.7-42.191,44.827" transform="translate(969.114 423.856)" fill="#f5f7fd"/>
          <path id="Path_536" data-name="Path 536" d="M404.672,202.081a15.546,15.546,0,1,1-5.625-21.254,15.547,15.547,0,0,1,5.625,21.254" transform="translate(915.287 435.415)" fill="#f98622"/>
          <path id="Path_537" data-name="Path 537" d="M343.946,214.147a15.546,15.546,0,1,1-15.615-15.481,15.551,15.551,0,0,1,15.615,15.481" transform="translate(762.212 484.014)" fill="#f98622"/>
          <rect id="Rectangle_248" data-name="Rectangle 248" width="19.337" height="75.194" transform="matrix(0.349, -0.937, 0.937, 0.349, 1636.525, 1031.298)" fill="#d02d5d"/>
          <rect id="Rectangle_249" data-name="Rectangle 249" width="13.189" height="51.282" transform="translate(1672.063 1113.489) rotate(-21.41)" fill="#f98622"/>
          <path id="Path_538" data-name="Path 538" d="M498.609,343.37a13.087,13.087,0,1,1-13.086-13.089,13.094,13.094,0,0,1,13.086,13.089" transform="translate(1151.002 804.67)" fill="#44b5a3"/>
          <rect id="Rectangle_250" data-name="Rectangle 250" width="13.188" height="51.283" transform="translate(1634.118 854.582) rotate(-21.397)" fill="#f5f7fd"/>
          <path id="Path_539" data-name="Path 539" d="M467.041,326.646l-6.783-11.312c2.292-1.405,22.01-14.549,8.766-43.095l11.958-5.553c14.865,32.026-2.618,53.225-13.941,59.96" transform="translate(1121.335 649.732)" fill="#f98622"/>
          <rect id="Rectangle_251" data-name="Rectangle 251" width="51.282" height="13.188" transform="translate(1557.928 1072.317) rotate(-41.039)" fill="#f5f7fd"/>
          <path id="Path_540" data-name="Path 540" d="M471.5,300.443A15.548,15.548,0,1,1,455.949,284.9,15.551,15.551,0,0,1,471.5,300.443" transform="translate(1072.955 694.107)" fill="#0e1c42"/>
          <rect id="Rectangle_252" data-name="Rectangle 252" width="13.185" height="51.283" transform="matrix(0.931, -0.365, 0.365, 0.931, 1482.364, 858.137)" fill="#f5f7fd"/>
          <rect id="Rectangle_253" data-name="Rectangle 253" width="51.284" height="13.188" transform="translate(1571.149 835.455) rotate(-41.039)" fill="#f5f7fd"/>
          <path id="Path_541" data-name="Path 541" d="M434.023,206.256l21.037,7.952c-1.581,4.3-14.02,42.744,33.9,66.878L478.85,301.16c-53.768-27.075-52.83-73.915-44.827-94.9" transform="translate(1047.628 502.505)" fill="#d02d5d"/>
          <rect id="Rectangle_254" data-name="Rectangle 254" width="19.337" height="75.197" transform="translate(1500.609 1167.661) rotate(-69.558)" fill="#d02d5d"/>
          <path id="Path_542" data-name="Path 542" d="M578.221,407.5a13.089,13.089,0,1,1-13.089-13.082A13.09,13.09,0,0,1,578.221,407.5" transform="translate(1344.953 960.928)" fill="#f5f7fd"/>
          <rect id="Rectangle_255" data-name="Rectangle 255" width="13.188" height="51.283" transform="translate(1907.678 1074.973) rotate(-21.397)" fill="#f5f7fd"/>
          <path id="Path_543" data-name="Path 543" d="M546.645,390.78l-6.777-11.312c2.289-1.4,22.006-14.549,8.763-43.095l11.962-5.55c14.859,32.023-2.622,53.222-13.948,59.957" transform="translate(1315.291 805.99)" fill="#f5f7fd"/>
          <rect id="Rectangle_256" data-name="Rectangle 256" width="51.286" height="13.188" transform="translate(1831.486 1292.709) rotate(-41.039)" fill="#f98622"/>
          <path id="Path_544" data-name="Path 544" d="M551.1,364.578a15.546,15.546,0,1,1-15.546-15.542A15.549,15.549,0,0,1,551.1,364.578" transform="translate(1266.91 850.363)" fill="#0e1c42"/>
          <rect id="Rectangle_257" data-name="Rectangle 257" width="13.191" height="51.283" transform="matrix(0.931, -0.365, 0.365, 0.931, 1755.924, 1078.528)" fill="#f5f7fd"/>
          <rect id="Rectangle_258" data-name="Rectangle 258" width="51.283" height="13.187" transform="translate(1844.708 1055.841) rotate(-41.028)" fill="#f5f7fd"/>
          <path id="Path_545" data-name="Path 545" d="M513.633,270.391l21.034,7.952c-1.577,4.3-14.017,42.741,33.9,66.878L558.457,365.3c-53.765-27.078-52.83-73.915-44.823-94.908" transform="translate(1241.58 658.759)" fill="#d02d5d"/>
          <rect id="Rectangle_259" data-name="Rectangle 259" width="19.339" height="75.196" transform="translate(1774.168 1388.053) rotate(-69.562)" fill="#f98622"/>
          <rect id="Rectangle_260" data-name="Rectangle 260" width="19.336" height="75.195" transform="translate(1869.068 898.264) rotate(-69.568)" fill="#f5f7fd"/>
          <path id="Path_546" data-name="Path 546" d="M428.72,223.469a13.089,13.089,0,1,1-13.089-13.089,13.092,13.092,0,0,1,13.089,13.089" transform="translate(980.721 512.553)" fill="#d02d5d"/>
          <path id="Path_547" data-name="Path 547" d="M290.779,252.208,284,240.893c2.292-1.4,22.01-14.546,8.763-43.091l11.962-5.553c14.862,32.026-2.618,53.225-13.945,59.96" transform="translate(691.912 468.377)" fill="#f5f7fd"/>
          <rect id="Rectangle_261" data-name="Rectangle 261" width="13.186" height="51.281" transform="matrix(0.647, -0.762, 0.762, 0.647, 1142.945, 606.453)" fill="#d02d5d"/>
          <rect id="Rectangle_262" data-name="Rectangle 262" width="13.188" height="51.284" transform="translate(1040.804 564.784) rotate(-21.41)" fill="#f5f7fd"/>
          <path id="Path_548" data-name="Path 548" d="M362.592,254.426l-6.78-11.312c2.292-1.405,22.01-14.549,8.763-43.095l11.962-5.553c14.859,32.03-2.618,53.229-13.944,59.96" transform="translate(866.872 473.781)" fill="#f5f7fd"/>
          <path id="Path_549" data-name="Path 549" d="M502.424,452.68l-6.776-11.316c2.289-1.4,22.01-14.546,8.763-43.088l11.962-5.557c14.859,32.03-2.622,53.229-13.948,59.96" transform="translate(1207.557 956.791)" fill="#d02d5d"/>
          <rect id="Rectangle_263" data-name="Rectangle 263" width="51.284" height="13.188" transform="translate(1679.533 1505.41) rotate(-41.039)" fill="#0e1c42"/>
          <path id="Path_550" data-name="Path 550" d="M506.882,426.475a15.546,15.546,0,1,1-15.542-15.542,15.546,15.546,0,0,1,15.542,15.542" transform="translate(1159.176 1001.164)" fill="#f5f7fd"/>
          <rect id="Rectangle_264" data-name="Rectangle 264" width="13.188" height="51.283" transform="translate(1603.982 1291.223) rotate(-21.383)" fill="#f5f7fd"/>
          <rect id="Rectangle_265" data-name="Rectangle 265" width="51.281" height="13.189" transform="matrix(0.754, -0.657, 0.657, 0.754, 1692.76, 1268.55)" fill="#d02d5d"/>
          <rect id="Rectangle_266" data-name="Rectangle 266" width="19.339" height="75.196" transform="translate(1503.874 1350.969) rotate(-69.562)" fill="#f98622"/>
          <path id="Path_551" data-name="Path 551" d="M455.7,432.8a13.089,13.089,0,1,1-13.092-13.089A13.093,13.093,0,0,1,455.7,432.8" transform="translate(1046.465 1022.557)" fill="#f5f7fd"/>
          <rect id="Rectangle_267" data-name="Rectangle 267" width="19.337" height="75.197" transform="translate(1622.215 1600.752) rotate(-69.558)" fill="#f5f7fd"/>
          <path id="Path_552" data-name="Path 552" d="M494.446,509.092A13.087,13.087,0,1,1,481.358,496a13.092,13.092,0,0,1,13.089,13.092" transform="translate(1140.86 1208.414)" fill="#f98622"/>
          <path id="Path_553" data-name="Path 553" d="M462.871,492.369,456.1,481.053c2.292-1.405,22.01-14.542,8.763-43.091l11.962-5.556c14.859,32.03-2.618,53.229-13.948,59.964" transform="translate(1111.193 1053.476)" fill="#44b5a3"/>
          <rect id="Rectangle_268" data-name="Rectangle 268" width="51.281" height="13.189" transform="translate(1543.622 1641.783) rotate(-41.05)" fill="#d02d5d"/>
          <path id="Path_554" data-name="Path 554" d="M467.323,466.163a15.542,15.542,0,1,1-15.536-15.542,15.542,15.542,0,0,1,15.536,15.542" transform="translate(1062.815 1097.854)" fill="#0e1c42"/>
          <path id="Path_555" data-name="Path 555" d="M582.845,482.573A15.548,15.548,0,1,1,567.3,467.03a15.549,15.549,0,0,1,15.546,15.542" transform="translate(1344.239 1137.834)" fill="#f5f7fd"/>
          <rect id="Rectangle_269" data-name="Rectangle 269" width="13.185" height="51.283" transform="translate(1865.006 1483.989) rotate(-21.388)" fill="#f5f7fd"/>
          <rect id="Rectangle_270" data-name="Rectangle 270" width="19.34" height="75.197" transform="translate(1764.896 1543.737) rotate(-69.566)" fill="#d02d5d"/>
          <path id="Path_556" data-name="Path 556" d="M531.668,488.9a13.091,13.091,0,1,1-13.092-13.086A13.1,13.1,0,0,1,531.668,488.9" transform="translate(1231.527 1159.227)" fill="#f5f7fd"/>
          <rect id="Rectangle_271" data-name="Rectangle 271" width="19.34" height="75.198" transform="translate(1883.24 1793.522) rotate(-69.562)" fill="#f5f7fd"/>
          <path id="Path_557" data-name="Path 557" d="M570.407,565.189A13.087,13.087,0,1,1,557.319,552.1a13.09,13.09,0,0,1,13.089,13.092" transform="translate(1325.925 1345.082)" fill="#f5f7fd"/>
          <path id="Path_558" data-name="Path 558" d="M538.833,548.465l-6.777-11.316c2.288-1.4,22.006-14.542,8.763-43.091L552.78,488.5c14.859,32.03-2.622,53.228-13.948,59.964" transform="translate(1296.258 1190.144)" fill="#d02d5d"/>
          <rect id="Rectangle_272" data-name="Rectangle 272" width="51.282" height="13.188" transform="translate(1804.645 1834.545) rotate(-41.039)" fill="#f5f7fd"/>
          <path id="Path_559" data-name="Path 559" d="M543.284,522.259a15.543,15.543,0,1,1-15.539-15.543,15.543,15.543,0,0,1,15.539,15.543" transform="translate(1247.88 1234.522)" fill="#0e1c42"/>
          <rect id="Rectangle_273" data-name="Rectangle 273" width="19.338" height="75.195" transform="translate(1350.832 1067.268) rotate(-69.581)" fill="#f5f7fd"/>
          <rect id="Rectangle_274" data-name="Rectangle 274" width="13.186" height="51.282" transform="translate(1426.381 1149.442) rotate(-21.383)" fill="#f98622"/>
          <path id="Path_560" data-name="Path 560" d="M415.641,455.11l-6.78-11.316c2.292-1.4,22.01-14.546,8.763-43.091l11.962-5.556c14.859,32.03-2.618,53.228-13.944,59.964" transform="translate(996.116 962.702)" fill="#f5f7fd"/>
          <rect id="Rectangle_275" data-name="Rectangle 275" width="51.284" height="13.188" transform="matrix(0.754, -0.657, 0.657, 0.754, 1381.314, 1513.762)" fill="#f98622"/>
          <rect id="Rectangle_276" data-name="Rectangle 276" width="51.282" height="13.188" transform="translate(1394.532 1276.885) rotate(-41.039)" fill="#d02d5d"/>
          <rect id="Rectangle_277" data-name="Rectangle 277" width="19.338" height="75.195" transform="matrix(0.349, -0.937, 0.937, 0.349, 368.945, 841.301)" fill="#0e1c42"/>
          <rect id="Rectangle_278" data-name="Rectangle 278" width="13.185" height="51.283" transform="translate(404.49 923.484) rotate(-21.397)" fill="#f5f7fd"/>
          <path id="Path_561" data-name="Path 561" d="M129.9,389.347l-6.776-11.309c2.289-1.4,22.006-14.549,8.763-43.091l11.958-5.556c14.862,32.03-2.618,53.229-13.945,59.957" transform="translate(299.967 802.499)" fill="#d02d5d"/>
          <rect id="Rectangle_279" data-name="Rectangle 279" width="51.285" height="13.187" transform="matrix(0.754, -0.657, 0.657, 0.754, 390.794, 1280.545)" fill="#f5f7fd"/>
          <rect id="Rectangle_280" data-name="Rectangle 280" width="51.281" height="13.187" transform="translate(412.646 1050.93) rotate(-41.049)" fill="#f98622"/>
          <path id="Path_562" data-name="Path 562" d="M68.363,264.064,89.4,272.016c-1.577,4.3-14.017,42.744,33.9,66.878l-10.113,20.075c-53.765-27.075-52.83-73.912-44.823-94.9" transform="translate(156.76 643.344)" fill="#d02d5d"/>
          <rect id="Rectangle_281" data-name="Rectangle 281" width="13.187" height="51.285" transform="translate(161.015 994.949) rotate(-21.397)" fill="#f5f7fd"/>
          <rect id="Rectangle_282" data-name="Rectangle 282" width="13.187" height="51.283" transform="translate(9.268 998.501) rotate(-21.397)" fill="#f5f7fd"/>
          <rect id="Rectangle_283" data-name="Rectangle 283" width="51.283" height="13.187" transform="matrix(0.754, -0.657, 0.657, 0.754, 98.049, 975.822)" fill="#f5f7fd"/>
          <path id="Path_563" data-name="Path 563" d="M5.339,247.1l21.034,7.952c-1.577,4.3-14.017,42.741,33.9,66.878L50.163,342.012C-3.6,314.934-2.667,268.1,5.339,247.1" transform="translate(3.214 602.024)" fill="#f98622"/>
          <path id="Path_564" data-name="Path 564" d="M49.564,251.861a15.544,15.544,0,1,1-15.542-15.546,15.545,15.545,0,0,1,15.542,15.546" transform="translate(45.013 575.739)" fill="#f5f7fd"/>
          <path id="Path_565" data-name="Path 565" d="M51.372,300.554,44.6,289.242c2.289-1.406,22.006-14.549,8.763-43.095l11.958-5.553c14.859,32.026-2.618,53.225-13.945,59.96" transform="translate(108.65 586.164)" fill="#d02d5d"/>
          <rect id="Rectangle_284" data-name="Rectangle 284" width="51.282" height="13.188" transform="matrix(0.754, -0.657, 0.657, 0.754, 322.781, 966.723)" fill="#f98622"/>
          <path id="Path_566" data-name="Path 566" d="M174.408,314.588A13.087,13.087,0,1,1,161.323,301.5a13.091,13.091,0,0,1,13.086,13.089" transform="translate(361.145 734.548)" fill="#d02d5d"/>
          <path id="Path_567" data-name="Path 567" d="M112.375,327.5A13.087,13.087,0,1,1,99.29,314.412,13.091,13.091,0,0,1,112.375,327.5" transform="translate(210.013 766.008)" fill="#f98622"/>
          <path id="Path_568" data-name="Path 568" d="M82.828,349.041l21.037,7.952c-1.581,4.3-14.02,42.748,33.9,66.881l-10.117,20.078c-53.765-27.082-52.83-73.919-44.823-94.911" transform="translate(192.002 850.375)" fill="#44b5a3"/>
          <rect id="Rectangle_285" data-name="Rectangle 285" width="13.185" height="51.283" transform="translate(181.252 1282.51) rotate(-21.383)" fill="#f98622"/>
          <rect id="Rectangle_286" data-name="Rectangle 286" width="51.285" height="13.187" transform="translate(118.279 1263.393) rotate(-41.048)" fill="#d02d5d"/>
          <path id="Path_569" data-name="Path 569" d="M55.451,335.546A15.544,15.544,0,1,1,39.909,320a15.547,15.547,0,0,1,15.542,15.546" transform="translate(59.356 779.622)" fill="#f5f7fd"/>
          <path id="Path_570" data-name="Path 570" d="M57.259,384.238l-6.776-11.312c2.292-1.4,22.006-14.546,8.763-43.095l11.962-5.553c14.859,32.026-2.622,53.225-13.948,59.96" transform="translate(122.993 790.045)" fill="#0e1c42"/>
          <path id="Path_571" data-name="Path 571" d="M428.535,494l21.037,7.952c-1.581,4.3-14.02,42.744,33.9,66.881l-10.117,20.075C419.59,561.828,420.531,514.987,428.535,494" transform="translate(1034.255 1203.536)" fill="#0e1c42"/>
          <rect id="Rectangle_287" data-name="Rectangle 287" width="13.185" height="51.285" transform="translate(1364.11 1770.97) rotate(-21.383)" fill="#d02d5d"/>
          <rect id="Rectangle_288" data-name="Rectangle 288" width="51.283" height="13.187" transform="matrix(0.755, -0.656, 0.656, 0.755, 1210.277, 1800.182)" fill="#f5f7fd"/>
          <path id="Path_572" data-name="Path 572" d="M409.736,481.793a15.544,15.544,0,1,1-15.542-15.542,15.543,15.543,0,0,1,15.542,15.542" transform="translate(922.507 1135.936)" fill="#d02d5d"/>
          <path id="Path_573" data-name="Path 573" d="M411.544,530.489l-6.776-11.312c2.288-1.405,22.006-14.549,8.759-43.1l11.962-5.55c14.862,32.023-2.618,53.222-13.945,59.96" transform="translate(986.144 1146.359)" fill="#44b5a3"/>
          <path id="Path_574" data-name="Path 574" d="M396.036,400.271l-6.78-11.316c2.292-1.4,22.01-14.542,8.763-43.088l11.962-5.557c14.862,32.03-2.618,53.229-13.944,59.96" transform="translate(948.352 829.106)" fill="#f5f7fd"/>
          <path id="Path_575" data-name="Path 575" d="M423.521,411.8a15.546,15.546,0,1,1-15.542-15.543A15.545,15.545,0,0,1,423.521,411.8" transform="translate(956.082 965.418)" fill="#d02d5d"/>
          <rect id="Rectangle_289" data-name="Rectangle 289" width="51.284" height="13.188" transform="matrix(0.754, -0.657, 0.657, 0.754, 395.179, 1410.042)" fill="#f98622"/>
          <rect id="Rectangle_290" data-name="Rectangle 290" width="19.337" height="75.199" transform="translate(337.858 1505.393) rotate(-69.571)" fill="#44b5a3"/>
          <path id="Path_576" data-name="Path 576" d="M120.686,481.337A13.087,13.087,0,1,1,107.6,468.248a13.092,13.092,0,0,1,13.086,13.089" transform="translate(230.261 1140.801)" fill="#f98622"/>
          <path id="Path_577" data-name="Path 577" d="M89.113,464.616,82.337,453.3c2.289-1.406,22.006-14.546,8.763-43.095l11.958-5.557c14.862,32.03-2.618,53.228-13.945,59.964" transform="translate(200.599 985.861)" fill="#0e1c42"/>
          <rect id="Rectangle_291" data-name="Rectangle 291" width="51.281" height="13.187" transform="matrix(0.754, -0.657, 0.657, 0.754, 259.265, 1546.413)" fill="#f5f7fd"/>
          <path id="Path_578" data-name="Path 578" d="M93.564,438.41a15.542,15.542,0,1,1-15.539-15.543A15.547,15.547,0,0,1,93.564,438.41" transform="translate(152.219 1030.239)" fill="#d02d5d"/>
          <path id="Path_579" data-name="Path 579" d="M209.084,454.821a15.546,15.546,0,1,1-15.546-15.543,15.551,15.551,0,0,1,15.546,15.543" transform="translate(433.645 1070.221)" fill="#f5f7fd"/>
          <rect id="Rectangle_292" data-name="Rectangle 292" width="13.188" height="51.283" transform="translate(580.646 1388.626) rotate(-21.397)" fill="#f5f7fd"/>
          <rect id="Rectangle_293" data-name="Rectangle 293" width="19.339" height="75.196" transform="translate(480.542 1448.37) rotate(-69.562)" fill="#d02d5d"/>
          <path id="Path_580" data-name="Path 580" d="M157.906,461.143a13.089,13.089,0,1,1-13.089-13.085,13.092,13.092,0,0,1,13.089,13.085" transform="translate(320.931 1091.612)" fill="#f5f7fd"/>
          <rect id="Rectangle_294" data-name="Rectangle 294" width="19.337" height="75.197" transform="translate(598.886 1698.153) rotate(-69.558)" fill="#0e1c42"/>
          <path id="Path_581" data-name="Path 581" d="M196.647,537.434a13.087,13.087,0,1,1-13.086-13.089,13.089,13.089,0,0,1,13.086,13.089" transform="translate(415.327 1277.472)" fill="#f98622"/>
          <path id="Path_582" data-name="Path 582" d="M165.073,520.715,158.3,509.4c2.292-1.405,22.006-14.546,8.763-43.095l11.962-5.556c14.859,32.03-2.622,53.229-13.948,59.967" transform="translate(385.662 1122.529)" fill="#f98622"/>
          <rect id="Rectangle_295" data-name="Rectangle 295" width="51.279" height="13.185" transform="matrix(0.754, -0.657, 0.657, 0.754, 520.293, 1739.185)" fill="#f5f7fd"/>
          <path id="Path_583" data-name="Path 583" d="M169.525,494.507a15.542,15.542,0,1,1-15.539-15.542,15.548,15.548,0,0,1,15.539,15.542" transform="translate(337.284 1166.909)" fill="#44b5a3"/>
          <rect id="Rectangle_296" data-name="Rectangle 296" width="51.283" height="13.187" transform="matrix(0.754, -0.657, 0.657, 0.754, 96.953, 1418.381)" fill="#f5f7fd"/>
          <path id="Path_584" data-name="Path 584" d="M54.775,466.245,75.812,474.2c-1.577,4.3-14.02,42.748,33.9,66.881L99.6,561.156c-53.765-27.082-52.83-73.919-44.823-94.911" transform="translate(123.655 1135.922)" fill="#f5f7fd"/>
          <rect id="Rectangle_297" data-name="Rectangle 297" width="13.184" height="51.285" transform="translate(114.334 1689.706) rotate(-21.383)" fill="#d02d5d"/>
          <rect id="Rectangle_298" data-name="Rectangle 298" width="51.284" height="13.188" transform="translate(51.356 1670.58) rotate(-41.027)" fill="#f5f7fd"/>
          <path id="Path_585" data-name="Path 585" d="M35.977,454.044A15.544,15.544,0,1,1,20.435,438.5a15.545,15.545,0,0,1,15.542,15.546" transform="translate(11.911 1068.321)" fill="#d02d5d"/>
          <path id="Path_586" data-name="Path 586" d="M37.782,502.736l-6.773-11.312c2.289-1.406,22-14.549,8.759-43.1l11.962-5.55C66.589,474.8,49.108,496,37.782,502.736" transform="translate(75.548 1078.744)" fill="#f98622"/>
          <path id="Path_587" data-name="Path 587" d="M43.977,390.49a15.542,15.542,0,1,1-15.536-15.542A15.547,15.547,0,0,1,43.977,390.49" transform="translate(31.409 913.493)" fill="#f5f7fd"/>
          <path id="Path_588" data-name="Path 588" d="M102.809,492.8l21.034,7.952c-1.577,4.3-14.017,42.748,33.906,66.881l-10.113,20.075C93.864,560.63,94.8,513.794,102.809,492.8" transform="translate(240.679 1200.62)" fill="#d02d5d"/>
          <path id="Path_589" data-name="Path 589" d="M295.386,462.318a15.542,15.542,0,1,1-15.539-15.543,15.547,15.547,0,0,1,15.539,15.543" transform="translate(643.921 1088.486)" fill="#f5f7fd"/>
          <rect id="Rectangle_299" data-name="Rectangle 299" width="51.284" height="13.188" transform="matrix(0.754, -0.657, 0.657, 0.754, 790.475, 1500.537)" fill="#d02d5d"/>
          <path id="Path_590" data-name="Path 590" d="M256.6,490.154l21.037,7.952c-1.577,4.3-14.02,42.748,33.9,66.881l-10.116,20.075c-53.765-27.078-52.83-73.919-44.823-94.908" transform="translate(615.358 1194.171)" fill="#f98622"/>
          <rect id="Rectangle_300" data-name="Rectangle 300" width="13.184" height="51.286" transform="translate(807.852 1771.867) rotate(-21.397)" fill="#f5f7fd"/>
          <rect id="Rectangle_301" data-name="Rectangle 301" width="51.284" height="13.188" transform="translate(744.88 1752.736) rotate(-41.027)" fill="#f5f7fd"/>
          <path id="Path_591" data-name="Path 591" d="M237.8,477.952a15.544,15.544,0,1,1-15.542-15.546A15.545,15.545,0,0,1,237.8,477.952" transform="translate(503.614 1126.568)" fill="#44b5a3"/>
          <path id="Path_592" data-name="Path 592" d="M239.6,526.644l-6.773-11.312c2.289-1.405,22-14.549,8.759-43.1l11.962-5.55c14.859,32.023-2.622,53.222-13.948,59.96" transform="translate(567.251 1136.991)" fill="#f5f7fd"/>
          <path id="Path_593" data-name="Path 593" d="M189.968,404.8l-6.776-11.316c2.289-1.4,22.006-14.546,8.763-43.091l11.958-5.553c14.859,32.026-2.618,53.225-13.945,59.96" transform="translate(446.314 840.128)" fill="#0e1c42"/>
          <rect id="Rectangle_302" data-name="Rectangle 302" width="51.284" height="13.188" transform="matrix(0.754, -0.657, 0.657, 0.754, 561.747, 1302.355)" fill="#f98622"/>
          <path id="Path_594" data-name="Path 594" d="M185.017,350.29a15.544,15.544,0,1,1-15.542-15.546,15.545,15.545,0,0,1,15.542,15.546" transform="translate(375.02 815.543)" fill="#f5f7fd"/>
          <path id="Path_595" data-name="Path 595" d="M366.96,434.494l-6.78-11.316c2.292-1.4,22.01-14.546,8.763-43.091l11.965-5.553c14.859,32.027-2.622,53.225-13.948,59.96" transform="translate(877.513 912.484)" fill="#f98622"/>
          <rect id="Rectangle_303" data-name="Rectangle 303" width="51.284" height="13.188" transform="translate(1214.026 1442.915) rotate(-41.039)" fill="#f5f7fd"/>
          <path id="Path_596" data-name="Path 596" d="M374.84,391.19A15.546,15.546,0,1,1,359.3,375.648,15.545,15.545,0,0,1,374.84,391.19" transform="translate(837.48 915.198)" fill="#f5f7fd"/>
          <rect id="Rectangle_304" data-name="Rectangle 304" width="19.336" height="75.197" transform="translate(241.74 1841.327) rotate(-69.568)" fill="#f98622"/>
          <path id="Path_597" data-name="Path 597" d="M92.715,579.1A13.087,13.087,0,1,1,79.63,566.008,13.089,13.089,0,0,1,92.715,579.1" transform="translate(162.115 1378.976)" fill="#f5f7fd"/>
          <rect id="Rectangle_305" data-name="Rectangle 305" width="51.28" height="13.188" transform="translate(118.279 1844.688) rotate(-41.039)" fill="#0e1c42"/>
          <path id="Path_598" data-name="Path 598" d="M18.238,544.512l21.037,7.955c-1.581,4.3-14.02,42.744,33.9,66.878L63.061,639.423C9.293,612.341,10.231,565.5,18.238,544.512" transform="translate(34.637 1326.605)" fill="#f98622"/>
          <path id="Path_599" data-name="Path 599" d="M198.14,403.093l22.487-.138c.072,4.581,2.282,44.923,55.679,50.222l-2.223,22.374c-59.905-5.948-75.867-49.992-75.943-72.458" transform="translate(482.732 981.727)" fill="#f98622"/>
          <rect id="Rectangle_306" data-name="Rectangle 306" width="13.184" height="51.284" transform="translate(502.526 1830.455) rotate(-21.383)" fill="#0e1c42"/>
          <rect id="Rectangle_307" data-name="Rectangle 307" width="51.284" height="13.188" transform="translate(398.044 1885.595) rotate(-41.027)" fill="#f5f7fd"/>
          <rect id="Rectangle_308" data-name="Rectangle 308" width="19.336" height="75.197" transform="translate(800.232 1932.44) rotate(-69.568)" fill="#f5f7fd"/>
          <path id="Path_600" data-name="Path 600" d="M397.286,560.063a13.089,13.089,0,1,1-13.093-13.093,13.1,13.1,0,0,1,13.093,13.093" transform="translate(904.138 1332.596)" fill="#f98622"/>
          <path id="Path_601" data-name="Path 601" d="M221.4,597.683l-6.773-11.316c2.285-1.405,22-14.546,8.759-43.095l11.958-5.557c14.862,32.03-2.618,53.229-13.945,59.967" transform="translate(522.907 1310.048)" fill="#0e1c42"/>
          <rect id="Rectangle_309" data-name="Rectangle 309" width="51.281" height="13.187" transform="matrix(0.754, -0.657, 0.657, 0.754, 713.864, 2010.539)" fill="#f5f7fd"/>
          <path id="Path_602" data-name="Path 602" d="M204.652,569.338A15.542,15.542,0,1,1,189.113,553.8a15.543,15.543,0,0,1,15.539,15.539" transform="translate(422.865 1349.231)" fill="#d02d5d"/>
          <path id="Path_603" data-name="Path 603" d="M303.444,515.428l21.037,7.955c-1.581,4.3-14.02,42.744,33.9,66.878l-10.117,20.078c-53.768-27.082-52.83-73.919-44.823-94.911" transform="translate(729.49 1255.747)" fill="#d02d5d"/>
          <rect id="Rectangle_310" data-name="Rectangle 310" width="19.338" height="75.193" transform="translate(900.701 1875.506) rotate(-69.572)" fill="#f98622"/>
          <rect id="Rectangle_311" data-name="Rectangle 311" width="13.181" height="51.283" transform="matrix(0.931, -0.365, 0.365, 0.931, 1194.347, 1901.888)" fill="#0e1c42"/>
          <rect id="Rectangle_312" data-name="Rectangle 312" width="51.284" height="13.188" transform="translate(1077.184 1973.657) rotate(-41.027)" fill="#f5f7fd"/>
          <path id="Path_604" data-name="Path 604" d="M314.208,398.933l21.034,7.952c-1.581,4.3-14.02,42.744,33.9,66.881l-10.113,20.075c-53.772-27.078-52.83-73.919-44.824-94.908" transform="translate(755.714 971.928)" fill="#0e1c42"/>
          <rect id="Rectangle_313" data-name="Rectangle 313" width="13.183" height="51.285" transform="translate(1005.816 1458.403) rotate(-21.402)" fill="#f98622"/>
          <rect id="Rectangle_314" data-name="Rectangle 314" width="51.284" height="13.188" transform="matrix(0.754, -0.656, 0.656, 0.754, 942.845, 1439.273)" fill="#f5f7fd"/>
          <path id="Path_605" data-name="Path 605" d="M297.216,435.423l-6.776-11.312c2.288-1.406,22.006-14.549,8.759-43.1l11.965-5.55c14.859,32.023-2.622,53.222-13.948,59.96" transform="translate(707.604 914.748)" fill="#44b5a3"/>
          <path id="Path_606" data-name="Path 606" d="M345.955,470.248l21.034,7.952c-1.577,4.3-14.017,42.744,33.906,66.877l-10.116,20.078c-53.768-27.078-52.83-73.919-44.823-94.908" transform="translate(833.06 1145.674)" fill="#f98622"/>
          <rect id="Rectangle_315" data-name="Rectangle 315" width="13.185" height="51.284" transform="matrix(0.931, -0.365, 0.365, 0.931, 1114.909, 1703.464)" fill="#f5f7fd"/>
          <rect id="Rectangle_316" data-name="Rectangle 316" width="51.284" height="13.188" transform="translate(960.487 1657.727) rotate(-41.027)" fill="#44b5a3"/>
          <path id="Path_607" data-name="Path 607" d="M328.96,506.738l-6.773-11.309c2.285-1.405,22-14.549,8.759-43.1l11.962-5.553c14.859,32.026-2.622,53.225-13.948,59.96" transform="translate(784.95 1088.494)" fill="#f5f7fd"/>
          <path id="Path_608" data-name="Path 608" d="M503.376,538.246l21.037,7.952c-1.581,4.3-14.02,42.748,33.9,66.881L548.2,633.157c-53.771-27.082-52.83-73.919-44.827-94.911" transform="translate(1216.591 1311.339)" fill="#d02d5d"/>
          <rect id="Rectangle_317" data-name="Rectangle 317" width="13.181" height="51.283" transform="matrix(0.931, -0.365, 0.365, 0.931, 1655.871, 1961.182)" fill="#f5f7fd"/>
          <rect id="Rectangle_318" data-name="Rectangle 318" width="51.282" height="13.188" transform="translate(1592.892 1942.047) rotate(-41.016)" fill="#f5f7fd"/>
          <path id="Path_609" data-name="Path 609" d="M486.387,581.738l-6.777-11.312c2.289-1.4,22.006-14.549,8.759-43.095l11.962-5.553c14.862,32.027-2.619,53.225-13.945,59.961" transform="translate(1168.483 1271.215)" fill="#f5f7fd"/>
          <path id="Path_610" data-name="Path 610" d="M440.725,554.241l21.037,7.951c-1.581,4.3-14.02,42.748,33.9,66.881l-10.113,20.075c-53.772-27.078-52.83-73.918-44.827-94.907" transform="translate(1063.953 1350.308)" fill="#f98622"/>
          <rect id="Rectangle_319" data-name="Rectangle 319" width="13.183" height="51.283" transform="translate(1431.732 2005.205) rotate(-21.402)" fill="#f5f7fd"/>
          <rect id="Rectangle_320" data-name="Rectangle 320" width="51.282" height="13.188" transform="translate(1368.76 1986.068) rotate(-41.016)" fill="#f5f7fd"/>
          <path id="Path_611" data-name="Path 611" d="M421.165,594.548l-6.78-11.312c2.289-1.405,22.006-14.549,8.763-43.1l11.958-5.55c14.865,32.023-2.615,53.222-13.941,59.961" transform="translate(1009.574 1302.424)" fill="#f5f7fd"/>
          <path id="Path_612" data-name="Path 612" d="M166.361,367.792A35.963,35.963,0,1,1,130.4,331.827a35.964,35.964,0,0,1,35.961,35.964" transform="translate(230.074 808.436)" fill="#f5f7fd"/>
          <path id="Path_613" data-name="Path 613" d="M113.945,420.347a26.922,26.922,0,1,1-26.92-26.923,26.92,26.92,0,0,1,26.92,26.923" transform="translate(146.425 958.504)" fill="#f5f7fd"/>
          <path id="Path_614" data-name="Path 614" d="M145.43,534.792a35.963,35.963,0,1,1-35.961-35.965,35.964,35.964,0,0,1,35.961,35.965" transform="translate(179.079 1215.302)" fill="#f5f7fd"/>
          <path id="Path_615" data-name="Path 615" d="M291.111,417.583a26.922,26.922,0,1,1-26.92-26.924,26.921,26.921,0,0,1,26.92,26.924" transform="translate(578.058 951.77)" fill="#f5f7fd"/>
          <path id="Path_616" data-name="Path 616" d="M232.279,493.347a26.922,26.922,0,1,1-26.92-26.924,26.921,26.921,0,0,1,26.92,26.924" transform="translate(434.725 1136.355)" fill="#f5f7fd"/>
          <path id="Path_617" data-name="Path 617" d="M191.108,404.678a26.92,26.92,0,1,1-26.92-26.924,26.921,26.921,0,0,1,26.92,26.924" transform="translate(334.429 920.329)" fill="#f5f7fd"/>
          <path id="Path_618" data-name="Path 618" d="M365.728,518.058a35.961,35.961,0,1,1-35.961-35.965,35.964,35.964,0,0,1,35.961,35.965" transform="translate(715.805 1174.532)" fill="#f5f7fd"/>
          <path id="Path_619" data-name="Path 619" d="M426.357,476.97A35.961,35.961,0,1,1,390.4,441.005a35.964,35.964,0,0,1,35.961,35.965" transform="translate(863.517 1074.429)" fill="#f5f7fd"/>
          <path id="Path_620" data-name="Path 620" d="M429.206,522.114a26.92,26.92,0,1,1-26.92-26.924,26.92,26.92,0,0,1,26.92,26.924" transform="translate(914.511 1206.441)" fill="#f5f7fd"/>
          <path id="Path_621" data-name="Path 621" d="M491.442,384.583a26.92,26.92,0,1,1-26.92-26.924,26.921,26.921,0,0,1,26.92,26.924" transform="translate(1066.138 871.371)" fill="#f5f7fd"/>
          <path id="Path_622" data-name="Path 622" d="M544.442,517.917a26.92,26.92,0,1,1-26.92-26.924,26.92,26.92,0,0,1,26.92,26.924" transform="translate(1195.263 1196.216)" fill="#f5f7fd"/>
          <path id="Path_623" data-name="Path 623" d="M481.69,310.5a35.961,35.961,0,1,1-35.961-35.964A35.964,35.964,0,0,1,481.69,310.5" transform="translate(998.326 668.848)" fill="#f5f7fd"/>
          <path id="Path_624" data-name="Path 624" d="M507.113,217.583a26.922,26.922,0,1,1-26.924-26.924,26.923,26.923,0,0,1,26.924,26.924" transform="translate(1104.308 464.506)" fill="#f5f7fd"/>
          <path id="Path_625" data-name="Path 625" d="M551.775,77.583a26.92,26.92,0,1,1-26.92-26.924,26.921,26.921,0,0,1,26.92,26.924" transform="translate(1213.129 123.421)" fill="#f5f7fd"/>
          <path id="Path_626" data-name="Path 626" d="M547.775,176.25a26.92,26.92,0,1,1-26.92-26.924,26.92,26.92,0,0,1,26.92,26.924" transform="translate(1203.383 363.806)" fill="#f5f7fd"/>
          <path id="Path_627" data-name="Path 627" d="M444.288,126.791a35.961,35.961,0,1,1-35.961-35.964,35.964,35.964,0,0,1,35.961,35.964" transform="translate(907.202 221.284)" fill="#f5f7fd"/>
          <path id="Path_628" data-name="Path 628" d="M376.559,76.159A35.961,35.961,0,1,1,340.6,40.194a35.962,35.962,0,0,1,35.961,35.965" transform="translate(742.193 97.925)" fill="#f5f7fd"/>
          <path id="Path_629" data-name="Path 629" d="M273.775,93.252a26.92,26.92,0,1,1-26.92-26.924,26.921,26.921,0,0,1,26.92,26.924" transform="translate(535.832 161.596)" fill="#f5f7fd"/>
          <path id="Path_630" data-name="Path 630" d="M306.776,130.847a26.92,26.92,0,1,1-26.92-26.924,26.918,26.918,0,0,1,26.92,26.924" transform="translate(616.233 253.19)" fill="#f5f7fd"/>
          <path id="Path_631" data-name="Path 631" d="M203.775,77.583a26.92,26.92,0,1,1-26.92-26.924,26.921,26.921,0,0,1,26.92,26.924" transform="translate(365.289 123.421)" fill="#f5f7fd"/>
          <path id="Path_632" data-name="Path 632" d="M121.558,71.66A35.961,35.961,0,1,1,85.6,35.695,35.964,35.964,0,0,1,121.558,71.66" transform="translate(120.929 86.964)" fill="#f5f7fd"/>
          <path id="Path_633" data-name="Path 633" d="M92.439,138.682a26.918,26.918,0,1,1-26.917-26.924,26.918,26.918,0,0,1,26.917,26.924" transform="translate(94.047 272.278)" fill="#f5f7fd"/>
          <path id="Path_634" data-name="Path 634" d="M198.942,280.179a26.92,26.92,0,1,1-26.92-26.924,26.918,26.918,0,0,1,26.92,26.924" transform="translate(353.515 617.01)" fill="#f5f7fd"/>
          <path id="Path_635" data-name="Path 635" d="M125.772,194.08a26.918,26.918,0,1,1-26.92-26.924,26.918,26.918,0,0,1,26.92,26.924" transform="translate(175.257 407.245)" fill="#f5f7fd"/>
        </g>
      </g>
    </g>
  </g>
</svg>
