<svg xmlns="http://www.w3.org/2000/svg" fill="none" viewBox="0 0 29 29"><path fill="#fff" d="M21.537 5.95c-.859 0-1.56.701-1.56 1.56 0 .859.701 1.56 1.56 1.56a1.56 1.56 0 1 0 0-3.121ZM14.609 7.95c-3.614 0-6.547 2.942-6.547 6.549a6.556 6.556 0 0 0 6.547 6.549c3.613 0 6.547-2.942 6.547-6.549S18.222 7.95 14.61 7.95Zm0 10.745a4.2 4.2 0 0 1-4.196-4.196 4.2 4.2 0 0 1 4.196-4.197 4.2 4.2 0 0 1 4.196 4.197 4.2 4.2 0 0 1-4.196 4.196Z"/><path fill="#fff" d="M19.805 27.805H9.188c-4.404 0-7.988-3.584-7.988-7.99V9.19c0-4.406 3.584-7.99 7.988-7.99h10.617c4.404 0 7.988 3.584 7.988 7.99v10.626c.007 4.405-3.584 7.99-7.988 7.99ZM9.188 3.702A5.497 5.497 0 0 0 3.701 9.19v10.626a5.497 5.497 0 0 0 5.487 5.488h10.617a5.497 5.497 0 0 0 5.487-5.488V9.19a5.497 5.497 0 0 0-5.488-5.488H9.189Z"/></svg>