<svg xmlns="http://www.w3.org/2000/svg" fill="none" viewBox="0 0 29 29"><path fill="#fff" d="M18.63 27.65c-.358-.06-.717-.112-1.073-.182-1.443-.282-2.766-.867-4.015-1.63-1.87-1.141-3.481-2.596-4.964-4.2-1.683-1.821-3.21-3.764-4.408-5.952-.84-1.537-1.49-3.15-1.736-4.897-.366-2.597.124-4.993 1.887-6.99.694-.787 1.556-1.425 2.357-2.112.161-.139.384-.222.593-.282.658-.19 1.215.055 1.676.5.365.354.716.74.994 1.164.57.87 1.108 1.762 1.616 2.67.266.474.42 1.004.447 1.563.038.758-.206 1.409-.755 1.913-.559.512-1.144.997-1.742 1.46-.731.565-.964 1.29-.788 2.175.194.979.69 1.817 1.25 2.614 1.054 1.502 2.243 2.886 3.645 4.072.66.557 1.358 1.055 2.224 1.248.712.158 1.322-.024 1.85-.53.497-.478.99-.963 1.51-1.417.943-.82 1.988-.913 3.095-.337.81.423 1.495 1.008 2.176 1.601.624.544 1.252 1.08 1.74 1.762.68.951.638 1.814-.219 2.605-.806.743-1.573 1.54-2.541 2.09-.997.566-2.052.936-3.195 1.043-.066.007-.13.033-.195.05h-1.43Z"/></svg>