<svg xmlns="http://www.w3.org/2000/svg" fill="none" viewBox="0 0 29 29"><path fill="#fff" d="M27.582 8.297V22.58c-.01.013-.028.024-.03.038-.211 1.129-1.206 1.826-2.409 1.822-7.16-.023-14.321-.011-21.482-.011-1.457 0-2.364-.91-2.365-2.372V8.65c0-.077-.003-.154.002-.23a.54.54 0 0 1 .808-.441c.09.048.168.118.246.184 3.5 3.003 6.998 6.01 10.504 9.004.255.218.555.414.868.528.883.321 1.643.047 2.335-.55 3.495-3.008 6.998-6.008 10.5-9.01.42-.361.727-.31 1.023.162Z"/><path fill="#fff" d="M14.451 4.7c3.636 0 7.272.002 10.907 0 .643 0 1.184.231 1.623.694.35.369.332.674-.055 1.004-1.51 1.288-3.028 2.567-4.534 3.86a2031.152 2031.152 0 0 0-6.883 5.93c-.882.763-1.245.767-2.12.016-3.666-3.15-7.338-6.293-11.007-9.438-.175-.151-.359-.294-.525-.453-.261-.25-.278-.544-.044-.821A2.13 2.13 0 0 1 3.518 4.7c3.644.002 7.29 0 10.933 0Z"/></svg>