<svg fill="none" xmlns="http://www.w3.org/2000/svg" viewBox="0 0 28 28"><g clip-path="url(#a)"><path d="M20.815 1.727c-.205-.211-.457-.31-.794-.31-.302 0-.67.087-1.08.24-.602.308-1.261.729-1.94 1.253-1.387 1.072-2.207 2.067-2.316 2.371.042.034.2.129.678.191.391.051 4.426-.085 6.084-.157l.004-.098c.027-.82.092-2.741-.636-3.49ZM10.284 3.23C8.814 2.095 7.42 1.417 6.55 1.417c-.033 0-.063.005-.094.007-.71.76-.647 2.658-.62 3.472.005.149.01.278.01.38.03.026 5.763.24 6.692.202-.23-.396-1.013-1.289-2.254-2.248ZM14.628 14.271h-1.969v12.633h1.969V14.27Z" fill="#F8E22C"/><path d="M23.352 14.64h-6.908v12.264h6.908V14.639ZM10.454 14.64H3.42v12.264h7.033V14.639ZM25.667 7.683h-9.223v4.76h9.407V7.845c0-.088-.084-.162-.184-.162ZM10.27 7.683H1.103v4.578c0 .1.084.182.183.182h9.167V7.845c0-.088-.083-.162-.183-.162Z" fill="#FF9E1C"/><path d="M26.715 5.615h-3.506c.035-.115.05-.23.05-.336 0-.084.003-.205.008-.345.038-1.12.108-3.206-.944-4.289C21.907.216 21.373 0 20.735 0c-1.64 0-3.718 1.497-4.534 2.14-.317.25-1.542 1.242-2.201 2.159-.659-.916-1.884-1.91-2.2-2.158C10.982 1.497 8.904 0 7.264 0c-.637 0-1.17.216-1.586.644-1.053 1.083-.983 3.17-.944 4.29.004.139.009.26.009.344 0 .107.013.221.05.336H1.285C.577 5.615 0 6.19 0 6.895v5.367a1.287 1.287 0 0 0 1.286 1.28H2.32v13.545c0 .504.412.914.918.914h21.527c.506 0 .918-.41.918-.914V13.541h1.033c.709 0 1.286-.574 1.286-1.28V6.895c-.001-.706-.578-1.28-1.286-1.28ZM21.53 1.407c.727.748.662 2.669.635 3.489-.005.149-.01.277-.01.38-.006.005-.279.02-.708.039-1.658.072-5.692.208-6.085.157-.477-.062-.635-.157-.678-.191.11-.304.93-1.298 2.318-2.372a12.598 12.598 0 0 1 1.94-1.252c.703-.359 1.326-.56 1.794-.56.336 0 .588.099.794.31Zm-8.871 25.497V13.54h2.684v13.363h-2.685Zm1.968-14.46H12.66V6.742h2.683v5.7h-.715ZM7.265 1.097c.868 0 2.265.678 3.733 1.813 1.388 1.073 2.209 2.067 2.318 2.372-.043.034-.201.128-.678.19a1.442 1.442 0 0 1-.1.007c-.93.038-6.663-.176-6.693-.203 0-.102-.005-.23-.01-.38-.027-.814-.09-2.711.62-3.471.006-.005.01-.012.015-.017.207-.212.459-.31.795-.31Zm4.291 25.807H3.421V13.54h8.135v13.363Zm0-14.46H1.287a.186.186 0 0 1-.184-.183V6.894c0-.1.084-.182.183-.182h10.27v5.732Zm13.023 14.46h-8.135V13.54h8.135v13.363ZM26.9 12.26c0 .1-.085.183-.184.183H16.444V6.712h10.27c.1 0 .184.084.184.182v5.367Z" fill="#0E1856"/></g><defs><clipPath id="a"><path fill="#fff" d="M0 0h28v28H0z"/></clipPath></defs></svg>