<?xml version="1.0" encoding="UTF-8"?><svg id="uuid-a9ca47bd-163c-441b-bd95-1682f2c9b170" xmlns="http://www.w3.org/2000/svg" viewBox="0 0 1198.58 709.84"><defs><style>.uuid-d5e0e839-1b29-4d39-a5ce-607e766c2357{fill:#f6e02d;}.uuid-b6fb0a86-8694-46c6-8266-5666de2d6cc0{fill:#f39e13;}.uuid-114c9d5e-e1a2-4a6f-acca-3974af6eea14{fill:#fff;}.uuid-7e197e7f-1b80-423a-bccf-d2b8c721c316{fill:#e12369;}.uuid-0f4746d3-5512-46af-b440-9b7b24e5ddf3{fill:#243565;}.uuid-3de4cb4a-4afd-4892-a9fd-64c2e7d8fb53{fill:#5abab0;}.uuid-34900d96-0c6a-40ee-8953-ff53451a457b{fill:#262444;}</style></defs><g id="uuid-ec63886c-3f5c-4d4f-b448-2713bfda66ca"><g><polygon class="uuid-114c9d5e-e1a2-4a6f-acca-3974af6eea14" points="903.52 168.57 899.02 168.02 896.02 171.41 895.15 166.97 891 165.16 894.96 162.96 895.4 158.46 898.71 161.54 903.13 160.57 901.22 164.67 903.52 168.57"/><polygon class="uuid-b6fb0a86-8694-46c6-8266-5666de2d6cc0" points="275.84 625.96 267.29 616.61 254.75 618.35 261 607.33 255.47 595.94 267.87 598.48 277 589.7 278.42 602.28 289.59 608.25 278.06 613.49 275.84 625.96"/><polygon class="uuid-0f4746d3-5512-46af-b440-9b7b24e5ddf3" points="108.92 708.13 100.38 698.78 87.83 700.52 94.08 689.5 88.55 678.11 100.96 680.65 110.09 671.87 111.5 684.46 122.68 690.42 111.14 695.66 108.92 708.13"/><polygon class="uuid-7e197e7f-1b80-423a-bccf-d2b8c721c316" points="1117.92 116.43 1105.72 113.04 1096.01 121.18 1095.46 108.52 1084.73 101.8 1096.59 97.37 1099.66 85.09 1107.54 95 1120.18 94.13 1113.19 104.68 1117.92 116.43"/><polygon class="uuid-3de4cb4a-4afd-4892-a9fd-64c2e7d8fb53" points="1197.1 99.48 1189.12 97.26 1182.76 102.58 1182.4 94.3 1175.38 89.9 1183.14 87 1185.15 78.96 1190.31 85.45 1198.58 84.88 1194.01 91.79 1197.1 99.48"/><g><path class="uuid-d5e0e839-1b29-4d39-a5ce-607e766c2357" d="m1088.67,648.93s-3.85-25.17,0-25.17,0,25.17,0,25.17Z"/><path class="uuid-d5e0e839-1b29-4d39-a5ce-607e766c2357" d="m1081.04,641.43s-7.23-12.16-5.25-12.96c1.98-.8,5.25,12.96,5.25,12.96Z"/><path class="uuid-d5e0e839-1b29-4d39-a5ce-607e766c2357" d="m1093.42,670.46s7.39,12.06,5.42,12.89c-1.97.83-5.42-12.89-5.42-12.89Z"/><path class="uuid-d5e0e839-1b29-4d39-a5ce-607e766c2357" d="m1102.48,663.53s13.98,2.14,13.34,4.18c-.64,2.04-13.34-4.18-13.34-4.18Z"/><path class="uuid-d5e0e839-1b29-4d39-a5ce-607e766c2357" d="m1072.2,651.38s-14.01-1.95-13.4-4c.61-2.05,13.4,4,13.4,4Z"/><path class="uuid-d5e0e839-1b29-4d39-a5ce-607e766c2357" d="m1101.49,652.29s11.3-8.51,12.31-6.63c1.01,1.88-12.31,6.63-12.31,6.63Z"/><path class="uuid-d5e0e839-1b29-4d39-a5ce-607e766c2357" d="m1073.51,663.56s-11.18,8.66-12.22,6.8c-1.04-1.87,12.22-6.8,12.22-6.8Z"/><path class="uuid-d5e0e839-1b29-4d39-a5ce-607e766c2357" d="m1094.29,641.76s4.59-13.38,6.48-12.39c1.89.99-6.48,12.39-6.48,12.39Z"/><path class="uuid-d5e0e839-1b29-4d39-a5ce-607e766c2357" d="m1083.9,670.44s-4.41,13.44-6.32,12.48c-1.91-.96,6.32-12.48,6.32-12.48Z"/><path class="uuid-d5e0e839-1b29-4d39-a5ce-607e766c2357" d="m1088.67,668.04s3.85,25.17,0,25.17,0-25.17,0-25.17Z"/><path class="uuid-d5e0e839-1b29-4d39-a5ce-607e766c2357" d="m1095.06,651.38s13.97-21.29,16.83-18.72c2.86,2.57-16.83,18.72-16.83,18.72Z"/><path class="uuid-d5e0e839-1b29-4d39-a5ce-607e766c2357" d="m1082.28,665.59s-13.97,21.29-16.83,18.72c-2.86-2.57,16.83-18.72,16.83-18.72Z"/><path class="uuid-d5e0e839-1b29-4d39-a5ce-607e766c2357" d="m1095.73,664.93s21.19,14.13,18.59,16.97c-2.59,2.84-18.59-16.97-18.59-16.97Z"/><path class="uuid-d5e0e839-1b29-4d39-a5ce-607e766c2357" d="m1081.61,652.05s-21.19-14.13-18.59-16.97c2.59-2.84,18.59,16.97,18.59,16.97Z"/><path class="uuid-d5e0e839-1b29-4d39-a5ce-607e766c2357" d="m1098.22,658.05s24.97-4.99,25.15-1.15c.18,3.84-25.15,1.15-25.15,1.15Z"/><path class="uuid-d5e0e839-1b29-4d39-a5ce-607e766c2357" d="m1079.12,658.92s-24.97,4.99-25.15,1.15,25.15-1.15,25.15-1.15Z"/><path class="uuid-d5e0e839-1b29-4d39-a5ce-607e766c2357" d="m1074.76,690c1.26,0,1.26-1.96,0-1.96s-1.26,1.96,0,1.96h0Z"/><path class="uuid-d5e0e839-1b29-4d39-a5ce-607e766c2357" d="m1117.65,651.31c1.26,0,1.26-1.96,0-1.96s-1.26,1.96,0,1.96h0Z"/><path class="uuid-d5e0e839-1b29-4d39-a5ce-607e766c2357" d="m1058.91,641.99c1.26,0,1.26-1.96,0-1.96s-1.26,1.96,0,1.96h0Z"/><path class="uuid-d5e0e839-1b29-4d39-a5ce-607e766c2357" d="m1106.93,688.14c1.26,0,1.26-1.96,0-1.96s-1.26,1.96,0,1.96h0Z"/><path class="uuid-d5e0e839-1b29-4d39-a5ce-607e766c2357" d="m1096.2,624.74c1.26,0,1.26-1.96,0-1.96s-1.26,1.96,0,1.96h0Z"/><path class="uuid-d5e0e839-1b29-4d39-a5ce-607e766c2357" d="m1083.62,658.3c1.26,0,1.26-1.96,0-1.96s-1.26,1.96,0,1.96h0Z"/></g><g><path class="uuid-0f4746d3-5512-46af-b440-9b7b24e5ddf3" d="m241.33,653.12s-20.57,23.73-23.65,20.12c-3.07-3.61,23.65-20.12,23.65-20.12Z"/><path class="uuid-0f4746d3-5512-46af-b440-9b7b24e5ddf3" d="m240.38,666.29s-5.65,16.51-7.98,15.29c-2.34-1.22,7.98-15.29,7.98-15.29Z"/><path class="uuid-0f4746d3-5512-46af-b440-9b7b24e5ddf3" d="m234.24,638.4s-17.03-3.81-16.07-6.27c.96-2.45,16.07,6.27,16.07,6.27Z"/><path class="uuid-0f4746d3-5512-46af-b440-9b7b24e5ddf3" d="m230.1,653.58s-16.24,6.38-16.82,3.81c-.58-2.57,16.82-3.81,16.82-3.81Z"/><path class="uuid-0f4746d3-5512-46af-b440-9b7b24e5ddf3" d="m238.53,645.16s-31.16,3.89-31.03-.85c.13-4.74,31.03.85,31.03.85Z"/><path class="uuid-0f4746d3-5512-46af-b440-9b7b24e5ddf3" d="m242.27,636.87s-24.64-19.47-21.17-22.7c3.47-3.23,21.17,22.7,21.17,22.7Z"/><path class="uuid-0f4746d3-5512-46af-b440-9b7b24e5ddf3" d="m220.41,624c-1.01-1.19-2.85.38-1.84,1.57,1.01,1.19,2.85-.38,1.84-1.57h0Z"/><path class="uuid-0f4746d3-5512-46af-b440-9b7b24e5ddf3" d="m246.95,675.21c-1.01-1.19-2.85.38-1.84,1.57,1.01,1.19,2.85-.38,1.84-1.57h0Z"/><path class="uuid-0f4746d3-5512-46af-b440-9b7b24e5ddf3" d="m212.58,665.38c-1.01-1.19-2.85.38-1.84,1.57,1.01,1.19,2.85-.38,1.84-1.57h0Z"/></g><path class="uuid-7e197e7f-1b80-423a-bccf-d2b8c721c316" d="m319.11,675.5c.29-.21.6-.41.87-.65.11-.1.21-.2.32-.3.08-.07.51-.39.19-.16.42-.3.86-.58,1.3-.84.19-.11.38-.21.58-.32.36-.19-.24.07,0,0,.13-.04.26-.1.39-.14.21-.06.42-.11.64-.15.38-.08-.24,0-.03,0,.12,0,.24-.02.36-.03.22,0,.43,0,.65.01.05,0,.11.02.16.02.2,0-.38-.07-.19-.03.12.03.24.04.36.06.13.03,1.36.42,1.36.42-.02.03-.42-.2-.04-.01.1.05.21.1.31.15.22.11.44.23.66.36s.41.26.61.39c.1.07.2.14.3.21.05.04.1.07.15.11.28.2-.32-.26-.05-.04.82.68,1.58,1.41,2.28,2.21.17.2.34.4.5.61.27.34-.12-.17.02.02.09.12.18.24.26.36.31.44.61.88.88,1.34s.54.94.77,1.43c.09.19.17.53.31.68,0,0-.18-.46-.08-.19.02.06.05.11.07.17.05.12.1.25.14.38.16.44.3.9.41,1.36.05.21.1.42.13.64.02.1.02.22.05.31,0,0-.05-.54-.04-.27,0,.06.01.13.02.19.04.4.02.79,0,1.19s.09-.45.03-.17c-.02.09-.03.17-.05.26-.04.19-.1.37-.16.56-.11.35.19-.34.07-.17-.04.06-.06.13-.1.19-.04.07-.08.14-.13.21-.2.34-.05-.08.11-.12-.08.02-.27.28-.34.35-.26.28.38-.24.15-.11-.09.05-.18.12-.27.17-.08.04-.16.08-.23.12-.34.19.36-.11.15-.06-.2.05-.4.13-.6.18-.09.02-.51.08-.09.03s-.02,0-.11,0c-.25.02-.51.02-.77.01s-.57-.11-.81-.06c.02,0,.53.09.2.03-.07-.01-.15-.02-.22-.04-.16-.03-.32-.06-.48-.1-.27-.07-.53-.14-.79-.24-.06-.02-.12-.05-.19-.07-.24-.08.44.22.23.1-.12-.07-.26-.12-.39-.19-.22-.12-.44-.24-.64-.39-.05-.03-.1-.07-.15-.11-.25-.17.21.16.21.17-.08-.11-.24-.2-.34-.29-.18-.16-.35-.33-.5-.51-.08-.09-.14-.2-.23-.27,0,0,.34.48.17.22-.04-.06-.09-.12-.13-.18-.13-.2-.26-.4-.37-.62-.05-.09-.1-.19-.14-.28-.03-.05-.05-.11-.08-.17-.17-.33.19.53.08.18-.16-.49-.33-.98-.43-1.49-.02-.13-.04-.25-.07-.38-.09-.47.05.57.01.09-.02-.28-.05-.56-.06-.85-.02-.59,0-1.17.07-1.75.02-.2.14-.66-.01.05.03-.14.04-.28.07-.42.05-.28.11-.57.17-.85.14-.61.32-1.21.53-1.8.05-.14.37-.72.32-.84,0,.01-.24.53-.09.22.03-.07.06-.14.09-.21.07-.15.14-.31.22-.46.28-.56.58-1.11.92-1.64.16-.26.33-.51.51-.75.09-.12.19-.24.27-.37-.37.6-.08.11.04-.04.4-.48.82-.94,1.27-1.37.22-.21.44-.41.68-.6.06-.05.12-.09.18-.14.27-.23-.17.15-.18.14.02.01.41-.3.46-.33.51-.35,1.05-.66,1.6-.92.07-.04.59-.27.2-.09s.13-.05.21-.07c.44-.16.88-.34,1.31-.54-.03.01-.52.19-.19.09.07-.02.15-.05.22-.08.15-.05.29-.1.44-.14.32-.09.64-.17.96-.23.06-.01.6-.11.28-.05-.46.08.52-.07.65-.09.44-.07-.32.02.14-.01.19-.01.37-.03.56-.03,1.78-.07,2.24-2.68.43-3.17-.82-.22-1.66-.37-2.51-.41-.35-.01-.7-.01-1.05,0-.15,0-.3.02-.45.04-.31.03-1.35.18-.56.07-1.66.22-3.2.91-4.57,1.86-2.49,1.73-4.48,4.13-5.75,6.89-2.22,4.84-3.05,11.98,1.71,15.66,2.19,1.69,5.34,2.26,8.02,1.57,2.39-.62,3.82-2.53,4.08-4.92.24-2.2-.58-4.48-1.55-6.41-1.08-2.17-2.61-4.21-4.43-5.82s-3.95-2.92-6.37-3.25c-1.14-.15-2.32-.11-3.42.25-.57.19-1.16.44-1.67.77-.13.08-.61.46-.31.23.28-.21-.14.11-.27.21-.11.09-.22.17-.32.27-.21.2-.39.45-.57.68-.51.65-.92,1.28-1.16,2.08-.26.86.83,1.84,1.63,1.25h0Z"/><path class="uuid-d5e0e839-1b29-4d39-a5ce-607e766c2357" d="m846.1,19.71c-.4-.46-.85-.87-1.26-1.33-.09-.1-.17-.2-.26-.31.34.4-.23-.31-.23-.31-.24-.3.07.12-.04-.04-.07-.11-.16-.22-.23-.33-.13-.19-.26-.39-.37-.59-.05-.1-.1-.2-.15-.3-.21-.4.04.17-.02-.03s-.14-.41-.2-.62c-.03-.1-.05-.21-.07-.32-.01-.05-.01-.11-.03-.16-.07-.28.02.4.01.11,0-.22-.03-.43-.03-.65,0-.11,0-.22.02-.33,0-.08.06-.51.01-.19s.02-.09.03-.15c.02-.11.04-.22.07-.33.05-.23.12-.47.19-.7.02-.07.2-.66.24-.65.01,0-.17.38-.07.16.03-.05.05-.11.07-.16.06-.14.13-.27.2-.4.23-.45.49-.89.77-1.31.14-.21.29-.41.44-.62.24-.33-.24.29.02-.02.09-.11.18-.22.27-.33.36-.42.73-.83,1.12-1.22s.81-.77,1.23-1.13c.1-.08.2-.17.3-.25.17-.14.29-.38.02-.02.15-.19.47-.35.67-.49.85-.6,1.75-1.1,2.7-1.54.4-.19-.27.1-.04.02.11-.04.21-.09.32-.13.22-.08.45-.16.67-.23.42-.13.84-.2,1.26-.3.23-.05-.55.05-.14.02.1,0,.19-.02.29-.02.21-.01.42-.02.63,0,.09,0,.18.02.27.02.28,0-.57-.11-.19-.02.18.04.35.08.52.13.09.02.41.16.03,0s-.06-.03.02.02c.14.08.29.22.44.27-.44-.16-.34-.3-.16-.11.06.06.12.12.18.18.24.23-.03.02-.1-.15.04.09.13.18.18.27.05.08.09.16.13.24.14.25,0,.29-.05-.15.02.19.15.42.2.61.03.11.05.21.07.32.1.44,0-.15,0-.1,0,.26.05.53.05.79,0,.28,0,.57-.02.85-.01.14-.05.29-.04.43-.03-.63.02-.17-.03.07-.05.26-.12.52-.2.77-.04.12-.09.24-.13.36-.09.28.26-.52,0-.03-.11.22-.22.43-.35.64-.06.1-.14.2-.2.3-.22.34.36-.42.04-.05-.15.18-.3.36-.47.52-.08.08-.17.16-.26.24-.19.17-.56.31.03,0-.43.23-.82.53-1.26.75s.13-.05.1-.04c-.12.04-.23.09-.35.13-.25.09-.51.17-.76.23s-.5.12-.75.17c-.13.02-.26.03-.39.06.7-.2.23-.03-.01,0-.56.05-1.12.07-1.68.05-.28,0-.56-.03-.84-.05-.16-.01-.32-.03-.48-.05-.32-.03.61.09,0,0s-1.18-.22-1.76-.38c-.61-.17-1.2-.38-1.79-.6-.5-.19.28.13.01,0-.14-.06-.27-.12-.41-.18-.29-.14-.57-.28-.85-.43-.54-.29-1.07-.62-1.57-.97-.12-.09-.24-.17-.36-.26-.45-.32.28.24,0,0-.25-.22-.51-.43-.76-.65-.45-.41-.87-.86-1.25-1.33-.05-.06-.09-.12-.14-.17-.17-.21.3.41.15.19-.08-.12-.17-.24-.26-.36-.18-.26-.34-.52-.5-.8-.31-.55-.58-1.12-.86-1.68-.03-.06-.21-.34-.19-.4,0,0,.2.51.08.18-.03-.07-.06-.14-.08-.21-.12-.31-.22-.62-.3-.93s-.15-.61-.22-.91c-.04-.15-.07-.31-.1-.46-.01-.08-.02-.16-.04-.24-.06-.25.05.42,0,.01-.1-.8-.54-1.48-1.4-1.58-.73-.09-1.62.36-1.77,1.16-.31,1.7-.27,3.3.1,4.99.35,1.6,1.31,3.03,2.32,4.28,1.89,2.36,4.53,4,7.33,5.06,4.92,1.87,11.93,1.87,15.25-2.9,1.53-2.2,1.89-5.41,1.08-7.95-.75-2.34-2.59-3.81-5.04-3.97-2.18-.14-4.43.8-6.27,1.89-2.23,1.31-4.19,3.07-5.76,5.12-1.45,1.9-2.54,4.14-2.7,6.56-.07,1.08.08,2.21.48,3.22.23.59.51,1.14.89,1.65.22.3.47.61.75.87.05.05.59.45.15.12.13.1.26.2.39.3s.26.19.4.28c.61.41,1.23.72,1.96.88,1.11.23,1.81-1.01,1.08-1.85h0Z"/><path class="uuid-34900d96-0c6a-40ee-8953-ff53451a457b" d="m1024.07,122.22c-.22.14-.46.28-.68.36-.14.05-.3.09-.44.13-.07.02-.13.03-.2.04-.11.02.09,0-.08.01-.68.06-.88,0-1.54-.21-.07-.02-.14-.05-.21-.08.18.07,0,0-.03-.01-.14-.06-.27-.13-.41-.21s-.27-.16-.41-.24c-.08-.05-.49-.33-.34-.22-.19-.14-.39-.28-.57-.43.15.11-.17-.14-.24-.2-.31-.26-.6-.54-.88-.82-.26-.26-.51-.53-.75-.81-.12-.14-.24-.29-.36-.43-.06-.07-.12-.15-.18-.22-.29-.36.16.22-.11-.15-.47-.64-.91-1.3-1.3-1.98-.37-.65-.7-1.32-1.01-1.99-.03-.07-.07-.15-.1-.23.02.05.12.32.03.05-.05-.15-.11-.29-.16-.44-.1-.29-.19-.59-.26-.89-.03-.13-.05-.26-.08-.39-.09-.37,0,.36,0-.08-.01-.33,0-.65.01-.98.01-.18.03-.36.05-.54.03-.25-.05.28,0,.04.02-.09.03-.17.04-.26.07-.37.16-.73.27-1.09.05-.15.1-.3.16-.45.14-.39-.12.22.06-.14.15-.3.3-.59.48-.88.08-.12.17-.23.25-.35.11-.18-.21.24-.06.08.05-.05.09-.11.13-.16.19-.22.39-.43.61-.63.11-.1.23-.2.34-.3.3-.26-.27.18.06-.04.23-.16.46-.31.7-.45s.49-.24.73-.37c.19-.1-.35.11-.14.06.06-.01.12-.05.18-.07.13-.05.27-.09.4-.14.24-.07.47-.14.72-.19.13-.03.27-.05.4-.08.36-.07-.42.03.03,0,.49-.04.96-.01,1.45,0,.23,0-.47-.09-.07,0,.1.02.21.04.31.06.23.05.44.12.66.2.37.12-.27-.14-.09-.04.08.05.17.08.26.13s.16.1.24.14c.04.02.07.06.11.08.23.13-.33-.31-.15-.12.12.12.25.26.37.37.14.13-.26-.42-.09-.11.05.09.1.19.16.28.13.21-.15-.5-.06-.14.02.08.04.17.07.26.11.35,0-.35-.02-.15,0,.11,0,.24,0,.36,0,.42-.12-.04.03-.12-.03.01-.05.27-.06.31-.03.11-.06.22-.09.32-.02.06-.04.11-.06.17-.09.29.18-.34.07-.15-.15.25-.26.51-.41.76-.09.15-.19.3-.29.45-.05.08-.11.15-.16.23.13-.18.16-.19,0-.01-.24.28-.5.55-.78.8-.11.1-.53.38-.11.1-.16.1-.3.22-.46.32-.28.18-.58.3-.87.46-.22.13.36-.12.12-.05-.1.03-.19.07-.29.11-.17.06-.35.11-.52.16-.16.04-.32.08-.47.11-.09.02-.61.06-.29.06.34,0-.22.02-.3.03-.21.02-.41.02-.62.03-.33,0-.67-.01-1-.04-.08,0-.17-.02-.25-.03-.26-.02.4.07.14.02-.19-.04-.38-.06-.57-.1-.72-.15-1.42-.37-2.11-.63-.32-.12.06.03.1.05-.08-.04-.16-.07-.24-.11-.16-.07-.32-.15-.47-.23-.35-.18-.7-.37-1.03-.58-.3-.19-.58-.39-.87-.59s.04.04.08.07c-.07-.05-.14-.11-.2-.16-.17-.14-.33-.28-.49-.43-.26-.23-.5-.48-.74-.73-.12-.13-.23-.25-.34-.38-.06-.07-.11-.13-.16-.2-.29-.34.25.36,0,0-.37-.52-.93-1.2-1.07-1.84,0,.03.17.45.06.13-.03-.08-.06-.15-.09-.23-.05-.15-.11-.31-.15-.47s-.09-.32-.12-.48c-.02-.08-.03-.16-.05-.24-.07-.32-.15-.18,0,.04-.13-.2-.06-.75-.06-.99,0-.17,0-.33.02-.5,0-.02.04-.22.02-.25.08.17-.07.4,0,.02s.16-.74.27-1.1c.06-.19.12-.38.19-.57.04-.13.34-.83.14-.37.36-.8.77-1.57,1.26-2.31.13-.21.27-.41.42-.61.06-.09.13-.18.19-.26-.04.06-.25.31-.01.02.29-.36.6-.72.92-1.05s.65-.66,1-.97c.16-.14.33-.28.5-.42.07-.06.31-.21-.03.02.11-.07.21-.16.32-.23.34-.24.7-.46,1.07-.67.18-.1.36-.19.55-.28.12-.06.23-.11.35-.16-.23.1-.23.09,0,0,.38-.13.76-.25,1.15-.33.08-.02.7-.11.38-.08s.01,0,.09,0c.12,0,.24-.02.37-.02.22,0,.44,0,.66.01.1,0,.2.02.29.03.28.01-.38-.09-.1,0,.41.13.83.22,1.24.35-.46-.14.1.05.23.12.22.12.44.24.64.38.1.06.19.13.28.19.26.16-.23-.2,0,0,.21.18.42.36.62.55l-.32-2.47c-.12.25-.25.5-.41.74-.13.21-.1.39.01,0-.03.08-.18.21-.24.27-.04.04-.2.24-.26.24.13,0,.39-.25.05-.05-.09.05-.19.11-.28.17-.44.27.29-.05-.01,0-.19.04-.39.09-.57.14-.25.07.55,0,.16-.03-.11,0-.22.01-.33.01s-.22,0-.34-.01c-.36-.01-.14.11.08.02-.17.07-.65-.14-.82-.19-.24-.07-.48-.16-.71-.24-.43-.16.42.2,0,0-.12-.06-.24-.11-.36-.17-.49-.24-.96-.52-1.41-.83-.23-.16-.46-.32-.69-.49.45.33-.25-.21-.37-.3-.43-.36-.84-.75-1.22-1.15-.13-.14-1.11-1.04-1.06-1.21-.03.08.26.35,0,0-.07-.1-.14-.2-.21-.3-.15-.23-.3-.46-.44-.69-.09-.16-.18-.32-.26-.48-.01-.03-.11-.28-.13-.28.14.03.17.5.06.11-.2-.7-.41-1.4-.55-2.11-.03-.17-.06-.33-.09-.5-.1-.54.03.42-.02-.11-.02-.26-.05-.51-.06-.77-.01-.29-.01-.58,0-.88,0-.14.01-.28.03-.42.05-.58-.05.19.02-.15.05-.26.1-.51.17-.76.03-.1.28-.66.24-.72.07.11-.2.39,0,.02.04-.07.07-.15.11-.22.13-.25.28-.5.44-.74.07-.1.14-.2.21-.3-.32.47,0,0,.09-.09.2-.22.41-.44.62-.64.1-.09.19-.18.29-.26.07-.06.14-.11.2-.17-.21.16-.23.17-.06.05.23-.16.45-.32.68-.48.58-.38,1.18-.72,1.81-1.02.78-.38,1.01-.47,1.88-.78s1.38-1.1,1.14-2-1.15-1.36-2-1.14c-2.73.71-5.58,1.79-7.51,3.94s-2.58,5.02-2.22,7.85c.2,1.57.52,3.15,1.22,4.58.53,1.1,1.31,2.09,2.11,3,1.79,2.03,4.1,3.78,6.68,4.65,1.33.45,2.91.61,4.27.16,1.6-.53,2.84-1.71,3.58-3.22.39-.81.37-1.81-.32-2.47-1.77-1.69-3.99-2.81-6.47-2.85-2.17-.04-4.33.78-6.11,1.99-1.92,1.31-3.51,2.99-4.79,4.92-1.12,1.68-2.05,3.65-2.37,5.65-1.21,7.58,6.63,14.06,13.84,13.64,3.77-.22,7.21-2.45,8.55-6.06.48-1.29.46-2.74-.17-3.97-.59-1.14-1.67-1.88-2.84-2.32-1.08-.4-2.29-.5-3.43-.37-.94.1-.38.05-.18.02-.2.03-.4.05-.59.08-.13.02-.27.05-.4.07-.3.06-.6.14-.89.24-.68.23-1.35.52-1.96.88-2.89,1.71-4.47,4.78-4.71,8.07s1.85,6.61,4.03,9.05c1.97,2.21,5.36,5.06,8.58,3.91.74-.26,1.35-.71,1.84-1.31s-.14-1.67-.9-1.17h0Z"/><g><polygon class="uuid-d5e0e839-1b29-4d39-a5ce-607e766c2357" points="141.66 63.12 133.67 60.9 127.31 66.23 126.96 57.94 119.93 53.55 127.69 50.64 129.71 42.6 134.86 49.09 143.13 48.52 138.56 55.43 141.66 63.12"/><g><path class="uuid-0f4746d3-5512-46af-b440-9b7b24e5ddf3" d="m45.87,66.97s-5.09-33.28,0-33.28,0,33.28,0,33.28Z"/><path class="uuid-0f4746d3-5512-46af-b440-9b7b24e5ddf3" d="m35.78,57.05s-9.56-16.08-6.94-17.14c2.62-1.06,6.94,17.14,6.94,17.14Z"/><path class="uuid-0f4746d3-5512-46af-b440-9b7b24e5ddf3" d="m52.15,95.43s9.78,15.95,7.17,17.04c-2.6,1.1-7.17-17.04-7.17-17.04Z"/><path class="uuid-0f4746d3-5512-46af-b440-9b7b24e5ddf3" d="m64.13,86.27s18.49,2.84,17.64,5.53c-.85,2.7-17.64-5.53-17.64-5.53Z"/><path class="uuid-0f4746d3-5512-46af-b440-9b7b24e5ddf3" d="m24.09,70.21s-18.53-2.58-17.72-5.29c.81-2.71,17.72,5.29,17.72,5.29Z"/><path class="uuid-0f4746d3-5512-46af-b440-9b7b24e5ddf3" d="m62.82,71.41s14.94-11.26,16.28-8.77c1.34,2.49-16.28,8.77-16.28,8.77Z"/><path class="uuid-0f4746d3-5512-46af-b440-9b7b24e5ddf3" d="m25.83,86.32s-14.79,11.46-16.16,8.99c-1.37-2.47,16.16-8.99,16.16-8.99Z"/><path class="uuid-0f4746d3-5512-46af-b440-9b7b24e5ddf3" d="m53.31,57.49s6.07-17.69,8.57-16.38c2.5,1.31-8.57,16.38-8.57,16.38Z"/><path class="uuid-0f4746d3-5512-46af-b440-9b7b24e5ddf3" d="m39.56,95.42s-5.83,17.77-8.35,16.5c-2.52-1.28,8.35-16.5,8.35-16.5Z"/><path class="uuid-0f4746d3-5512-46af-b440-9b7b24e5ddf3" d="m45.87,92.24s5.09,33.28,0,33.28,0-33.28,0-33.28Z"/><path class="uuid-0f4746d3-5512-46af-b440-9b7b24e5ddf3" d="m54.32,70.21s18.47-28.15,22.25-24.75c3.78,3.4-22.25,24.75-22.25,24.75Z"/><path class="uuid-0f4746d3-5512-46af-b440-9b7b24e5ddf3" d="m37.43,89.01s-18.47,28.15-22.25,24.75c-3.78-3.4,22.25-24.75,22.25-24.75Z"/><path class="uuid-0f4746d3-5512-46af-b440-9b7b24e5ddf3" d="m55.21,88.13s28.01,18.68,24.58,22.44c-3.43,3.76-24.58-22.44-24.58-22.44Z"/><path class="uuid-0f4746d3-5512-46af-b440-9b7b24e5ddf3" d="m36.54,71.09s-28.01-18.68-24.58-22.44c3.43-3.76,24.58,22.44,24.58,22.44Z"/><path class="uuid-0f4746d3-5512-46af-b440-9b7b24e5ddf3" d="m58.5,79.03s33.02-6.6,33.25-1.52c.23,5.08-33.25,1.52-33.25,1.52Z"/><path class="uuid-0f4746d3-5512-46af-b440-9b7b24e5ddf3" d="m33.25,80.19S.23,86.78,0,81.7c-.23-5.08,33.25-1.52,33.25-1.52Z"/><path class="uuid-0f4746d3-5512-46af-b440-9b7b24e5ddf3" d="m27.48,121.28c1.67,0,1.67-2.59,0-2.59s-1.67,2.59,0,2.59h0Z"/><path class="uuid-0f4746d3-5512-46af-b440-9b7b24e5ddf3" d="m84.19,70.12c1.67,0,1.67-2.59,0-2.59s-1.67,2.59,0,2.59h0Z"/><path class="uuid-0f4746d3-5512-46af-b440-9b7b24e5ddf3" d="m6.52,57.79c1.67,0,1.67-2.59,0-2.59s-1.67,2.59,0,2.59h0Z"/><path class="uuid-0f4746d3-5512-46af-b440-9b7b24e5ddf3" d="m70.01,118.81c1.67,0,1.67-2.59,0-2.59s-1.67,2.59,0,2.59h0Z"/><path class="uuid-0f4746d3-5512-46af-b440-9b7b24e5ddf3" d="m55.84,34.99c1.67,0,1.67-2.59,0-2.59s-1.67,2.59,0,2.59h0Z"/><path class="uuid-0f4746d3-5512-46af-b440-9b7b24e5ddf3" d="m39.19,79.36c1.67,0,1.67-2.59,0-2.59s-1.67,2.59,0,2.59h0Z"/></g><path class="uuid-3de4cb4a-4afd-4892-a9fd-64c2e7d8fb53" d="m224.43,44.08c.11.61.06.95-.08,1.42-.01.05-.15.38-.07.19-.2.48-.12.27-.07.18-.04.07-.07.14-.11.21-.07.11-.13.22-.21.33-.02.03-.14.19-.06.09s-.08.1-.1.12c-.2.22-.41.42-.64.62-.21.18.04-.01-.19.14-.14.1-.28.19-.42.28-.58.37-1.19.69-1.82.97-.25.11-.08.03-.02.01-.1.04-.2.08-.3.12-.16.06-.32.12-.49.18-.35.12-.71.23-1.07.33-.72.2-1.46.36-2.2.48-.11.02-.22.03-.32.05-.24.03.26-.03.02,0-.17.02-.34.04-.51.06-.37.04-.74.05-1.12.07-.65.03-1.3.04-1.95,0-.06,0-.54-.06-.25-.02s-.17-.03-.22-.04c-.27-.05-.52-.13-.78-.2-.42-.12.15.09-.03,0s-.38-.18-.56-.28c-.39-.21-.77-.44-1.13-.69-.32-.22.07.08-.22-.17-.14-.11-.27-.23-.4-.35-.28-.26-.54-.55-.78-.84-.15-.18.16.23.03.04-.04-.07-.09-.13-.14-.2-.09-.13-.17-.27-.25-.41-.09-.15-.17-.31-.25-.47-.04-.07-.06-.14-.1-.21.08.16.09.24.01.02-.1-.28-.2-.56-.27-.86-.04-.16-.08-.32-.11-.49-.01-.07-.02-.14-.04-.22-.06-.31.01.28.01.07,0-.61-.02-1.19.01-1.8.01-.23-.07.37-.02.15.02-.07.02-.13.03-.2.03-.15.06-.3.09-.45.07-.27.15-.54.24-.81.02-.06.21-.48.07-.19s.07-.15.11-.22c.12-.23.25-.45.39-.67.05-.08.32-.36.09-.14-.24.23.08-.08.13-.15.07-.08.15-.16.23-.24.07-.06.4-.32.12-.12-.3.21.07-.05.13-.08.09-.05.18-.1.26-.15.33-.2-.29.07-.1.03.1-.02.21-.06.31-.09.03-.01.16-.01.18-.04-.02.02-.51.02-.27.04.09,0,.19,0,.29,0,.41,0-.03.13-.13-.03.02.03.29.07.33.08.02,0,.18.07.18.06-.03.04-.44-.25-.22-.09.09.06.2.1.29.16.39.24-.04.05-.01-.03,0,.02.34.3.36.32.1.1.19.2.28.31.04.04.12.12.14.17,0-.02-.27-.38-.09-.11.23.35.47.69.67,1.06.09.16.16.33.24.5-.18-.38,0,.02.05.18.13.37.21.76.28,1.14.06.3-.04-.12-.02-.12,0,0,.02.28.02.25.01.17.02.34.02.51s0,.34-.02.51c0,.08-.02.17-.02.25-.03.44.08-.44,0,0-.06.33-.13.66-.23.99-.05.16-.1.33-.16.49-.03.08-.06.16-.09.24-.15.42.19-.39,0,.02-.33.68-.7,1.31-1.13,1.93-.06.08-.23.28.06-.07-.06.07-.11.14-.17.21-.11.14-.23.28-.35.41-.27.3-.56.59-.86.87-.13.12-.27.24-.41.36-.1.09-.55.43-.14.13-.33.25-.66.48-1.01.7-.31.19-.62.37-.95.54-.16.08-.32.16-.49.24-.08.04-.17.07-.25.11.48-.23.07-.03-.03,0-.71.27-1.43.45-2.17.6-.28.05.04-.08.14-.01-.02-.01-.26.03-.26.03-.17.02-.34.03-.52.04-.38.02-.77,0-1.15-.03-.06,0-.21-.04-.25-.03.04-.01.49.09.15.01-.17-.03-.33-.06-.5-.1s-.33-.09-.49-.14c-.08-.03-.16-.05-.24-.08-.43-.15-.02.02,0,.01-.06.06-.84-.43-.93-.48-.15-.09-.3-.2-.45-.3-.04-.03-.16-.1-.2-.14.27.34.17.14.02,0-.56-.47-1.08-.99-1.56-1.54-.12-.14-.23-.28-.34-.41-.22-.27.03.05.06.09-.05-.07-.11-.15-.16-.22-.25-.33-.48-.68-.7-1.03-.42-.67-.78-1.37-1.11-2.1-.15-.33.02.05.04.1-.03-.09-.07-.17-.1-.26-.07-.17-.13-.35-.19-.52-.14-.39-.26-.79-.36-1.19-.09-.35-.16-.7-.22-1.06-.09-.57.01.23-.02-.12-.02-.22-.04-.44-.05-.66-.02-.35-.02-.69,0-1.04,0-.1.09-.72.02-.36s.05-.25.07-.35c.07-.33.16-.65.27-.96.03-.08.06-.16.09-.23.13-.4-.18.32-.04.09.1-.16.16-.34.26-.5.08-.15.17-.29.27-.43,0,0,.15-.2.15-.21.03.08-.28.33-.08.11.26-.3.53-.59.83-.85.07-.06.14-.12.21-.17-.36.31-.17.13-.08.07.16-.1.32-.22.48-.32.4-.24.81-.44,1.24-.63l-2.47-.32c.08.09.34.48.04.03.08.11.15.22.23.33.07.11.12.22.19.33.22.37-.12-.45-.01-.04.02.06.23.63.18.66-.06.03-.02-.58-.03-.11,0,.14-.01.29,0,.43,0,.39.14-.49.01-.11-.03.1-.05.21-.08.31,0,.03-.07.3-.1.31.03,0,.24-.47.03-.07-.11.2-.22.41-.35.6-.06.08-.13.23-.21.29.43-.35.05-.07-.07.07-.34.39-.72.74-1.12,1.07-.09.07-.46.33-.02.02-.11.08-.22.16-.33.24-.27.19-.54.36-.82.53-.44.27-.9.51-1.36.74-.13.06-.96.42-.42.2-.3.12-.6.24-.9.34-.5.17-1,.32-1.51.45-.24.06-.48.1-.72.15s-.34.19.07,0c-.11.05-.32.04-.44.05-.43.03-.85.02-1.28-.03-.6-.06.39.07-.18-.02-.17-.03-.34-.05-.51-.09-.38-.07-.75-.15-1.12-.25-.3-.08-.59-.16-.88-.26-.14-.05-.28-.1-.41-.15-.1-.04-.53-.25-.05-.02-.48-.23-.95-.47-1.39-.77-.1-.07-.22-.14-.3-.22.41.38.1.08.02,0-.18-.17-.35-.32-.52-.5-.08-.09-.15-.18-.24-.27-.3-.3.25.37.02.03-.15-.23-.32-.45-.46-.69s-.26-.49-.39-.74c-.2-.38.13.42,0,0-.05-.16-.12-.31-.17-.47-.19-.58-.32-1.18-.42-1.78-.01-.09-.07-.55-.02-.06-.02-.19-.04-.38-.06-.57-.03-.34-.05-.69-.06-1.04-.02-.74,0-1.48.04-2.22.05-.8-.65-1.51-1.41-1.6s-1.66.36-1.78,1.16c-.23,1.5-.41,3.02-.34,4.54.02.35.05.71.1,1.06.07.54.02.12,0,.01.03.21.05.42.09.63.03.17.06.34.1.51.14.61.34,1.19.58,1.76,1.12,2.66,3.46,4.37,6.15,5.25,1.4.46,2.99.8,4.47.78,1.25-.01,2.52-.28,3.7-.65,2.59-.82,5.26-2.19,7.11-4.23,1.1-1.21,1.85-2.6,2.01-4.24.16-1.72-.66-3.3-1.75-4.57-.42-.49-1.37-.78-1.98-.52-2.03.85-3.82,2.09-4.96,4.02-.95,1.62-1.34,3.55-1.25,5.41.19,3.88,2,7.63,4.59,10.47,1.28,1.41,2.82,2.55,4.61,3.2s3.77.64,5.62.28c3.71-.74,7.11-3.25,9.14-6.4s2.46-7.53.28-10.87c-.87-1.33-2.11-2.58-3.72-2.93-1.51-.33-2.93.16-4.1,1.12-2.25,1.86-2.93,5.19-2.54,7.95.51,3.56,3.25,6.54,6.6,7.73,1.33.48,2.93.54,4.32.38,1.74-.2,3.45-.57,5.09-1.19s3.17-1.37,4.44-2.55c.53-.49,1.02-1.07,1.36-1.71.43-.79.57-1.33.59-2.08s-.2-1.42-.54-2.07c-.41-.8-1.5-.21-1.36.57h0Z"/></g><polygon class="uuid-7e197e7f-1b80-423a-bccf-d2b8c721c316" points="333.16 600.42 336.28 597.14 340.75 597.86 338.6 593.88 340.67 589.85 336.21 590.66 333.02 587.45 332.41 591.94 328.38 593.99 332.46 595.95 333.16 600.42"/><path class="uuid-3de4cb4a-4afd-4892-a9fd-64c2e7d8fb53" d="m1022.19,616.49c8.2,1.38,18.04-.78,23.37-7.64,2.81-3.62,3.75-9.39,0-12.81-5.78-5.28-13.54,4.16-6.19,8.07,8.22,4.38,17.81-5.09,20.72-11.88,3.13-7.29,3.55-15.41,6.99-22.61.54-1.13,2.25-.21,1.71.92-5.54,11.6-4.18,26.81-16.9,33.88-4.22,2.34-10.06,3.85-14.34.85-3.03-2.12-4.5-6.22-2.25-9.44,2.33-3.32,7.24-4.19,10.59-1.97,3.63,2.41,4.8,7.37,3.72,11.41-3,11.22-17.91,14.81-27.85,13.14-1.23-.21-.8-2.1.43-1.89h0Z"/><path class="uuid-7e197e7f-1b80-423a-bccf-d2b8c721c316" d="m981.45,708.64c-4.59-2.75-8.5-7.92-8.24-13.5.14-2.94,2.09-6.16,5.35-6.26,5.03-.17,4.88,7.69-.34,6.53-5.85-1.29-6.58-9.92-5.17-14.46,1.51-4.88,4.7-9.02,6.02-13.98.21-.78-1.01-1.04-1.22-.27-2.13,7.98-9.15,14.86-5.88,23.63,1.08,2.91,3.31,6.08,6.66,6.4,2.37.23,4.8-1.16,5.04-3.68.25-2.6-1.79-5.07-4.35-5.39-2.78-.34-5.43,1.6-6.59,4.02-3.22,6.74,2.57,14.72,8.13,18.06.69.41,1.27-.69.58-1.11h0Z"/><path class="uuid-7e197e7f-1b80-423a-bccf-d2b8c721c316" d="m170.52,586.44c-7.08,2-15.94,1.05-21.27-4.48-2.82-2.92-4.19-7.89-1.23-11.26,4.57-5.19,12.3,2.36,6.22,6.5-6.81,4.64-16.14-2.77-19.35-8.46-3.45-6.11-4.6-13.2-8.31-19.21-.58-.94-2,.03-1.42.97,5.98,9.66,6.24,23.17,18.1,28.16,3.93,1.65,9.21,2.42,12.69-.63,2.46-2.16,3.36-5.9,1.07-8.52-2.36-2.7-6.77-2.99-9.49-.72-2.96,2.46-3.52,6.94-2.18,10.38,3.71,9.58,17.16,11.31,25.74,8.89,1.07-.3.5-1.92-.56-1.62h0Z"/><g><path class="uuid-7e197e7f-1b80-423a-bccf-d2b8c721c316" d="m958.59,55.29s-3.04-36.91,6.7-32.4c9.75,4.51-8.35,25.72-6.7,32.4Z"/><path class="uuid-7e197e7f-1b80-423a-bccf-d2b8c721c316" d="m954.51,54.71s-11.85-22.37-4.51-22.16c7.34.21,1.68,18.41,4.51,22.16Z"/><path class="uuid-7e197e7f-1b80-423a-bccf-d2b8c721c316" d="m963.18,54.97s6.26-24.53,11.56-19.44c5.29,5.09-11.13,14.76-11.56,19.44Z"/></g><g><path class="uuid-3de4cb4a-4afd-4892-a9fd-64c2e7d8fb53" d="m83.99,574.93s-34.92,52.88-43.27,36.51c-8.35-16.37,38.42-25.79,43.27-36.51Z"/><path class="uuid-3de4cb4a-4afd-4892-a9fd-64c2e7d8fb53" d="m88.86,580.02s-7.71,42.63-17.36,34.59c-9.65-8.04,17.2-26.55,17.36-34.59Z"/><path class="uuid-3de4cb4a-4afd-4892-a9fd-64c2e7d8fb53" d="m77.47,570.5s-34.36,26.38-36.1,13.94c-1.74-12.44,30.58-8.09,36.1-13.94Z"/></g><path class="uuid-b6fb0a86-8694-46c6-8266-5666de2d6cc0" d="m888.52,606.86s-36.73,64.32-11.22,66.26c25.51,1.94-.21-36.74,11.22-66.26Z"/><path class="uuid-d5e0e839-1b29-4d39-a5ce-607e766c2357" d="m929.91,583.07s49.77,16.08,47.42-1.83c-2.35-17.91-25.37,5.46-47.42,1.83Z"/></g></g></svg>