<svg xmlns="http://www.w3.org/2000/svg" width="40" height="41" viewBox="0 0 40 41"><g transform="translate(-319 -4128)"><g transform="translate(319 4128)"><ellipse cx="20" cy="20.5" rx="20" ry="20.5" fill="#44b5a3"/><path d="M14.223,1.961a.613.613,0,0,1,.822-.339,4.711,4.711,0,0,1,3.7,3.358c.922,3.518.5,6.84-1.89,9.635-2.28,2.672-5.371,3.542-8.767,3.335a8.349,8.349,0,0,1-5.41-2.36A8.951,8.951,0,0,1,2.116,3.419,8.787,8.787,0,0,1,8.884.007a2.6,2.6,0,0,1,2.01.534,1.111,1.111,0,0,1,.358.856,1.02,1.02,0,0,1-.738.535A10.537,10.537,0,0,0,4.936,4.545a7.179,7.179,0,0,0-.829,10,7.266,7.266,0,0,0,8.476,1.585,8.7,8.7,0,0,0,5.19-7.308,9.5,9.5,0,0,0-.121-3.042,4.319,4.319,0,0,0-3.1-3.616,1.416,1.416,0,0,1-.327-.206m.2,9.41a11.482,11.482,0,0,0,.98-2.1.538.538,0,0,0-.117-.5.513.513,0,0,0-.5.054,5.144,5.144,0,0,0-.7.857,15.377,15.377,0,0,1-1.473,2.189,3.749,3.749,0,0,1-5.625-.213A16.609,16.609,0,0,1,5.949,9.8a3.465,3.465,0,0,0-.906-1c-.326-.225-.663-.025-.611.41a5.94,5.94,0,0,0,.39,1.866,5.15,5.15,0,0,0,4.666,2.892,5.6,5.6,0,0,0,4.933-2.592M7.768,4.6c-.544-.059-.765.285-.874.75a2.81,2.81,0,0,0-.077.5c-.022.471.092.9.6,1.011a.862.862,0,0,0,1-.623A3.332,3.332,0,0,0,8.57,5.7c0-.668-.3-1.048-.8-1.1m5.313.886c-.1-.641-.418-.784-.977-.445a1.433,1.433,0,0,0-.4,1.545c.106.406.322.7.77.681.416-.021.543-.35.6-.706.029-.167.035-.339.052-.507-.017-.191-.023-.381-.053-.567" transform="translate(9.477 13.538) rotate(-9)" fill="#fff"/></g></g></svg>