<svg xmlns="http://www.w3.org/2000/svg" xmlns:xlink="http://www.w3.org/1999/xlink" width="67.923" height="57.675" viewBox="0 0 67.923 57.675"><defs><clipPath id="a"><rect width="67.923" height="57.675" fill="#d02d5d"/></clipPath></defs><g clip-path="url(#a)"><path d="M67.923,19.307c-.221,1.032-.39,2.078-.673,3.093a17.649,17.649,0,0,1-4.756,7.9c-3.018,2.983-6.007,5.994-9,9a1.636,1.636,0,0,0-.392.6,4.452,4.452,0,0,1-4.313,3.295,2.06,2.06,0,0,0-.254.052,4.649,4.649,0,0,1-4.8,4.833c-.2,2.974-1.821,4.553-4.782,4.816a9.707,9.707,0,0,1-.149,1.237,4.344,4.344,0,0,1-3.156,3.344,4.421,4.421,0,0,1-4.564-1.221q-12.711-12.7-25.415-25.4A18.2,18.2,0,0,1,.374,21.5,17.477,17.477,0,0,1,13.847.753,17.12,17.12,0,0,1,29.73,5.272a1.781,1.781,0,0,1,.5.68,1.046,1.046,0,0,1-.423,1.283,1.126,1.126,0,0,1-1.456-.128,29.863,29.863,0,0,0-2.808-2.2A15.245,15.245,0,0,0,2.524,15.281c-.892,5.446.82,10.022,4.7,13.888Q19.8,41.679,32.314,54.245c.742.743,1.5,1.393,2.664,1.049a2.186,2.186,0,0,0,1.012-3.679q-7.842-7.908-15.719-15.782Q18.258,33.814,16.24,31.8a2.729,2.729,0,0,1-.4-.441,1.1,1.1,0,0,1,.084-1.4,1.079,1.079,0,0,1,1.436-.2,3.873,3.873,0,0,1,.59.529q9.566,9.561,19.125,19.129A2.692,2.692,0,0,0,39.49,50.5a2.146,2.146,0,0,0,1.738-1.363,2.05,2.05,0,0,0-.331-2.235c-.472-.554-1.006-1.055-1.521-1.571Q31.994,37.95,24.6,30.579a1.883,1.883,0,0,0-1.02-.478,4.412,4.412,0,0,1-3.859-3,4.329,4.329,0,0,1,1.129-4.8C26.389,16.744,31.965,11.225,37.48,5.645a18.366,18.366,0,0,1,9.048-5.2A17.556,17.556,0,0,1,67.667,14.511c.069.408.17.811.256,1.216Zm-15,17.209c2.732-2.7,5.594-5.436,8.343-8.279A14.767,14.767,0,0,0,65.27,14.215,15.266,15.266,0,0,0,47.96,2.486a16.075,16.075,0,0,0-8.918,4.832c-5.419,5.489-10.9,10.915-16.358,16.369a4.91,4.91,0,0,0-.493.535,2.152,2.152,0,0,0-.21,2.372,2.12,2.12,0,0,0,2.041,1.22,2.474,2.474,0,0,0,1.783-.881q5.76-5.773,11.531-11.534c.777-.776,1.307-.741,2.082.005a18.7,18.7,0,0,0,2.2,1.9,7.763,7.763,0,0,0,7.14,1.307,10.537,10.537,0,0,0,3.959-2.585,1.1,1.1,0,0,1,1.655-.067,1.127,1.127,0,0,1-.028,1.656c-4.165,4.173-9.231,4.94-14.163,1.475-.627-.44-1.214-.936-1.734-1.34l-2.115,2.1c4.253,4.255,8.553,8.55,12.845,12.853,1.259,1.262,2.5,2.545,3.743,3.812m-23.154-10.4-3.1,3.294c1.287,1.283,2.629,2.623,3.974,3.962q5.914,5.888,11.835,11.77a2.213,2.213,0,0,0,3.107-3.15c-1.4-1.441-2.818-2.864-4.237-4.286-3.821-3.829-7.646-7.652-11.581-11.589m1.7-1.531q3.662,3.658,7.287,7.278,4.222,4.214,8.45,8.422a2.047,2.047,0,0,0,2.439.432,2.152,2.152,0,0,0,1.33-2.1,2.654,2.654,0,0,0-1.028-1.922Q42.466,29.214,34.99,21.739c-.12-.12-.259-.221-.371-.317l-3.156,3.162" transform="translate(0 0)" fill="#d02d5d"/></g></svg>