<svg xmlns="http://www.w3.org/2000/svg" fill="none" viewBox="0 0 48 49"><path fill="#0E1856" fill-rule="evenodd" d="M12.842 14.264c-.92 0-1.67.746-1.67 1.675v17.6a1.67 1.67 0 0 0 1.67 1.675h22.572c.92 0 1.67-.746 1.67-1.675v-17.6c0-.929-.75-1.675-1.67-1.675H12.842ZM8.69 15.939a4.154 4.154 0 0 1 4.152-4.158h22.572a4.154 4.154 0 0 1 4.152 4.158v17.6a4.154 4.154 0 0 1-4.152 4.158H12.842a4.154 4.154 0 0 1-4.152-4.158v-17.6Z" clip-rule="evenodd"/><path fill="#0E1856" fill-rule="evenodd" d="M23.897 25.718a.377.377 0 0 0 .463 0l.002-.002 13.179-10.74 1.568 1.925-13.194 10.752a2.86 2.86 0 0 1-3.574 0l-.008-.006L9.147 16.902l1.568-1.925 13.182 10.74Z" clip-rule="evenodd"/></svg>