<svg xmlns="http://www.w3.org/2000/svg" viewBox="0 0 23.952 22.755">
  <path fill="#0e1c42" d="M21.557 4.79h-2.611a3.584 3.584 0 0 0-6.371-3.174l-.6.8-.6-.814A3.585 3.585 0 0 0 5.006 4.79H2.4a2.377 2.377 0 0 0-2.383 2.4L0 20.359a2.387 2.387 0 0 0 2.4 2.4h19.157a2.387 2.387 0 0 0 2.4-2.4V7.186a2.387 2.387 0 0 0-2.4-2.396ZM15.569 2.4a1.2 1.2 0 1 1-1.2 1.2 1.2 1.2 0 0 1 1.2-1.2Zm-7.186 0a1.2 1.2 0 1 1-1.2 1.2 1.2 1.2 0 0 1 1.2-1.2Zm13.174 17.959H2.4v-2.4h19.157Zm0-5.988H2.4V7.186h6.084l-2.496 3.389 1.94 1.4 2.85-3.88 1.2-1.629 1.2 1.629 2.85 3.88 1.94-1.4-2.491-3.389h6.084Z"/>
</svg>