<svg xmlns="http://www.w3.org/2000/svg" fill="none" viewBox="0 0 48 49"><path fill="#0E1856" fill-rule="evenodd" d="M12.21 17.249c-.962 0-1.727.771-1.727 1.71V36.77c0 .939.765 1.71 1.728 1.71h23.028c.963 0 1.728-.771 1.728-1.71V18.96c0-.939-.765-1.71-1.728-1.71H12.211ZM8 18.959c0-2.324 1.891-4.193 4.21-4.193h23.03c2.319 0 4.21 1.87 4.21 4.193V36.77c0 2.324-1.891 4.193-4.21 4.193H12.21c-2.319 0-4.21-1.87-4.21-4.193V18.96Z" clip-rule="evenodd"/><path fill="#0E1856" fill-rule="evenodd" d="M23.728 25.423c-1.443 0-2.6 1.16-2.6 2.576a2.588 2.588 0 0 0 2.6 2.577c1.443 0 2.6-1.161 2.6-2.577a2.588 2.588 0 0 0-2.6-2.576Zm-5.083 2.576c0-2.801 2.283-5.06 5.083-5.06 2.8 0 5.082 2.259 5.082 5.06 0 2.801-2.282 5.06-5.082 5.06s-5.083-2.259-5.083-5.06Z" clip-rule="evenodd"/><path fill="#0E1856" fill-rule="evenodd" d="M23.729 30.57c.686 0 1.24.556 1.24 1.242l-.003 3.42a1.241 1.241 0 0 1-2.483-.002l.003-3.42c.001-.686.557-1.241 1.243-1.24ZM23.728 10.091c-3.096 0-5.575 2.469-5.575 5.469v.342H15.67v-.342c0-4.409 3.628-7.951 8.058-7.951s8.058 3.542 8.058 7.95v.343h-2.483v-.342c0-3-2.479-5.469-5.575-5.469Z" clip-rule="evenodd"/></svg>