<svg xmlns="http://www.w3.org/2000/svg" fill="none" viewBox="0 0 48 49"><path fill="#0E1856" d="M31.125 40.902c-.5 0-1.1 0-1.6-.1-1.4-.2-2.9-.6-4.4-1.2-1.5-.6-3-1.4-4.4-2.4-1.5-1-2.9-2.1-4-3.2-1.4-1.3-2.5-2.6-3.6-3.9-1.1-1.3-2-2.8-2.8-4.3-.9-1.6-1.4-3-1.8-4.4-.4-1.5-.6-3-.5-4.4.1-1.5.5-2.9 1.2-4.1 1-1.5 2.3-2.5 3.3-3.3 1.3-1 3-1.2 4.5-.8 1.3.4 2.1 1.4 2.8 2.2.2.3.5.6.7.9.1.2.3.5.5.7l.3.4c.6.8 1.4 1.8 1.5 3.2.1 1.4-.3 2.8-1.3 3.8l-.8.8c-.3.3-.6.5-.7.6l-.5.6c-.3.3-.3.8-.1 1.2 1.4 2.7 3.6 4.8 6.2 6.2.4.2.8.2 1.2-.1l.7-.5c.1 0 .1-.1.2-.2.3-.3.9-.8 1.1-1l.2-.1c1.1-1.1 2.8-1.5 4.3-1.2 1.4.3 2.5 1.2 3.5 2 .2.2.4.3.6.5.3.2.5.4.7.6.3.2.6.5.9.8.3.3.6.6.8.9.6 1 .8 2.2.6 3.3-.3 1.7-1.4 2.9-2.4 4-1.1 1.1-2.5 2-4.1 2.4-.9 0-1.8.1-2.8.1Zm-15.6-30c-.6 0-1.1.2-1.5.5-.9.6-2 1.5-2.8 2.7-.5.8-.8 1.8-.9 3-.1 1.1 0 2.3.4 3.6.3 1.3.8 2.5 1.6 4 .7 1.3 1.6 2.7 2.6 3.9 1 1.2 2.1 2.4 3.3 3.6 1.1 1 2.4 2.1 3.8 3 1.2.9 2.6 1.6 3.9 2.2 1.3.6 2.6.9 3.8 1.1 1.2.2 2.4.1 3.4-.2 1.1-.3 2.2-.9 3-1.8.8-.8 1.6-1.7 1.7-2.7.1-.6 0-1.3-.3-1.8-.1-.2-.2-.3-.4-.5s-.5-.4-.7-.6c-.3-.2-.5-.4-.8-.7-.1-.1-.3-.3-.5-.4-.8-.7-1.6-1.3-2.4-1.5-.8-.1-1.7.1-2.3.6-.2.2-.5.5-1.4 1.2l-.2.2-.7.6c-1.1.9-2.5 1-3.7.4-3-1.6-5.5-4-7.2-7.2-.5-1.1-.4-2.5.5-3.5l.6-.8s.4-.4.8-.7c.3-.3.7-.6.7-.7.5-.5.7-1.3.7-2-.1-.7-.5-1.3-1-2l-.3-.4c-.2-.2-.3-.4-.5-.6-.2-.3-.4-.6-.7-.9-.5-.7-1-1.3-1.7-1.5-.3-.1-.5-.1-.8-.1Z"/></svg>