<svg width="81" height="81" viewBox="0 0 81 81" fill="none" xmlns="http://www.w3.org/2000/svg">
<path d="M56.0464 39.6019C57.2826 40.3216 57.278 42.109 56.0381 42.8224L45.243 49.0332L34.4582 55.3121C33.2179 56.0342 31.6616 55.1394 31.6616 53.7043V41.2193V28.7152C31.6616 27.2842 33.2096 26.3889 34.4499 27.1026L45.243 33.3123L56.0464 39.6019Z" fill="#0E1856"/>
<path fill-rule="evenodd" clip-rule="evenodd" d="M34.0804 29.6802V52.7334L44.037 46.9368L53.9962 41.2068L44.0317 35.4056L34.0804 29.6802ZM29.2432 28.7151C29.2432 25.424 32.8035 23.3648 35.6562 25.0061L46.4601 31.222L57.2634 37.5117C60.1066 39.167 60.0961 43.278 57.2444 44.9187L46.4493 51.1296L35.6752 57.4022C32.8225 59.063 29.2432 57.0051 29.2432 53.7042V28.7151Z" fill="#0E1856"/>
<path d="M40.4932 77.6797C20.0586 77.6797 3.49316 61.1142 3.49316 40.6797H-2.50684C-2.50684 64.4279 16.7449 83.6797 40.4932 83.6797V77.6797ZM77.4932 40.6797C77.4932 61.1142 60.9277 77.6797 40.4932 77.6797V83.6797C64.2414 83.6797 83.4932 64.4279 83.4932 40.6797H77.4932ZM40.4932 3.67969C60.9277 3.67969 77.4932 20.2452 77.4932 40.6797H83.4932C83.4932 16.9314 64.2414 -2.32031 40.4932 -2.32031V3.67969ZM40.4932 -2.32031C16.7449 -2.32031 -2.50684 16.9314 -2.50684 40.6797H3.49316C3.49316 20.2452 20.0586 3.67969 40.4932 3.67969V-2.32031Z" fill="#0E1856"/>
</svg>
