<svg width="106" height="80" viewBox="0 0 106 80" fill="none" xmlns="http://www.w3.org/2000/svg">
<g clip-path="url(#clip0_1611_27123)">
<path d="M80.97 19.54C80.92 18.47 80.88 17.46 80.88 16.54C80.88 10.21 79.72 7.20001 73.14 7.20001C69.75 7.20001 65.42 8.80001 61.46 11.01C62.2903 11.91 62.9342 12.9655 63.3547 14.1155C63.7751 15.2656 63.9639 16.4875 63.9099 17.7108C63.856 18.9341 63.5605 20.1346 63.0405 21.2432C62.5205 22.3518 61.7862 23.3465 60.88 24.17C60.78 24.37 60.66 24.56 60.54 24.75L61.84 25.25C67.0455 27.1736 72.5164 28.2833 78.06 28.54C78.8731 28.5632 79.6806 28.399 80.42 28.06C81.23 25.74 81.09 22.38 80.97 19.54Z" fill="#F5F5F5"/>
<path d="M50.78 13.38C49.153 13.3721 47.5622 13.8605 46.22 14.78C45.8127 15.5575 45.5999 16.4222 45.6 17.3C45.6 20.76 48.86 23.58 52.88 23.58C54.5104 23.5899 56.1049 23.1014 57.45 22.18C57.8515 21.4002 58.0639 20.537 58.07 19.66C58.08 16.17 54.78 13.38 50.78 13.38Z" fill="#F5F5F5"/>
<path d="M23.4 8.38001C23.0431 10.069 22.8887 11.7945 22.94 13.52C22.94 14.52 22.94 15.52 22.85 16.68C22.7 20.56 22.5 25.38 24.44 27.4C24.8771 27.8045 25.3934 28.1139 25.9563 28.3084C26.5192 28.5029 27.1164 28.5784 27.71 28.53C32.5865 28.3235 37.41 27.4349 42.04 25.89C40.5231 24.2168 39.7253 22.0141 39.8188 19.7576C39.9124 17.5011 40.8898 15.3719 42.54 13.83C42.699 13.4452 42.8827 13.0711 43.09 12.71C38.48 9.71001 32.81 7.19001 28.59 7.19001C26.7801 7.06096 24.9729 7.47533 23.4 8.38001Z" fill="#F5F5F5"/>
<path d="M7.24002 77.97V80.23H8.24002C7.92727 79.942 7.6771 79.5927 7.50507 79.2039C7.33303 78.8151 7.24282 78.3951 7.24002 77.97Z" fill="#F5F5F5"/>
<path d="M41.34 47.58H10.98V77.35H41.34V47.58Z" fill="#F5F5F5"/>
<path d="M24.7 35.16C23.6366 35.2111 22.5746 35.0331 21.586 34.638C20.5974 34.2429 19.7053 33.6399 18.97 32.87C17.8299 31.537 17.073 29.9195 16.78 28.19H3.78V40.38C3.78512 40.5445 3.85345 40.7008 3.97078 40.8162C4.08811 40.9317 4.24541 40.9975 4.41 41H41.41V31.68C36.065 33.7365 30.4216 34.9118 24.7 35.16Z" fill="#F5F5F5"/>
<path d="M54.83 47.06H48.84V77.35H54.83V47.06Z" fill="#F5F5F5"/>
<path d="M54.03 29.21C52.9754 29.5051 51.8851 29.6531 50.79 29.65C50.1401 29.6476 49.4914 29.5941 48.85 29.49V40.95H54.85V29.6C54.56 29.48 54.29 29.38 54.03 29.21Z" fill="#F5F5F5"/>
<path d="M91.03 47.58H60.67V77.35H91.03V47.58Z" fill="#F5F5F5"/>
<path d="M97.65 28.19H85.3C84.9648 28.8451 84.5408 29.4508 84.04 29.99C83.2352 30.8205 82.2397 31.4419 81.14 31.8C80.891 32.1826 80.6064 32.5409 80.29 32.87C79.5049 33.649 78.5655 34.2552 77.5322 34.6496C76.4989 35.044 75.3945 35.2178 74.29 35.16C69.6678 34.9942 65.0865 34.2313 60.66 32.89V40.95H98.25V28.81C98.2453 28.6505 98.1812 28.4984 98.0702 28.3837C97.9592 28.269 97.8093 28.1999 97.65 28.19Z" fill="#F5F5F5"/>
<path d="M4.38 44.7H7.24001V77.97C7.24262 78.7976 7.57185 79.5907 8.15611 80.1768C8.74037 80.763 9.53242 81.0947 10.36 81.1H95.36C96.1901 81.1 96.9863 80.7702 97.5732 80.1832C98.1602 79.5962 98.49 78.8001 98.49 77.97V44.7H101.35C101.925 44.7079 102.495 44.6024 103.029 44.3895C103.563 44.1765 104.05 43.8603 104.461 43.4591C104.873 43.0578 105.201 42.5793 105.427 42.0509C105.654 41.5225 105.773 40.9547 105.78 40.38V25.98C105.78 24.821 105.32 23.7095 104.5 22.8899C103.681 22.0704 102.569 21.61 101.41 21.61H86.78C86.78 19.93 86.78 18.21 86.7 16.56C86.65 15.49 86.61 14.47 86.61 13.56C86.61 10.31 86.39 6.93999 84.74 4.32999C82.92 1.44999 79.74 0.0499878 75.14 0.0499878C69.9 0.0499878 63.21 3.32999 58.69 6.40999C58.13 6.78999 57.43 7.28999 56.69 7.88999C54.2603 7.09306 51.6396 7.09306 49.21 7.88999C48.44 7.28999 47.74 6.78999 47.21 6.40999C42.69 3.32999 36 0.0499878 30.76 0.0499878C26.12 0.0499878 22.98 1.44999 21.16 4.32999C19.51 6.93999 19.28 10.33 19.28 13.56C19.28 14.47 19.28 15.49 19.2 16.56C19.13 18.21 19.06 19.93 19.12 21.61H4.38C3.22009 21.61 2.10753 22.0701 1.28641 22.8893C0.465285 23.7086 0.00264821 24.8201 0 25.98V40.38C0.0157716 41.5312 0.484188 42.6299 1.30389 43.4384C2.1236 44.2469 3.22868 44.7001 4.38 44.7ZM45.1 77.38H10.99V44.7H45.1V77.38ZM56.93 31.71V40.98H48.85V27.28L49.66 26.89C51.7734 27.4764 54.0066 27.4764 56.12 26.89L56.93 27.28V31.71ZM56.93 77.38H48.85V44.7H56.93V77.38ZM94.78 77.38H60.68V44.7H94.78V77.38ZM101.39 25.38C101.554 25.3826 101.71 25.4487 101.826 25.5644C101.941 25.6802 102.007 25.8364 102.01 26V40.38C102.005 40.5428 101.938 40.6976 101.823 40.8128C101.708 40.928 101.553 40.995 101.39 41H60.68V28.8C66.2582 30.8513 72.1217 32.022 78.06 32.27C79.1054 32.2817 80.1457 32.123 81.14 31.8C82.2396 31.4418 83.2352 30.8205 84.04 29.99C84.5408 29.4508 84.9648 28.8451 85.3 28.19C85.7654 27.2811 86.102 26.3118 86.3 25.31L101.39 25.38ZM75.11 3.74999C81.68 3.74999 82.83 6.88999 82.83 13.51C82.83 14.51 82.88 15.51 82.92 16.67C83.08 20.55 83.27 25.37 81.34 27.39C81.0698 27.6541 80.7592 27.8735 80.42 28.04C79.6806 28.379 78.8731 28.5432 78.06 28.52C72.5164 28.2633 67.0455 27.1536 61.84 25.23L60.54 24.73L60.34 24.65C60.53 24.49 60.71 24.32 60.88 24.15C61.7862 23.3265 62.5205 22.3318 63.0405 21.2232C63.5605 20.1146 63.856 18.914 63.9099 17.6907C63.9638 16.4674 63.7751 15.2456 63.3546 14.0955C62.9342 12.9455 62.2902 11.89 61.46 10.99C61.086 10.5612 60.678 10.1632 60.24 9.79999C64.9 6.48999 70.78 3.74999 75.11 3.74999ZM52.89 10.99C56.89 10.99 60.17 13.81 60.17 17.27C60.1475 18.2421 59.8891 19.1942 59.4171 20.0443C58.945 20.8944 58.2733 21.6171 57.46 22.15C56.1149 23.0714 54.5204 23.5599 52.89 23.55C48.89 23.55 45.61 20.73 45.61 17.27C45.6099 16.3922 45.8227 15.5275 46.23 14.75C46.8907 13.5747 47.8608 12.6028 49.0349 11.9399C50.2091 11.2771 51.5423 10.9485 52.89 10.99ZM30.67 3.74999C35 3.74999 40.87 6.48999 45.53 9.74999C44.5457 10.5589 43.7187 11.5419 43.09 12.65C42.8827 13.0111 42.699 13.3852 42.54 13.77C42.096 14.8663 41.8652 16.0372 41.86 17.22C41.8745 18.6382 42.2031 20.0355 42.8221 21.3116C43.4411 22.5876 44.3352 23.7107 45.44 24.6C44.96 24.8 44.44 24.99 43.94 25.18C43.44 25.37 42.69 25.62 42.04 25.83C37.41 27.3749 32.5865 28.2635 27.71 28.47C27.1164 28.5184 26.5192 28.4429 25.9563 28.2484C25.3934 28.0539 24.8771 27.7445 24.44 27.34C22.5 25.34 22.7 20.5 22.85 16.62C22.9 15.5 22.94 14.45 22.94 13.46C22.8887 11.7345 23.0431 10.009 23.4 8.31999C24.17 5.24999 26.12 3.74999 30.67 3.74999ZM4.38 25.31H19.45C19.7574 27.0525 20.5473 28.6739 21.73 29.99C22.516 30.7672 23.4557 31.3715 24.489 31.7642C25.5223 32.1568 26.6262 32.3291 27.73 32.27C33.6715 32.0221 39.5383 30.8514 45.12 28.8V40.95H4.38C4.2287 40.9414 4.08535 40.8794 3.97548 40.775C3.86561 40.6706 3.79633 40.5307 3.78 40.38V25.98C3.7746 25.8964 3.7859 25.8126 3.81326 25.7335C3.84063 25.6543 3.8835 25.5814 3.93936 25.5191C3.99523 25.4567 4.06297 25.4061 4.13863 25.3702C4.21428 25.3343 4.29635 25.3138 4.38 25.31Z" fill="#28D6BF"/>
</g>
<defs>
<clipPath id="clip0_1611_27123">
<rect width="105.77" height="81.1" fill="white"/>
</clipPath>
</defs>
</svg>
