<svg width="20" height="21" viewBox="0 0 20 21" fill="none" xmlns="http://www.w3.org/2000/svg">
<path fill-rule="evenodd" clip-rule="evenodd" d="M8.11239 14.2248C11.5572 14.2248 14.3498 11.4322 14.3498 7.98739C14.3498 4.54257 11.5572 1.75 8.11239 1.75C4.66757 1.75 1.875 4.54257 1.875 7.98739C1.875 11.4322 4.66757 14.2248 8.11239 14.2248ZM8.11239 15.9748C12.5237 15.9748 16.0998 12.3987 16.0998 7.98739C16.0998 3.57608 12.5237 0 8.11239 0C3.70108 0 0.125 3.57608 0.125 7.98739C0.125 12.3987 3.70108 15.9748 8.11239 15.9748Z" fill="white"/>
<path fill-rule="evenodd" clip-rule="evenodd" d="M12.2167 13.0718C12.5584 12.7301 13.1125 12.7301 13.4542 13.0718L18.8685 18.4862C19.2102 18.8279 19.2102 19.3819 18.8685 19.7236C18.5268 20.0653 17.9728 20.0653 17.6311 19.7236L12.2167 14.3093C11.875 13.9676 11.875 13.4136 12.2167 13.0718Z" fill="white"/>
</svg>
