<svg width="198" height="193" viewBox="0 0 198 193" fill="none" xmlns="http://www.w3.org/2000/svg">
<g clip-path="url(#clip0_1584_17990)">
<path d="M122.423 26.4996C123.165 22.608 125.826 21.9585 128.618 21.8477C144.572 22.52 158.187 27.4736 166.39 42.5964C181.34 70.3432 184.453 99.2669 170.482 127.509C157.113 154.748 133.077 168.321 104.411 173.321C86.8518 176.466 70.1063 173.703 54.5751 164.365C20.0596 144.249 7.41306 100.527 24.9987 62.8403C34.7619 41.6193 51.3532 27.5795 73.9743 20.9158C79.7626 19.2174 86.2147 17.9278 91.8561 21.4028C94.1133 22.5643 96.5647 25.6764 96.5585 27.9612C96.4866 29.9767 93.8196 32.9111 91.4905 33.7651C74.3197 40.8109 60.9934 52.0557 50.3158 67.2207C31.1613 95.0155 37.3711 134.315 63.9787 153.222C85.4771 168.524 115.862 167.101 137.782 149.477C160.634 131.055 169.608 106.601 165.831 77.2686C164.857 68.6583 162.421 59.8341 158.52 51.9384C152.042 38.107 141.498 28.4079 125.278 27.8005C124.68 27.6611 123.685 27.0478 122.423 26.4996ZM110.866 117.044C105.613 114.171 100.179 112.111 94.3565 110.532C89.8713 109.25 85.3862 107.968 80.6 108.04C79.2029 108.013 77.7456 108.257 76.3486 108.23C75.4862 108.323 73.0463 109.2 72.3043 108.751C71.3552 107.972 74.0361 106.012 74.6912 105.589C76.3291 104.533 78.5017 103.596 80.2866 103.141C83.5287 102.442 87.1852 102.403 90.4539 102.846C98.3281 104.03 105.427 106.177 112.726 111.209C125.158 119.655 128.646 126.68 110.866 117.044ZM124.29 68.0482C128.956 68.5178 130.285 71.3701 130.365 74.7965C130.392 75.9386 130.358 77.3514 130.117 78.4341C129.662 81.7415 127.93 84.4809 123.472 84.3413C119.281 84.2613 117.089 81.5013 116.146 78.1671C115.645 76.6354 115.739 74.9519 115.652 74.0805C116.943 69.5387 120.219 67.4268 124.29 68.0482ZM79.9713 66.7122C81.7366 62.56 84.591 62.3427 88.9221 65.5785C91.7694 67.9161 92.4104 72.6036 89.8429 76.5773C88.4388 79.1056 86.1457 80.5839 82.4025 79.7513C78.9868 78.7075 78.3989 76.3043 78.3458 74.0201C78.3192 72.878 78.5601 71.7953 78.5335 70.6532C79.1621 69.0887 79.4029 68.006 79.9713 66.7122Z" fill="#28D6BF"/>
<path d="M111.957 136.087C111.093 136.012 110.893 136.347 110.361 136.477C97.1217 139.994 84.3553 140.827 70.8533 143.267C69.2567 143.656 65.9948 145.309 64.3355 144.287C60.153 142.168 59.4954 139.474 59.7081 134.57C59.9207 129.666 60.0707 123.351 58.5552 118.298C58.0949 116.412 57.1651 116.068 55.5028 116.188C53.8405 116.309 53.1049 117.915 53.2333 119.597C53.2991 119.866 53.4306 120.405 53.5621 120.943C54.0193 123.971 54.2762 127.334 54.4673 130.427C54.6492 136.947 53.366 144.396 49.4969 149.336C47.5623 151.806 46.6952 152.874 46.4887 155.493C46.0758 160.732 47.1936 165.311 48.709 170.364C50.2245 175.417 55.2022 178.483 60.3238 177.519C69.2364 175.914 77.9457 175.786 86.8552 175.323C87.6535 175.128 88.4518 174.934 88.7867 173.996C89.9888 171.99 88.5298 170.633 86.4699 170.28C85.274 170.001 84.0124 169.453 83.9497 168.041C83.887 166.629 85.086 165.765 86.1504 165.506C87.2147 165.246 88.3449 165.255 89.0774 164.791C89.8099 164.327 90.1449 163.389 90.2137 162.516C90.2825 161.643 88.9551 160.825 88.5575 160.351C88.1599 159.878 87.6935 160.277 87.0955 160.137C85.6335 159.923 84.9698 159.515 84.6411 158.168C84.3123 156.821 85.5113 155.957 86.5756 155.698C87.64 155.438 87.9719 155.642 89.0362 155.382C90.1006 155.122 90.9677 154.055 90.639 152.708C90.3102 151.361 89.3146 150.748 87.8526 150.534C86.3907 150.32 85.129 149.771 85.0663 148.36C85.0037 146.948 85.6704 146.214 87.5988 146.029C91.3899 145.389 95.5129 144.953 99.57 144.248C103.627 143.543 107.619 142.569 111.61 141.595C112.142 141.465 112.408 141.4 113.407 140.871C114.406 140.341 114.941 139.069 114.346 137.787C114.149 136.979 112.821 136.161 111.957 136.087Z" fill="#28D6BF"/>
<path d="M114.627 132.01C112.702 131.053 111.04 131.173 109.177 131.628C95.9381 135.145 84.3018 135.988 70.2018 138.288C65.6125 139.123 63.158 137.153 63.7713 131.581C64.3846 126.008 64.0651 121.234 62.3493 116.515C60.8339 111.462 56.3164 110.281 52.0558 112.463C49.0599 114.051 47.7891 116.93 48.3778 120.497C48.7004 124.128 49.3518 129.107 49.4741 133.073C49.6622 137.308 48.8485 143.215 46.1814 146.15C41.9804 150.886 40.9068 154.573 41.8213 160.629C42.2127 163.387 42.6699 166.415 43.459 169.648C45.9608 178.741 53.2615 183.238 62.4402 181.569C67.5618 180.604 72.2826 180.308 77.6015 180.151C81.5241 180.05 85.4467 179.948 89.3723 178.705C90.9689 178.315 92.1679 177.451 93.2353 176.049C93.4356 175.715 93.636 175.381 93.7706 174.777C93.9052 174.173 94.0428 172.427 93.8455 171.619C93.6483 170.811 92.3928 167.978 92.5931 167.643C95.063 163.901 95.3352 161.551 92.9526 157.566C95.3536 154.696 95.5601 152.077 93.907 148.77C94.4392 148.64 94.9714 148.511 95.5693 148.65C101.489 147.49 107.475 146.6 113.329 145.171C116.522 144.391 118.723 141.856 118.732 138.429C119.336 136.284 117.483 133.311 114.627 132.01ZM113.473 141.14C112.74 141.604 112.208 141.734 111.676 141.864C107.684 142.838 103.693 143.813 99.6357 144.518C95.5786 145.223 91.5214 145.928 87.6645 146.298C86.0022 146.419 85.3355 147.152 85.132 148.629C85.1947 150.041 86.7225 150.524 87.9183 150.803C89.3803 151.017 90.3759 151.63 90.7047 152.977C91.0334 154.324 90.1663 155.392 89.1019 155.652C88.0376 155.912 87.7057 155.707 86.6413 155.967C85.577 156.227 84.378 157.09 84.7068 158.437C85.0355 159.784 86.0311 160.397 87.1612 160.407C87.7592 160.546 87.9595 160.212 88.6232 160.621C89.0208 161.094 90.3482 161.912 90.2794 162.785C90.2106 163.658 89.8756 164.596 89.1431 165.061C88.4106 165.525 87.2804 165.515 86.2161 165.775C85.1517 166.035 83.887 166.629 84.0154 168.31C84.0781 169.722 85.3397 170.27 86.5356 170.549C88.5956 170.903 90.0545 172.259 88.8524 174.265C88.4517 174.934 87.7192 175.398 86.9209 175.593C78.0771 176.324 69.3679 176.452 60.3895 177.788C55.2679 178.753 50.2244 175.417 48.7747 170.634C47.325 165.85 46.0757 160.732 46.5544 155.763C46.6952 152.874 47.8941 152.011 49.5626 149.606C53.4317 144.665 54.7149 137.216 54.2669 130.761C54.0758 127.668 53.8189 124.306 53.3617 121.278C53.2302 120.739 53.1644 120.47 53.0329 119.931C52.9045 118.25 53.6401 116.643 55.3024 116.523C56.9647 116.402 57.8945 116.746 58.3548 118.632C59.8703 123.685 59.4542 130.066 59.5077 134.905C59.295 139.809 59.9526 142.503 64.1351 144.621C65.7944 145.643 69.0563 143.991 70.6529 143.601C84.1549 141.161 96.9213 140.328 110.16 136.811C110.693 136.681 110.959 136.616 111.757 136.421C112.555 136.226 113.883 137.044 114.211 138.391C114.74 139.403 114.205 140.676 113.473 141.14Z" fill="#F5F5F5"/>
</g>
<defs>
<clipPath id="clip0_1584_17990">
<rect width="164.345" height="157.771" fill="white" transform="translate(0 38.9736) rotate(-13.7181)"/>
</clipPath>
</defs>
</svg>
