<svg width="229" height="224" viewBox="0 0 229 224" fill="none" xmlns="http://www.w3.org/2000/svg">
<g clip-path="url(#clip0_1584_17995)">
<path d="M143.116 30.4995C144.029 25.9639 147.144 25.2373 150.406 25.1414C169.029 26.1181 184.869 32.0664 194.267 49.8254C211.392 82.4076 214.68 116.222 198.026 149.035C182.087 180.684 153.855 196.247 120.318 201.742C99.7747 205.203 80.2524 201.776 62.2272 190.685C22.1615 166.778 7.91781 115.568 28.9069 71.7684C40.5631 47.1037 60.107 30.9073 86.6041 23.397C93.3841 21.4831 100.934 20.0546 107.481 24.1805C110.103 25.564 112.928 29.2277 112.893 31.8959C112.785 34.2487 109.635 37.6435 106.905 38.6128C86.7685 46.6347 71.071 59.6064 58.4196 77.1878C35.7172 109.417 42.4972 155.385 73.3426 177.784C98.2646 195.912 133.766 194.615 159.575 174.297C186.483 153.058 197.256 124.609 193.198 90.3089C192.164 80.2421 189.425 69.908 184.964 60.6405C177.565 44.4104 165.368 32.9571 146.434 32.0531C145.738 31.883 144.582 31.1549 143.116 30.4995ZM106.65 136.099C112.751 132.681 119.072 130.209 125.852 128.295C131.074 126.745 136.297 125.194 141.887 125.22C143.518 125.172 145.223 125.44 146.854 125.392C147.862 125.489 150.722 126.485 151.583 125.951C152.682 125.03 149.528 122.773 148.758 122.288C146.832 121.074 144.284 120.006 142.194 119.496C138.4 118.718 134.129 118.717 130.317 119.273C121.136 120.75 112.872 123.342 104.409 129.306C89.9919 139.319 86.0026 147.565 106.65 136.099ZM90.3856 79.0424C84.9426 79.6469 83.4239 82.9938 83.372 86.9961C83.3547 88.3302 83.4109 89.9796 83.7051 91.2411C84.2763 95.098 86.3315 98.2763 91.5366 98.0598C96.4301 97.916 98.9569 94.6665 100.017 90.7616C100.584 88.9668 100.454 87.002 100.545 85.9833C98.9829 80.6948 95.1321 78.2679 90.3856 79.0424ZM142.125 76.9501C140.013 72.1224 136.678 71.9029 131.658 75.7337C128.362 78.4977 127.669 83.9794 130.715 88.5892C132.385 91.5248 135.081 93.2237 139.442 92.2064C143.419 90.9465 144.076 88.133 144.111 85.4648C144.128 84.1307 143.834 82.8693 143.851 81.5352C143.098 79.7157 142.804 78.4542 142.125 76.9501Z" fill="#FF9E1C"/>
<path d="M129.577 158.35C128.569 158.253 128.331 158.641 127.708 158.786C112.205 162.734 97.2868 163.554 81.4899 166.241C79.6207 166.677 75.7915 168.568 73.8661 167.354C69.0072 164.83 68.2716 161.676 68.5788 155.952C68.886 150.227 69.137 142.853 67.4279 136.934C66.913 134.727 65.8314 134.314 63.8886 134.435C61.9459 134.555 61.0676 136.423 61.1974 138.388C61.271 138.703 61.4181 139.334 61.5652 139.964C62.0628 143.506 62.3224 147.436 62.5084 151.05C62.6425 158.666 61.0546 167.35 56.4769 173.072C54.1881 175.934 53.1626 177.171 52.89 180.227C52.3449 186.339 53.5953 191.7 55.3044 197.62C57.0134 203.539 62.7896 207.179 68.7822 206.114C79.2097 204.347 89.3818 204.302 99.792 203.869C100.727 203.651 101.661 203.433 102.064 202.342C103.491 200.013 101.804 198.412 99.4026 197.974C98.0094 197.634 96.5426 196.979 96.4864 195.329C96.4301 193.68 97.8406 192.686 99.0867 192.395C100.333 192.105 101.653 192.129 102.514 191.596C103.375 191.063 103.777 189.971 103.868 188.953C103.959 187.934 102.418 186.963 101.96 186.405C101.501 185.847 100.952 186.308 100.255 186.138C98.5502 185.87 97.7801 185.385 97.4123 183.808C97.0445 182.231 98.455 181.237 99.7011 180.947C100.947 180.656 101.332 180.899 102.578 180.608C103.825 180.317 104.85 179.081 104.482 177.504C104.114 175.927 102.959 175.199 101.254 174.932C99.5497 174.664 98.0829 174.009 98.0267 172.359C97.9704 170.71 98.7579 169.861 101.012 169.668C105.447 168.966 110.267 168.507 115.014 167.732C119.76 166.958 124.433 165.868 129.106 164.778C129.729 164.632 130.04 164.56 131.213 163.954C132.385 163.348 133.026 161.868 132.346 160.364C132.126 159.418 130.585 158.447 129.577 158.35Z" fill="#FF9E1C"/>
<path d="M132.745 153.621C130.508 152.48 128.565 152.601 126.384 153.11C110.882 157.058 97.2825 157.902 80.789 160.419C75.4195 161.339 72.5768 159.009 73.3599 152.509C74.1431 146.009 73.8272 140.429 71.8802 134.898C70.1711 128.979 64.9098 127.546 59.9081 130.043C56.3904 131.861 54.8717 135.208 55.5164 139.38C55.8496 143.625 56.5505 149.447 56.6457 154.08C56.8145 159.028 55.7933 165.917 52.6435 169.311C47.6807 174.792 46.3827 179.085 47.3778 186.168C47.8018 189.394 48.2994 192.936 49.1821 196.72C51.9945 207.369 60.4662 212.709 71.2052 210.869C77.1978 209.804 82.7144 209.515 88.9276 209.396C93.5096 209.324 98.0916 209.253 102.691 207.848C104.56 207.412 105.971 206.418 107.234 204.793C107.472 204.405 107.71 204.017 107.874 203.314C108.039 202.61 108.221 200.573 108 199.627C107.779 198.681 106.347 195.357 106.585 194.969C109.514 190.628 109.86 187.887 107.126 183.205C109.964 179.883 110.237 176.827 108.346 172.945C108.969 172.8 109.592 172.654 110.289 172.824C117.216 171.541 124.217 170.573 131.07 168.975C134.808 168.103 137.409 165.169 137.461 161.167C138.192 158.668 136.063 155.175 132.745 153.621ZM131.286 164.269C130.425 164.803 129.802 164.948 129.179 165.093C124.506 166.183 119.834 167.273 115.087 168.048C110.341 168.822 105.594 169.597 101.086 169.983C99.143 170.104 98.3556 170.953 98.1003 172.675C98.1565 174.324 99.9348 174.907 101.328 175.247C103.033 175.514 104.188 176.242 104.556 177.819C104.924 179.396 103.898 180.633 102.652 180.923C101.406 181.214 101.021 180.971 99.7747 181.262C98.5286 181.553 97.1181 182.547 97.4859 184.123C97.8537 185.7 99.0089 186.428 100.329 186.453C101.025 186.623 101.263 186.235 102.033 186.72C102.492 187.278 104.032 188.249 103.941 189.268C103.851 190.287 103.448 191.378 102.587 191.911C101.726 192.445 100.406 192.42 99.1603 192.711C97.9142 193.001 96.4302 193.68 96.56 195.645C96.6162 197.294 98.083 197.95 99.4762 198.29C101.878 198.727 103.565 200.329 102.137 202.657C101.661 203.433 100.8 203.966 99.8656 204.184C89.529 204.933 79.3568 204.978 68.8558 206.429C62.8632 207.495 57.0135 203.539 55.378 197.935C53.7425 192.331 52.3449 186.339 52.9636 180.542C53.1627 177.171 54.5732 176.177 56.5505 173.388C61.1282 167.665 62.7161 158.982 62.2705 151.438C62.0844 147.824 61.8248 143.894 61.3273 140.352C61.1801 139.722 61.1066 139.406 60.9595 138.776C60.8297 136.811 61.708 134.943 63.6507 134.823C65.5934 134.702 66.6751 135.115 67.19 137.322C68.8991 143.242 68.3366 150.688 68.3409 156.34C68.0337 162.064 68.7693 165.218 73.6282 167.742C75.5536 168.956 79.3828 167.065 81.2519 166.629C97.0489 163.942 111.968 163.122 127.47 159.174C128.093 159.029 128.405 158.956 129.339 158.738C130.274 158.52 131.814 159.491 132.182 161.068C132.788 162.256 132.147 163.736 131.286 164.269Z" fill="#F5F5F5"/>
</g>
<defs>
<clipPath id="clip0_1584_17995">
<rect width="191.932" height="184.255" fill="white" transform="translate(0 43.5967) rotate(-13.129)"/>
</clipPath>
</defs>
</svg>
