<svg width="64" height="31" viewBox="0 0 64 31" fill="none" xmlns="http://www.w3.org/2000/svg">
<g clip-path="url(#clip0_2411_15326)">
<path d="M21.7802 19.1634H21.7225C21.5318 19.1634 21.3473 19.0957 21.2018 18.9742L0.29543 1.42661C0.0357159 1.20867 -0.0608927 0.850453 0.0557904 0.531063C0.172474 0.211674 0.476101 0 0.816113 0H42.6313C42.9714 0 43.275 0.211674 43.3917 0.531063C43.5083 0.8492 43.413 1.20742 43.1533 1.42535L22.3021 18.973C22.1553 19.097 21.9709 19.1634 21.7802 19.1634ZM3.0356 1.61574L21.7501 17.3247L40.4156 1.61574H3.0356Z" fill="white"/>
<path d="M42.6207 30.7929H0.809254C0.362596 30.7929 0 30.4309 0 29.9851V0.80788C0 0.4935 0.181925 0.207928 0.467987 0.0751623C0.752794 -0.056351 1.08904 -0.0125132 1.32994 0.189141L21.7432 17.3235L42.1088 0.190393C42.3497 -0.0125132 42.6859 -0.0576035 42.972 0.0751623C43.2581 0.207928 43.44 0.4935 43.44 0.80788L43.43 29.9851C43.43 30.4309 43.0674 30.7929 42.6207 30.7929ZM1.61851 29.1772H41.8115L41.8202 2.54636L22.2953 18.9743C22.1497 19.097 21.964 19.1646 21.7733 19.1646H21.7156C21.5249 19.1646 21.3405 19.097 21.1949 18.9755L1.61851 2.5426V29.1772Z" fill="white"/>
<path d="M0.809144 30.7929C0.615926 30.7929 0.421455 30.724 0.265877 30.5838C-0.0653527 30.2844 -0.0904458 29.7734 0.209417 29.4427L15.2314 12.8746C15.5313 12.5439 16.0432 12.5188 16.3744 12.8182C16.7057 13.1175 16.7307 13.6286 16.4309 13.9592L1.40887 30.5274C1.24953 30.7027 1.02996 30.7929 0.809144 30.7929Z" fill="white"/>
<path d="M42.621 30.7926C42.4002 30.7926 42.1806 30.7037 42.0213 30.5271L27.0795 14.0478C26.7797 13.7172 26.8048 13.2062 27.136 12.9068C27.4672 12.6075 27.9791 12.6325 28.279 12.9632L43.2207 29.4424C43.5206 29.7731 43.4955 30.2841 43.1642 30.5835C43.0087 30.7237 42.8155 30.7926 42.621 30.7926Z" fill="white"/>
</g>
<g clip-path="url(#clip1_2411_15326)">
<path d="M46.5649 26.7298H53.3149C53.9365 26.7298 54.4399 26.2226 54.4399 25.5965C54.4399 24.9703 53.9365 24.4631 53.3149 24.4631H46.5649C45.9434 24.4631 45.4399 24.9703 45.4399 25.5965C45.4399 26.2226 45.9434 26.7298 46.5649 26.7298Z" fill="white"/>
<path d="M46.5649 19.9298H57.8149C58.4365 19.9298 58.9399 19.4226 58.9399 18.7964C58.9399 18.1703 58.4365 17.6631 57.8149 17.6631H46.5649C45.9434 17.6631 45.4399 18.1703 45.4399 18.7964C45.4399 19.4226 45.9434 19.9298 46.5649 19.9298Z" fill="white"/>
<path d="M46.5649 6.3299H55.5649C56.1865 6.3299 56.6899 5.82273 56.6899 5.19657C56.6899 4.5704 56.1865 4.06323 55.5649 4.06323H46.5649C45.9434 4.06323 45.4399 4.5704 45.4399 5.19657C45.4399 5.82273 45.9434 6.3299 46.5649 6.3299Z" fill="white"/>
<path d="M46.5649 13.1299H62.3149C62.9365 13.1299 63.4399 12.6228 63.4399 11.9966C63.4399 11.3704 62.9365 10.8633 62.3149 10.8633H46.5649C45.9434 10.8633 45.4399 11.3704 45.4399 11.9966C45.4399 12.6228 45.9434 13.1299 46.5649 13.1299Z" fill="white"/>
</g>
<defs>
<clipPath id="clip0_2411_15326">
<rect width="43.44" height="30.7929" fill="white"/>
</clipPath>
<clipPath id="clip1_2411_15326">
<rect width="18" height="22.6667" fill="white" transform="matrix(-1 0 0 1 63.4399 4.06323)"/>
</clipPath>
</defs>
</svg>
