<svg width="46" height="45" viewBox="0 0 46 45" fill="none" xmlns="http://www.w3.org/2000/svg">
<g clip-path="url(#clip0_2411_13575)">
<path fill-rule="evenodd" clip-rule="evenodd" d="M5.98321 16.8923C6.42949 16.8923 6.79128 17.2555 6.79128 17.7035L6.79127 42.9755H20.3129V17.7035C20.3129 17.2555 20.6747 16.8923 21.121 16.8923C21.5673 16.8923 21.9291 17.2555 21.9291 17.7035V42.9755H27.2335V17.7035C27.2335 17.2555 27.5953 16.8923 28.0416 16.8923C28.4878 16.8923 28.8496 17.2555 28.8496 17.7035V42.9755H42.3437L42.3437 17.7035C42.3437 17.2555 42.7055 16.8923 43.1518 16.8923C43.5981 16.8923 43.9598 17.2555 43.9598 17.7035L43.9598 43.5352C43.9598 44.1221 43.4859 44.5979 42.9012 44.5979H6.23377C5.6491 44.5979 5.17514 44.1221 5.17514 43.5352L5.17515 17.7035C5.17515 17.2555 5.53693 16.8923 5.98321 16.8923Z" fill="white"/>
<path fill-rule="evenodd" clip-rule="evenodd" d="M3.8008 10.6479C3.8008 10.1999 4.16258 9.83667 4.60887 9.83667H44.5261C44.9724 9.83667 45.3342 10.1999 45.3342 10.6479C45.3342 10.6657 45.3336 10.6833 45.3325 10.7008C45.3336 10.7182 45.3342 10.7358 45.3342 10.7535L45.3342 17.5777C45.3342 18.0952 44.9163 18.5147 44.4008 18.5147H4.73413C4.21865 18.5147 3.80078 18.0952 3.80078 17.5777L3.8008 10.7535C3.8008 10.7358 3.80137 10.7182 3.80249 10.7007C3.80137 10.6832 3.8008 10.6656 3.8008 10.6479ZM5.41693 11.4591L5.41692 16.8923H19.7241L19.7241 11.4591H5.41693ZM21.3402 11.4591L21.3402 16.8923H27.7947L27.7947 11.4591H21.3402ZM29.4109 11.4591L29.4109 16.8923H43.718L43.718 11.4591H29.4109Z" fill="white"/>
<path d="M28.3368 11.4063H20.7974C20.3476 11.4063 19.9818 11.0391 19.9818 10.5875C19.9818 8.04953 22.0389 5.98315 24.5671 5.98315C27.0953 5.98315 29.1537 8.04828 29.1537 10.5875C29.1524 11.0391 28.7878 11.4063 28.3368 11.4063ZM21.7282 9.76753H27.4072C27.0527 8.52997 25.9139 7.62192 24.5683 7.62192C23.2216 7.62192 22.0828 8.52997 21.7282 9.76753Z" fill="white"/>
<path d="M20.7509 11.4059H20.7434C20.5141 11.4034 15.1082 11.3242 12.7942 9.00123C10.335 6.53365 9.80879 3.19198 11.5966 1.39726C12.4898 0.500533 13.8003 0.158442 15.2861 0.437649C16.6592 0.694217 18.0398 1.46266 19.1723 2.59961C21.485 4.9213 21.5652 10.3495 21.5677 10.5796C21.5702 10.7997 21.4838 11.011 21.3284 11.167C21.1743 11.3192 20.9676 11.4059 20.7509 11.4059ZM14.3127 1.98209C13.6687 1.98209 13.1275 2.17829 12.7517 2.55559C11.6492 3.66361 12.1967 6.08466 13.9493 7.84416C15.226 9.12575 18.1613 9.59864 19.8952 9.72692C19.7662 7.98628 19.2951 5.03952 18.0185 3.75794C17.1165 2.85241 16.0403 2.24494 14.9867 2.04749C14.7524 2.00347 14.5269 1.98209 14.3127 1.98209Z" fill="white"/>
<path d="M20.7972 11.4059C20.4828 11.4059 20.1834 11.2223 20.0493 10.9154C19.9854 10.7721 18.5422 7.61526 14.7386 7.1059C13.2565 6.90844 11.4324 7.02289 9.66722 7.13609C5.64944 7.39265 1.49134 7.65803 0.688283 4.19939C0.585552 3.75794 0.858666 3.31775 1.2984 3.21462C1.73689 3.11401 2.17663 3.38692 2.27811 3.82711C2.73413 5.7891 5.46026 5.76395 9.56449 5.50235C11.4074 5.38413 13.3142 5.26339 14.9554 5.48349C19.6985 6.11862 21.4725 10.0916 21.5452 10.2602C21.7243 10.6752 21.5351 11.1582 21.123 11.338C21.0165 11.3846 20.9062 11.4059 20.7972 11.4059Z" fill="white"/>
<path d="M28.3367 11.406C28.12 11.406 27.9133 11.3193 27.7604 11.1658C27.6051 11.0099 27.5186 10.7986 27.5211 10.5785C27.5236 10.3483 27.6026 4.92142 29.9153 2.59847C32.3745 0.129637 35.702 -0.398591 37.4898 1.39613C39.2776 3.19084 38.7526 6.53126 36.2921 9.00135C33.9794 11.323 28.5722 11.4035 28.343 11.406H28.3367ZM34.7787 1.98221C33.6236 1.98221 32.2079 2.61482 31.0704 3.7568C29.79 5.04216 29.3214 7.9864 29.1936 9.72578C30.9275 9.59624 33.8641 9.12335 35.1408 7.84303C36.8922 6.08478 37.4409 3.66248 36.3372 2.55446C35.9501 2.16835 35.4026 1.98221 34.7787 1.98221Z" fill="white"/>
<path d="M39.904 28.1245C36.5865 28.1245 35.6795 24.1552 34.8013 20.313C34.4054 18.5824 33.9969 16.794 33.3856 15.4244C31.7995 11.8752 28.2728 11.4035 28.2377 11.3998C27.7905 11.3444 27.4723 10.9357 27.5261 10.4867C27.5813 10.0377 27.9872 9.71949 28.4357 9.77232C28.6174 9.79495 32.917 10.3697 34.8752 14.7528C35.5529 16.2695 35.9802 18.1384 36.3923 19.9457C37.3119 23.9703 38.0548 26.5939 40.0681 26.4807C40.5141 26.4492 40.905 26.7976 40.9313 27.2491C40.9576 27.7006 40.6156 28.0893 40.1646 28.1157C40.0769 28.122 39.9904 28.1245 39.904 28.1245Z" fill="white"/>
</g>
<defs>
<clipPath id="clip0_2411_13575">
<rect width="44.6667" height="44.2643" fill="white" transform="translate(0.666656 0.333252)"/>
</clipPath>
</defs>
</svg>
