<svg width="45" height="46" viewBox="0 0 45 46" fill="none" xmlns="http://www.w3.org/2000/svg">
<path d="M36.9684 3.43628H6.28003V41.1753H36.9684V3.43628Z" fill="white"/>
<path d="M22.4142 32.9126L43.2465 15.386L43.2365 44.5262H1.47534V15.386L22.3566 32.9126H22.4142Z" fill="#28D6BF"/>
<path fill-rule="evenodd" clip-rule="evenodd" d="M43.5872 14.6546C43.8723 14.7871 44.0546 15.0725 44.0545 15.3865L44.0445 44.5267C44.0443 44.9722 43.6825 45.3333 43.2362 45.3333H1.47503C1.02863 45.3333 0.666748 44.972 0.666748 44.5264V15.3862C0.666748 15.0725 0.848914 14.7872 1.13381 14.6548C1.41871 14.5223 1.75468 14.5668 1.99522 14.7687L22.3845 31.8824L42.7253 14.7693C42.9658 14.5669 43.302 14.5222 43.5872 14.6546ZM2.28331 17.1188V43.7196H42.4282L42.4374 17.1219L22.9348 33.5298C22.789 33.6524 22.6045 33.7197 22.4139 33.7197H22.3562C22.1659 33.7197 21.9817 33.6527 21.8361 33.5304L2.28331 17.1188Z" fill="white"/>
<path fill-rule="evenodd" clip-rule="evenodd" d="M21.9426 0.802505C22.0755 0.713988 22.2316 0.666748 22.3913 0.666748H22.4202C22.58 0.666748 22.7363 0.714061 22.8692 0.802704L43.6329 14.6505C43.8276 14.7379 43.9845 14.901 44.0608 15.11C44.1771 15.4285 44.0815 15.7857 43.8216 16.0039L29.4224 28.0899L43.8355 43.9851C44.135 44.3155 44.1096 44.8257 43.7786 45.1248C43.4477 45.4238 42.9365 45.3984 42.637 45.068L28.1842 29.1291L22.9404 33.5306C22.7947 33.6528 22.6105 33.7199 22.4202 33.7199H22.3625C22.1722 33.7199 21.988 33.6528 21.8423 33.5306L16.5583 29.0954L2.07428 45.068C1.7747 45.3984 1.26356 45.4238 0.932606 45.1247C0.601655 44.8257 0.57622 44.3155 0.875795 43.9851L15.3202 28.0562L0.961115 16.0039C0.701152 15.7857 0.605577 15.4285 0.721907 15.11C0.801448 14.8922 0.968455 14.7242 1.1747 14.6398L21.9426 0.802505ZM2.8385 15.4713L22.3913 31.883L41.9484 15.4678L22.4055 2.43419L2.8385 15.4713Z" fill="white"/>
</svg>
