<svg xmlns="http://www.w3.org/2000/svg" fill="none" viewBox="0 0 48 49"><path fill="#0E1856" fill-rule="evenodd" d="M23.586 11.781c-4.422 0-7.99 3.554-7.99 7.918 0 4.364 3.568 7.918 7.99 7.918 4.423 0 7.99-3.554 7.99-7.918 0-4.364-3.567-7.918-7.99-7.918ZM13.113 19.7c0-5.753 4.698-10.4 10.473-10.4s10.474 4.647 10.474 10.4-4.699 10.4-10.474 10.4c-5.774 0-10.473-4.647-10.473-10.4Z" clip-rule="evenodd"/><path fill="#0E1856" fill-rule="evenodd" d="M8.275 34.458c1.012-4.3 3.811-7.91 7.57-10.025l1.217 2.164c-3.17 1.784-5.522 4.824-6.37 8.43-.19.8.475 1.755 1.722 1.755h22.345c1.247 0 1.91-.955 1.722-1.755-.849-3.606-3.2-6.646-6.37-8.43l1.216-2.164c3.76 2.115 6.558 5.725 7.571 10.025.65 2.76-1.73 4.807-4.14 4.807H12.415c-2.41 0-4.79-2.048-4.14-4.807Z" clip-rule="evenodd"/></svg>