<svg xmlns="http://www.w3.org/2000/svg" xmlns:xlink="http://www.w3.org/1999/xlink" width="99.569" height="197" viewBox="0 0 99.569 197"><defs><clipPath id="a"><rect width="99.569" height="197" fill="none"/></clipPath></defs><rect width="16.794" height="197" transform="translate(41.387)" fill="#e0045b"/><g clip-path="url(#a)"><path d="M95.579,123.027s3.4,1.239,8.1,13.425,21.43,18.459,26.395,19.243c2.614-3.92,6.012-7.318,7.318-9.408s4.442-9.147,2.874-15.419c-13.85-8.1-44.689-7.841-44.689-7.841" transform="translate(-44.619 -57.432)" fill="#ce144b"/><path d="M48.287,123.027s-3.4,1.239-8.1,13.425S18.756,154.912,13.791,155.7c-2.614-3.92-6.01-7.318-7.317-9.408S2.03,137.14,3.6,130.868c13.851-8.1,44.689-7.841,44.689-7.841" transform="translate(-1.479 -57.432)" fill="#ce144b"/><rect width="12.283" height="12.021" transform="translate(43.644 53.574)" fill="#d02d5d"/><path d="M102.441,75.084s3.137-18.816,17.771-29.007c9.93,7.84,15.158,10.975,19.077,17.77-10.192,6.011-34.757,11.237-34.757,11.237Z" transform="translate(-47.822 -21.51)" fill="#fd5888"/><path d="M55.527,75.084s-3.136-18.816-17.77-29.007c-9.931,7.84-15.158,10.975-19.078,17.77,10.192,6.011,34.758,11.237,34.758,11.237Z" transform="translate(-8.72 -21.51)" fill="#fd5888"/><path d="M104.893,88.6s24.826-15.68,40.246-13.328c2.091,9.147,2.875,24.042,3.4,38.678-8.624,0-14.373.783-21.821-2.091s-16.856-11.237-21.822-11.237Z" transform="translate(-48.967 -35.027)" fill="#f82e6a"/><path d="M43.643,88.6S18.817,72.922,3.4,75.274C1.307,84.42.523,99.316,0,113.951c8.624,0,14.374.783,21.822-2.091s16.855-11.237,21.821-11.237Z" transform="translate(0 -35.027)" fill="#f82e6a"/></g></svg>