<svg fill="none" xmlns="http://www.w3.org/2000/svg" viewBox="0 0 30 30"><path d="M15 .6C7.068.6.6 7.07.6 15S7.068 29.4 15 29.4c7.93 0 14.4-6.469 14.4-14.4S22.93.6 15 .6Zm-4.298 2.436C9.712 4.29 8.998 5.843 8.497 7.35H4.852a12.79 12.79 0 0 1 5.85-4.314ZM3.778 9.032h4.247a25.62 25.62 0 0 0-.664 5.124H2.315a12.658 12.658 0 0 1 1.463-5.124Zm0 11.93a12.623 12.623 0 0 1-1.457-5.118h5.045c.057 1.789.282 3.521.664 5.119H3.778Zm1.074 1.688h3.65c.496 1.508 1.216 3.06 2.206 4.315a12.777 12.777 0 0 1-5.856-4.315Zm9.304 4.922c-1.885-.636-3.184-3.054-3.87-4.922h3.87v4.922Zm0-6.61H9.763c-.41-1.574-.653-3.313-.709-5.118h5.102v5.119Zm0-6.806H9.048c.057-1.805.298-3.543.71-5.118h4.398v5.118Zm0-6.806h-3.87c.686-1.867 1.986-4.286 3.87-4.922V7.35ZM26.22 9.038a12.625 12.625 0 0 1 1.457 5.118h-5.045a25.56 25.56 0 0 0-.664-5.118h4.252ZM25.147 7.35h-3.65c-.495-1.507-1.215-3.06-2.206-4.314a12.777 12.777 0 0 1 5.856 4.314Zm-9.304-4.922c1.885.636 3.184 3.055 3.87 4.922h-3.87V2.428Zm0 6.61h4.393c.411 1.575.653 3.313.71 5.118h-5.103V9.038Zm0 6.8h5.108c-.056 1.806-.298 3.55-.709 5.125h-4.399v-5.125Zm0 11.734v-4.927h3.87c-.686 1.867-1.985 4.291-3.87 4.927Zm3.454-.607c.99-1.255 1.704-2.813 2.205-4.32h3.65a12.847 12.847 0 0 1-5.855 4.32Zm6.924-6.002h-4.246c.382-1.598.607-3.336.663-5.125h5.046a12.655 12.655 0 0 1-1.463 5.125Z" fill="#0E1856"/></svg>