<svg width="205" height="210" viewBox="0 0 205 210" fill="none" xmlns="http://www.w3.org/2000/svg">
<path d="M139.607 53.152C138.987 52.0837 138.49 51.2517 138.003 50.4679C136.848 49.0596 136.229 47.2882 136.254 45.4672C136.432 44.5136 136.821 43.612 137.393 42.829C137.965 42.0459 138.706 41.4013 139.561 40.9429C141.791 39.3314 143.861 37.5094 145.743 35.502C148.44 32.6709 153.051 24.5996 151.288 18.6605C150.292 15.1947 147.016 12.7272 141.549 11.3492C137.953 10.513 134.273 10.0903 130.581 10.089C126.856 10.0258 123.141 10.4859 119.544 11.456C117.635 12.4724 115.815 13.6453 114.1 14.9627C114.03 15.3322 113.937 15.6973 113.824 16.056L105.859 47.654C105.726 48.1816 105.529 48.6909 105.272 49.1703C106.87 51.4444 108.606 53.6181 110.47 55.6792C114.467 60.0838 122.65 67.8692 132.79 70.4253C135.496 71.1282 138.301 71.3729 141.089 71.1494C141.405 70.7403 141.671 70.2943 141.879 69.8212C144.125 65.075 141.813 57.0598 139.607 53.152Z" fill="#F5F5F5"/>
<path d="M89.9985 55.9448L89.5697 55.8367L85.7869 70.8425L103.129 75.2144L104.037 71.613C98.5898 67.1328 93.856 61.8495 89.9985 55.9448Z" fill="#F5F5F5"/>
<path d="M97.8199 18.5875L85.6866 15.5288L79.6125 39.6239L91.7458 42.6826L97.8199 18.5875Z" fill="#F5F5F5"/>
<path d="M68.5187 50.5309C67.2666 51.036 65.9932 51.475 64.6984 51.8478C61.7577 53.2492 58.722 54.4419 55.6137 55.4171L53.798 62.6199L71.1405 66.9917L74.9233 51.9859L68.5187 50.5309Z" fill="#F5F5F5"/>
<path d="M16.9744 42.643C16.3184 41.512 15.8193 40.297 15.4908 39.0315C15.6021 40.3592 16.1202 41.6204 16.9744 42.643Z" fill="#F5F5F5"/>
<path d="M28.2172 4.91741C28.1374 4.6009 28.0416 4.25756 27.9565 3.87134C28.0488 4.5514 28.1836 5.225 28.3601 5.8882C28.6901 7.11136 29.0259 8.13077 29.3405 9.05363L29.5334 9.10227C29.1014 7.9218 28.7824 6.56462 28.2172 4.91741Z" fill="#F5F5F5"/>
<path d="M63.3714 42.1882L71.3586 10.5045C71.4234 10.2472 71.4829 10.0114 71.5477 9.75416C68.0571 1.48229 61.7349 -5.27622 53.714 -9.31023C50.4626 -11.0593 47.0221 -12.4315 43.4594 -13.4C41.8987 -13.8091 40.2961 -14.0371 38.6833 -14.0797C34.9692 -9.47573 35.1775 -0.896308 36.1624 2.70345C36.863 5.36921 37.8297 7.95779 39.048 10.4302C39.5688 11.2445 39.9053 12.1627 40.034 13.1206C40.1627 14.0786 40.0805 15.0531 39.7931 15.9759C38.9523 17.5914 37.5671 18.8575 35.8826 19.5499C35.1902 19.9454 34.3635 20.421 33.1985 21.1532C29.403 23.5479 23.5682 29.5096 23.1776 34.5865C23.1147 35.7662 23.3445 36.9432 23.8467 38.0125C24.3488 39.0819 25.1077 40.0104 26.0556 40.7154C29.0069 43.2448 32.5173 45.0363 36.2972 45.942C45.6223 48.2927 55.5731 45.9906 61.4803 44.0826L63.1012 43.2601C63.1589 42.8954 63.2493 42.5367 63.3714 42.1882Z" fill="#F5F5F5"/>
<path d="M37.0932 58.5223L39.1083 59.0303L39.238 58.5158C38.4819 58.5304 37.817 58.5452 37.0932 58.5223Z" fill="#F5F5F5"/>
<path d="M7.18862 37.145C7.7659 29.8808 13.2475 23.5109 17.7321 19.7396L-4.24072 14.2004L-11.9198 44.6623C-12.0087 45.0148 -11.9539 45.3882 -11.7675 45.7003C-11.581 46.0123 -11.2783 46.2376 -10.9258 46.3264L17.6067 53.5192C15.9294 52.5492 14.3418 51.4318 12.8627 50.1801C10.9354 48.6263 9.4128 46.6293 8.42475 44.3594C7.4367 42.0896 7.0126 39.6143 7.18862 37.145Z" fill="#F5F5F5"/>
<path d="M35.8599 71.913L1.38928 63.2234L-22.075 156.303L12.3956 164.992L35.8599 71.913Z" fill="#F5F5F5"/>
<path d="M67.8655 79.9817L50.5231 75.6099L27.0588 168.689L44.4013 173.061L67.8655 79.9817Z" fill="#F5F5F5"/>
<path d="M99.8922 88.055L82.5497 83.6831L59.0854 176.762L76.4279 181.134L99.8922 88.055Z" fill="#F5F5F5"/>
<path d="M149.047 100.446L114.576 91.7566L91.1118 184.836L125.582 193.525L149.047 100.446Z" fill="#F5F5F5"/>
<path d="M150.41 58.7722C150.08 56.7542 149.539 54.7763 148.797 52.8709L148.583 52.8169C149.351 54.7495 149.963 56.7411 150.41 58.7722Z" fill="#F5F5F5"/>
<path d="M175.872 59.6959L158.165 55.2321C159.519 60.0916 159.28 65.2572 157.482 69.9706C156.469 72.2268 154.923 74.2034 152.977 75.7303C151.032 77.2573 148.744 78.289 146.312 78.7368C145.872 78.8539 145.454 78.8852 145.025 78.9595C143.071 80.3787 140.84 81.37 138.477 81.8688C136.581 82.2658 134.654 82.497 132.717 82.5599L169.16 91.7467L176.823 61.3492C176.905 61.0043 176.852 60.6413 176.675 60.3341C176.498 60.0269 176.211 59.7987 175.872 59.6959Z" fill="#F5F5F5"/>
<path d="M164.996 99.3143L172.52 101.211C175.006 101.838 177.64 101.453 179.843 100.14C182.046 98.8279 183.638 96.6952 184.271 94.2102L192.836 60.2326C193.457 57.7447 193.066 55.112 191.749 52.912C190.431 50.7121 188.295 49.1245 185.808 48.4977L156.547 41.1212C157.466 40.2812 158.502 39.3342 159.604 38.0388C163.284 34.2015 169.971 23.0513 167.122 13.1905C165.839 8.69473 162.059 2.79457 151.427 0.114182C147.208 -0.87139 142.893 -1.37808 138.561 -1.39632C128.138 -1.68944 117.929 1.59425 109.631 7.90867L108.946 7.73575L87.5086 2.33173C87.1644 2.22148 86.8135 2.13303 86.4581 2.06692C82.1355 -7.44352 74.6934 -15.1917 65.3648 -19.8939C61.5415 -21.9299 57.5014 -23.5297 53.3206 -24.6629C42.6022 -27.3649 36.5633 -23.9398 33.3021 -20.5897C26.5486 -13.6968 26.6862 -1.85214 27.8815 3.807C27.9665 4.19322 28.0624 4.53659 28.1422 4.85309C28.6001 6.47329 29.0263 7.85749 29.3726 9.01634L0.368424 1.70471C-0.86179 1.39458 -2.14105 1.32979 -3.3963 1.51406C-4.65155 1.69832 -5.8582 2.12802 -6.94739 2.77863C-8.03657 3.42923 -8.98694 4.28798 -9.74424 5.30587C-10.5015 6.32376 -11.0509 7.48086 -11.3611 8.71108L-19.9264 42.6886C-20.3576 44.4193 -20.2943 46.2364 -19.7437 47.9329C-19.5889 48.4212 -19.3962 48.8966 -19.1674 49.3549C-18.5508 50.598 -17.6736 51.6937 -16.5956 52.5674C-15.5175 53.4411 -14.2639 54.0723 -12.9201 54.4181L-5.37425 56.3203L-30.2652 155.059C-30.5043 156.007 -30.5543 156.994 -30.4122 157.962C-30.2701 158.93 -29.9387 159.861 -29.437 160.701C-28.9353 161.54 -28.273 162.273 -27.4881 162.857C-26.7031 163.441 -25.8108 163.865 -24.8621 164.104L131.027 203.402C131.977 203.645 132.965 203.697 133.935 203.557C134.906 203.417 135.839 203.087 136.681 202.585C137.523 202.084 138.258 201.421 138.844 200.635C139.43 199.849 139.854 198.955 140.094 198.004L164.996 99.3143ZM183.707 56.5632C184.061 56.6526 184.366 56.8777 184.556 57.19C184.746 57.5024 184.806 57.8769 184.722 58.2328L176.157 92.2103C176.062 92.5633 175.832 92.8649 175.517 93.0498C175.201 93.2348 174.826 93.2883 174.471 93.1989L117.706 78.8891L119.057 73.5299C122.725 75.7319 126.689 77.3989 130.828 78.4806C135.474 79.6842 140.329 79.8494 145.046 78.9643C145.476 78.8901 145.894 78.8587 146.334 78.7416C148.766 78.2938 151.053 77.2621 152.999 75.7352C154.945 74.2082 156.491 72.2317 157.504 69.9754C159.302 65.262 159.541 60.0965 158.187 55.237C157.756 53.3348 157.183 51.4677 156.471 49.6518L183.707 56.5632ZM138.507 6.9574C142.199 6.9598 145.879 7.38256 149.475 8.21753C154.941 9.59556 158.239 12.0685 159.235 15.5342C160.934 21.4571 156.388 29.5446 153.69 32.3758C151.796 34.3769 149.719 36.1967 147.487 37.8112C146.639 38.2783 145.903 38.9254 145.332 39.707C144.761 40.4886 144.368 41.3858 144.18 42.3355C144.163 44.1605 144.79 45.9331 145.95 47.3417C146.351 48.0127 146.875 48.8287 147.554 50.0258C148.069 50.9577 148.518 51.9243 148.899 52.9184C149.641 54.8238 150.182 56.8017 150.512 58.8197C151.066 61.4414 150.884 64.1649 149.987 66.6899C149.489 67.762 148.73 68.6924 147.78 69.3966C146.83 70.1008 145.719 70.5564 144.548 70.7221C143.494 70.9521 142.426 71.1094 141.351 71.193C138.564 71.4166 135.759 71.1718 133.053 70.4689C122.913 67.9128 114.719 60.1702 110.733 55.7228C108.869 53.6617 107.132 51.488 105.534 49.2139C105.792 48.7345 105.989 48.2253 106.122 47.6977L114.06 16.2068C114.173 15.8481 114.265 15.483 114.336 15.1136C116.05 13.7961 117.871 12.6232 119.78 11.6069C125.515 8.44832 131.971 6.83154 138.518 6.91451L138.507 6.9574ZM105.654 15.4558L98.3588 44.3956L79.7087 39.6941L87.0041 10.7543L105.654 15.4558ZM51.3474 -16.4738C54.9472 -15.5016 58.4238 -14.1203 61.7092 -12.3569C69.72 -8.31866 76.0335 -1.5632 79.5215 6.70202C79.462 6.93783 79.3972 7.1951 79.3377 7.4309L71.3884 38.9646C71.2805 39.3893 71.2168 39.824 71.1982 40.2618C68.611 41.6139 65.9319 42.7822 63.1807 43.7581L61.732 44.2593C55.8248 46.1672 45.8686 48.4908 36.5489 46.1186C32.769 45.2129 29.2586 43.4215 26.3073 40.8921C25.3594 40.1871 24.6005 39.2585 24.0984 38.1891C23.5962 37.1198 23.3664 35.9429 23.4293 34.7632C23.8416 29.6005 29.6763 23.6388 33.4502 21.3299C34.5078 20.6617 35.3345 20.1861 36.1343 19.7266C37.8188 19.0341 39.204 17.7681 40.0448 16.1525C40.3322 15.2297 40.4144 14.2552 40.2857 13.2973C40.157 12.3393 39.8205 11.4211 39.2997 10.6069C38.0814 8.13443 37.1147 5.54585 36.4141 2.8801C35.4292 -0.719664 35.2209 -9.29909 38.935 -13.903C39.1285 -14.1278 39.3005 -14.3581 39.5154 -14.5775C41.8264 -17.3236 45.8812 -17.943 51.3691 -16.5595L51.3474 -16.4738ZM18.9983 166.748L-22.0963 156.389L2.6109 58.3789L43.7055 68.7384L18.9983 166.748ZM45.7104 60.7853L-10.926 46.5079C-11.2785 46.419 -11.5812 46.1938 -11.7676 45.8817C-11.9541 45.5696 -12.0089 45.1962 -11.92 44.8437L-3.33302 10.7805C-3.23491 10.4383 -3.00753 10.1476 -2.69896 9.97012C-2.39039 9.7926 -2.02484 9.74209 -1.6797 9.82929L25.6095 16.7086C21.1035 20.4745 15.6218 26.8444 15.0446 34.1086C14.9096 35.7828 15.0715 37.4675 15.5227 39.0854C15.8511 40.3509 16.3502 41.5659 17.0062 42.6969C17.9964 44.3645 19.2522 45.8593 20.724 47.1224C24.6543 50.5334 29.3458 52.9515 34.4044 54.1733C38.5614 55.1846 42.8417 55.5956 47.1151 55.394L45.7104 60.7853ZM51.025 174.822L27.0372 168.775L51.7443 70.7649L75.7322 76.812L51.025 174.822ZM77.7371 68.8589L53.7492 62.8118L55.8784 54.3656C58.8515 53.7732 61.7832 52.9891 64.6551 52.0183C65.9821 51.5776 67.2555 51.1387 68.4753 50.7014C70.9357 49.7246 73.3354 48.6012 75.6615 47.3375L82.7142 49.1155L77.7371 68.8589ZM83.0304 182.89L59.0639 176.848L83.7711 78.8385L107.738 84.8802L83.0304 182.89ZM109.742 76.9271L85.776 70.8854L90.7693 51.0777L97.8435 52.861C101.7 58.7491 106.43 64.0161 111.872 68.4809L109.742 76.9271ZM132.185 195.281L90.9835 184.895L115.691 86.8851L156.807 97.25L132.185 195.281Z" fill="#F8E22C"/>
</svg>
