<svg width="164" height="134" viewBox="0 0 164 134" fill="none" xmlns="http://www.w3.org/2000/svg">
<g clip-path="url(#clip0_1591_21792)">
<path d="M120.857 33.9721C120.77 32.1118 120.701 30.3558 120.701 28.7563C120.701 17.751 118.683 12.5178 107.236 12.5178C101.339 12.5178 93.8062 15.2996 86.9173 19.1419C88.3616 20.7067 89.4818 22.5417 90.2133 24.5411C90.9448 26.5406 91.2731 28.6649 91.1793 30.7918C91.0855 32.9186 90.5714 35.0058 89.6668 36.9332C88.7622 38.8606 87.4848 40.59 85.9084 42.0218C85.7344 42.3695 85.5256 42.6998 85.3169 43.0302L87.5784 43.8995C96.634 47.2438 106.151 49.1731 115.795 49.6194C117.21 49.6598 118.614 49.3742 119.901 48.7849C121.31 44.7514 121.066 38.9097 120.857 33.9721Z" fill="#F5F5F5"/>
<path d="M68.3381 23.2624C65.5078 23.2487 62.7405 24.0978 60.4055 25.6964C59.6969 27.0482 59.3268 28.5516 59.3269 30.0777C59.3269 36.0932 64.9981 40.996 71.9914 40.996C74.8277 41.0133 77.6015 40.164 79.9415 38.562C80.6399 37.2064 81.0094 35.7055 81.02 34.1807C81.0374 28.113 75.2966 23.2624 68.3381 23.2624Z" fill="#F5F5F5"/>
<path d="M20.7072 14.5695C20.0864 17.506 19.8178 20.5059 19.907 23.5059C19.907 25.2445 19.907 26.9831 19.7505 28.9998C19.4895 35.7456 19.1416 44.1256 22.5165 47.6376C23.2768 48.3409 24.1751 48.8787 25.1543 49.2169C26.1336 49.5551 27.1724 49.6863 28.205 49.6022C36.6883 49.2432 45.0795 47.6982 53.1338 45.0123C50.495 42.1033 49.1071 38.2736 49.2698 34.3504C49.4326 30.4273 51.1329 26.7256 54.0036 24.0448C54.2803 23.3758 54.5999 22.7254 54.9604 22.0976C46.9408 16.8818 37.0771 12.5006 29.7359 12.5006C26.5873 12.2762 23.4435 12.9966 20.7072 14.5695Z" fill="#F5F5F5"/>
<path d="M51.9161 82.7224H-0.898926V134.48H51.9161V82.7224Z" fill="#F5F5F5"/>
<path d="M22.9687 61.129C21.1188 61.2178 19.2714 60.9083 17.5516 60.2214C15.8318 59.5345 14.2798 58.4862 13.0007 57.1476C11.0173 54.83 9.70055 52.0178 9.19092 49.011H-13.4242V70.2045C-13.4153 70.4905 -13.2964 70.7621 -13.0923 70.9629C-12.8882 71.1636 -12.6146 71.2781 -12.3282 71.2824H52.0379V55.0787C42.7396 58.6542 32.9222 60.6975 22.9687 61.129Z" fill="#F5F5F5"/>
<path d="M75.3836 81.8184H64.9633V134.48H75.3836V81.8184Z" fill="#F5F5F5"/>
<path d="M73.9918 50.7844C72.1572 51.2974 70.2605 51.5548 68.3555 51.5494C67.2249 51.5453 66.0965 51.4523 64.9806 51.2712V71.1955H75.4183V51.4625C74.9138 51.2538 74.4441 51.08 73.9918 50.7844Z" fill="#F5F5F5"/>
<path d="M138.358 82.7224H85.543V134.48H138.358V82.7224Z" fill="#F5F5F5"/>
<path d="M149.874 49.011H128.39C127.807 50.1499 127.069 51.203 126.198 52.1405C124.798 53.5844 123.066 54.6646 121.153 55.2873C120.72 55.9525 120.225 56.5754 119.674 57.1476C118.309 58.502 116.674 59.5559 114.877 60.2416C113.079 60.9272 111.158 61.2295 109.237 61.129C101.196 60.8408 93.226 59.5143 85.5256 57.1824V71.1954H150.918V50.0889C150.91 49.8115 150.798 49.5472 150.605 49.3477C150.412 49.1483 150.151 49.0282 149.874 49.011Z" fill="#F5F5F5"/>
<path d="M-12.3804 77.7151H-7.40512V135.558C-7.40056 136.997 -6.82783 138.376 -5.81143 139.395C-4.79504 140.414 -3.41718 140.991 -1.9775 141H145.89C147.335 141 148.72 140.427 149.741 139.406C150.762 138.386 151.336 137.001 151.336 135.558V77.7151H156.311C157.311 77.7289 158.303 77.5455 159.232 77.1752C160.161 76.805 161.007 76.2554 161.723 75.5577C162.439 74.86 163.01 74.0281 163.404 73.1095C163.798 72.1909 164.006 71.2037 164.017 70.2044V45.1687C164.017 43.1536 163.216 41.2211 161.791 39.7963C160.365 38.3715 158.431 37.571 156.415 37.571H130.965C130.965 34.6502 130.965 31.6598 130.825 28.7911C130.738 26.9308 130.669 25.1574 130.669 23.5753C130.669 17.9249 130.286 12.0658 127.416 7.5281C124.25 2.52094 118.718 0.0869141 110.715 0.0869141C101.6 0.0869141 89.9616 5.7895 82.0985 11.1444C81.1243 11.805 79.9066 12.6743 78.6193 13.7175C74.3926 12.332 69.8335 12.332 65.6069 13.7175C64.2674 12.6743 63.0496 11.805 62.1276 11.1444C54.2645 5.7895 42.6264 0.0869141 33.5108 0.0869141C25.439 0.0869141 19.9766 2.52094 16.8104 7.5281C13.9401 12.0658 13.5399 17.9597 13.5399 23.5753C13.5399 25.1574 13.5399 26.9308 13.4008 28.7911C13.279 31.6598 13.1572 34.6502 13.2616 37.571H-12.3804C-14.3983 37.571 -16.3337 38.3709 -17.7621 39.7953C-19.1906 41.2196 -19.9954 43.152 -20 45.1687V70.2044C-19.9726 72.2059 -19.1577 74.1161 -17.7317 75.5218C-16.3057 76.9274 -14.3833 77.7153 -12.3804 77.7151ZM58.457 134.532H-0.881527V77.7151H58.457V134.532ZM79.0368 55.1308V71.2476H64.9806V47.4288L66.3897 46.7508C70.0662 47.7704 73.9511 47.7704 77.6277 46.7508L79.0368 47.4288V55.1308ZM79.0368 134.532H64.9806V77.7151H79.0368V134.532ZM144.882 134.532H85.5603V77.7151H144.882V134.532ZM156.38 44.1255C156.665 44.13 156.937 44.245 157.138 44.4462C157.339 44.6474 157.455 44.919 157.459 45.2034V70.2044C157.45 70.4875 157.334 70.7567 157.133 70.957C156.933 71.1573 156.664 71.2736 156.38 71.2824H85.5603V50.0715C95.2644 53.638 105.465 55.6733 115.795 56.1044C117.614 56.1248 119.423 55.8488 121.153 55.2873C123.066 54.6646 124.798 53.5844 126.198 52.1404C127.069 51.203 127.807 50.1499 128.39 49.011C129.199 47.4307 129.785 45.7455 130.13 44.0038L156.38 44.1255ZM110.663 6.51972C122.092 6.51972 124.093 11.9789 124.093 23.4884C124.093 25.227 124.18 26.9656 124.25 28.9824C124.528 35.7281 124.858 44.1081 121.501 47.6201C121.031 48.0793 120.491 48.4608 119.901 48.7502C118.614 49.3395 117.209 49.6251 115.795 49.5847C106.151 49.1384 96.6339 47.2091 87.5783 43.8647L85.3168 42.9954L84.9689 42.8563C85.2994 42.5782 85.6126 42.2826 85.9083 41.987C87.4848 40.5553 88.7621 38.8259 89.6667 36.8985C90.5714 34.9711 91.0854 32.8839 91.1792 30.757C91.273 28.6302 90.9447 26.5058 90.2132 24.5064C89.4818 22.5069 88.3616 20.6719 86.9173 19.1071C86.2666 18.3616 85.5569 17.6697 84.7949 17.0382C92.9016 11.2835 103.131 6.51972 110.663 6.51972ZM72.0087 19.1071C78.9672 19.1071 84.6732 24.01 84.6732 30.0255C84.6341 31.7156 84.1846 33.371 83.3633 34.849C82.5421 36.3269 81.3737 37.5833 79.9588 38.5098C77.6188 40.1119 74.845 40.9611 72.0087 40.9439C65.0502 40.9439 59.3442 36.041 59.3442 30.0255C59.3441 28.4994 59.7143 26.9961 60.4228 25.6443C61.5722 23.6009 63.2598 21.9112 65.3023 20.7587C67.3449 19.6063 69.6642 19.0351 72.0087 19.1071ZM33.3543 6.51972C40.8868 6.51972 51.0984 11.2835 59.2051 16.9513C57.4928 18.3576 56.054 20.0667 54.9604 21.9932C54.5998 22.621 54.2802 23.2714 54.0036 23.9404C53.2312 25.8464 52.8297 27.8822 52.8206 29.9386C52.8459 32.4042 53.4175 34.8337 54.4944 37.0522C55.5712 39.2708 57.1265 41.2233 59.0485 42.7694C58.2135 43.1171 57.3089 43.4475 56.4391 43.7778C55.5693 44.1081 54.2645 44.5428 53.1338 44.9079C45.0794 47.5938 36.6883 49.1387 28.205 49.4978C27.1723 49.5819 26.1335 49.4507 25.1543 49.1125C24.175 48.7743 23.2768 48.2365 22.5164 47.5332C19.1415 44.056 19.4895 35.6412 19.7504 28.8954C19.8374 26.9482 19.907 25.1227 19.907 23.4015C19.8178 20.4015 20.0864 17.4016 20.7072 14.4651C22.0467 9.12761 25.439 6.51972 33.3543 6.51972ZM-12.3804 44.0038H13.8357C14.3704 47.0334 15.7445 49.8523 17.802 52.1404C19.1693 53.4917 20.8042 54.5424 22.6017 55.225C24.3992 55.9077 26.3196 56.2072 28.2398 56.1044C38.5758 55.6734 48.7818 53.6381 58.4918 50.0715V71.1954H-12.3804C-12.6437 71.1805 -12.893 71.0727 -13.0842 70.8912C-13.2753 70.7097 -13.3958 70.4664 -13.4242 70.2044V45.1687C-13.4336 45.0234 -13.414 44.8777 -13.3664 44.7401C-13.3188 44.6025 -13.2442 44.4757 -13.147 44.3673C-13.0498 44.2588 -12.932 44.1708 -12.8003 44.1084C-12.6687 44.046 -12.526 44.0104 -12.3804 44.0038Z" fill="#28D6BF"/>
</g>
<defs>
<clipPath id="clip0_1591_21792">
<rect width="184" height="141" fill="white" transform="translate(-20)"/>
</clipPath>
</defs>
</svg>
