<svg width="222" height="209" viewBox="0 0 222 209" fill="none" xmlns="http://www.w3.org/2000/svg">
<path d="M111.353 99.2507C108.379 97.7198 105.796 95.5276 103.802 92.8425C104.549 94.3746 105.606 95.735 106.905 96.8379C108.205 97.9409 109.719 98.7625 111.353 99.2507Z" fill="#F5F5F5"/>
<path d="M126.207 91.7936C127.092 91.5245 127.948 91.1692 128.764 90.733C129.589 88.3926 129.655 85.8519 128.952 83.4719C127.817 80.227 125.444 77.563 122.352 76.0617C119.259 74.5604 115.698 74.3439 112.447 75.4591C111.57 75.7257 110.721 76.0784 109.914 76.5123C109.08 78.8423 109.011 81.3776 109.718 83.7492C110.847 86.9959 113.215 89.6641 116.304 91.1712C119.393 92.6784 122.953 92.9022 126.207 91.7936Z" fill="#F5F5F5"/>
<path d="M207.513 80.3949L207.557 80.5401L218.292 70.4454L206.552 68.4395C207.993 72.2543 208.326 76.3988 207.513 80.3949Z" fill="#F5F5F5"/>
<path d="M196.785 70.0096C196.154 68.7739 195.427 67.5898 194.61 66.4686L194.133 66.3748C195.077 67.5414 195.962 68.7545 196.785 70.0096Z" fill="#F5F5F5"/>
<path d="M134.929 74.5727C134.209 73.0351 133.177 71.6635 131.9 70.5447C130.623 69.4259 129.127 68.5841 127.508 68.0725C130.444 69.6469 132.982 71.87 134.929 74.5727Z" fill="#F5F5F5"/>
<path d="M137.404 99.0034L137.803 99.1765L137.404 99.0034Z" fill="#F5F5F5"/>
<path d="M181.972 67.5313C174.554 61.215 173.061 52.1379 171.867 44.8444C171.039 39.8158 170.3 35.2616 167.992 33.8192C166.563 32.93 163.247 32.3454 155.674 34.6263C148.064 36.8185 141.062 40.7334 135.21 46.0675C133.485 48.5262 131.993 51.1402 130.753 53.8755C130.026 55.4931 129.396 57.0815 128.88 58.6093C132.55 59.4829 135.929 61.2967 138.685 63.8721C141.441 66.4476 143.479 69.6961 144.599 73.2982C145.468 76.2197 145.702 79.293 145.287 82.3125C144.872 85.3321 143.817 88.2281 142.193 90.807C150.299 94.4265 159.211 95.8637 168.044 94.9759C172.342 94.6058 176.594 93.8115 180.736 92.6047C184.379 91.5612 187.841 89.9667 191.003 87.8764C191.257 87.28 191.46 86.6627 191.608 86.0314C192.757 80.3812 189.334 73.8379 181.972 67.5313Z" fill="#F5F5F5"/>
<path d="M99.927 62.1037C101.791 63.294 103.59 64.5847 105.314 65.9703L105.638 65.5561C104.364 64.5675 102.961 63.5913 101.462 62.6442C100.039 61.7496 98.5683 60.9326 97.0568 60.197L96.8875 60.248C97.9628 60.927 98.9123 61.5384 99.927 62.1037Z" fill="#F5F5F5"/>
<path d="M117.54 53.2886L110.278 52.0451C109.071 51.9137 107.851 52.0471 106.701 52.4363C105.885 52.6748 105.1 53.0086 104.362 53.4311L106.413 54.6342C108.912 56.2171 111.295 57.9778 113.542 59.9028C113.88 59.8008 114.243 59.6914 114.606 59.5821C114.874 58.8945 115.142 58.2068 115.458 57.5046C116.161 56.1581 116.828 54.6907 117.54 53.2886Z" fill="#F5F5F5"/>
<path d="M94.063 93.9805C93.0065 90.3562 92.9136 86.5191 93.7933 82.8479C94.6731 79.1767 96.4951 75.7984 99.0795 73.0465C97.7811 72.0653 96.4029 71.0817 94.8795 70.1418C88.8222 66.3489 81.999 63.9469 74.9015 63.1092C67.804 62.2714 60.609 63.0187 53.8352 65.2972C52.832 65.5948 51.8451 65.9449 50.8787 66.3459C51.3682 70.7881 52.5753 75.1215 54.4529 79.1771C57.5669 87.2383 61.0572 96.3737 58.4291 105.61C55.9455 114.275 56.2162 120.606 59.1843 123.539C62.1523 126.472 68.8981 126.789 77.4875 124.202C82.8755 122.495 88.0799 120.256 93.0235 117.517C97.07 115.325 100.825 112.633 104.202 109.506C104.743 108.762 105.229 108.009 105.69 107.263C102.919 106.003 100.448 104.167 98.4434 101.876C96.4384 99.5857 94.9451 96.8939 94.063 93.9805Z" fill="#F5F5F5"/>
<path d="M29.6022 122.314L40.3166 124.154C40.0328 119.723 40.476 115.275 41.6287 110.986L29.6022 122.314Z" fill="#F5F5F5"/>
<path d="M33.3911 141.204L56.7902 218.896C57.1792 219.838 57.7719 220.682 58.526 221.367C59.28 222.053 60.1765 222.563 61.1511 222.86L80.7404 226.566L56.2117 145.125L33.3911 141.204Z" fill="#F5F5F5"/>
<path d="M130.394 157.828L75.9626 148.491L100.608 230.32L158.693 241.274L133.611 157.994C132.535 158.052 131.457 157.996 130.394 157.828Z" fill="#F5F5F5"/>
<path d="M139.839 107.877L136.118 107.704C132.949 109.519 129.407 110.586 125.763 110.823L123.591 112.375C118.041 121.781 110.001 129.471 100.358 134.599L138.664 140.955C141.101 141.172 143.528 140.441 145.439 138.914L173 113.011L171.364 113.187C160.568 114.327 149.666 112.491 139.839 107.877Z" fill="#F5F5F5"/>
<path d="M150.957 153.377L177.155 240.36L216.857 201.669L191.279 116.743L150.957 153.377Z" fill="#F5F5F5"/>
<path d="M225.679 85.5071L205.97 103.398L231.322 187.573L250.708 168.698C250.703 168.639 250.686 168.581 250.657 168.529L225.679 85.5071Z" fill="#F5F5F5"/>
<path d="M230.64 54.4029L190.79 47.5626C189.27 43.8019 188.259 39.8552 187.783 35.8272C186.679 29.0079 185.517 21.9952 179.598 18.2888C174.957 15.4113 168.572 15.3286 159.523 18.054C147.981 21.2856 137.692 27.9458 130.019 37.1533L118.525 35.1786C115.868 34.83 113.169 35.0491 110.603 35.8217C108.038 36.5943 105.666 37.9027 103.645 39.6603L94.019 48.7082C82.214 44.9052 69.5122 44.9087 57.7093 48.7185C50.1603 50.9921 45.3597 54.4171 42.9978 59.1926C39.4526 66.4356 42.6103 74.642 45.6564 82.5653C46.7705 85.4757 47.8991 88.4345 48.7179 91.3283L20.794 117.605C19.5851 118.557 18.6771 119.838 18.1793 121.294C17.6815 122.751 17.6151 124.32 17.9881 125.813C18.2967 126.838 18.8415 127.776 19.5787 128.553L47.6198 221.657C48.1431 223.308 48.9651 224.85 50.0451 226.204C51.4013 227.863 53.0551 229.253 54.9216 230.304C56.2945 231.125 57.792 231.717 59.3551 232.056L167.748 252.587C170.413 252.983 173.134 252.786 175.715 252.009C178.295 251.231 180.673 249.893 182.676 248.091L261.677 171.121C263.573 169.127 264.929 166.682 265.618 164.018C266.307 161.354 266.306 158.559 265.615 155.895L237.603 62.8882C237.789 61.8337 237.725 60.7503 237.416 59.7251C236.908 58.2863 236.002 57.0217 234.802 56.0792C233.602 55.1367 232.159 54.5553 230.64 54.4029ZM225.875 63.2011L218.123 70.4971L207.388 80.5918L207.344 80.4466C208.157 76.4505 207.823 72.306 206.382 68.4912C205.047 64.9874 203.123 61.7381 200.691 58.8839L225.875 63.2011ZM174.575 26.32C176.859 27.7697 177.626 32.4208 178.449 37.3452C179.643 44.6388 181.137 53.7158 188.53 60.0394C190.797 61.942 192.837 64.0993 194.61 66.4685C195.427 67.5897 196.154 68.7738 196.785 70.0095C198.172 72.6032 198.661 75.5831 198.176 78.484C197.073 82.4081 194.498 85.755 190.988 87.8269C187.827 89.9172 184.365 91.5117 180.721 92.5552C176.579 93.762 172.328 94.5563 168.029 94.9264C159.196 95.8142 150.284 94.3771 142.178 90.7576C143.803 88.1788 144.858 85.2827 145.273 82.2632C145.688 79.2437 145.453 76.1702 144.584 73.2487C143.464 69.6466 141.426 66.3981 138.67 63.8227C135.914 61.2472 132.535 59.4334 128.865 58.5598C129.382 57.0321 130.012 55.4437 130.738 53.8262C131.979 51.0908 133.471 48.4769 135.196 46.0182C141.779 36.8009 151.334 30.1303 162.256 27.1273C169.829 24.8464 173.146 25.4309 174.575 26.32ZM172.882 112.967L145.321 138.87C143.41 140.397 140.983 141.128 138.546 140.911L100.397 134.376L84.672 131.67C89.0984 129.993 93.4055 128.017 97.5635 125.755C107.392 120.614 115.586 112.826 121.22 103.272L123.391 101.72C125.298 101.633 127.187 101.313 129.015 100.765C130.64 100.267 132.208 99.6003 133.694 98.7757L137.407 98.9241L137.802 99.0955C147.502 103.586 158.234 105.377 168.867 104.28C173.81 103.864 178.698 102.949 183.456 101.549L185.126 101.046L185.581 101.067L172.882 112.967ZM109.914 76.5126C110.646 74.4663 111.855 72.6234 113.44 71.1365C115.025 69.6496 116.941 68.5612 119.03 67.9614C121.795 67.1183 124.753 67.1489 127.501 68.049C129.12 68.5606 130.615 69.4025 131.893 70.5214C133.17 71.6402 134.201 73.0116 134.921 74.5492C135.067 75.0331 135.358 75.4734 135.504 75.9573C136.289 78.817 136.044 81.8619 134.811 84.5589C133.577 87.2559 131.434 89.4331 128.757 90.7093C127.942 91.1455 127.085 91.5006 126.2 91.7697C122.947 92.8783 119.387 92.6545 116.297 91.1473C113.208 89.6402 110.84 86.9721 109.712 83.7254C109.012 81.3605 109.083 78.8345 109.914 76.5126ZM110.134 46.5729C112.045 45.0459 114.472 44.3151 116.908 44.5325L124.171 45.7759C123.386 47.1999 122.69 48.5706 122.091 49.9121C120.882 52.6121 119.868 55.3957 119.058 58.2413C118.127 58.4069 117.205 58.6228 116.297 58.8881C115.741 59.0557 115.184 59.2233 114.652 59.3836C114.119 59.5439 113.926 59.6022 113.587 59.7043C111.34 57.7793 108.958 56.0186 106.458 54.4357L104.407 53.2326L103.417 52.66L110.134 46.5729ZM60.442 57.7917C72.4953 53.8016 85.6289 54.6641 97.0568 60.1965C98.5683 60.9321 100.039 61.7491 101.462 62.6437C102.961 63.5908 104.364 64.567 105.638 65.5555L105.314 65.9697C102.859 68.7115 101.142 72.0332 100.325 75.6219C99.5085 79.2105 99.6187 82.948 100.646 86.4822C101.337 88.7628 102.403 90.9122 103.801 92.8419C105.796 95.5269 108.379 97.7192 111.352 99.2501C111.691 99.4119 111.989 99.6124 112.321 99.75C110.075 103.341 107.361 106.616 104.25 109.491C100.874 112.618 97.1186 115.31 93.0721 117.502C88.1284 120.241 82.924 122.481 77.536 124.187C68.9466 126.774 62.3921 126.479 59.2328 123.524C56.0735 120.57 55.9795 114.212 58.4776 105.595C60.9848 96.3954 57.6154 87.2235 54.5014 79.1623C52.6239 75.1068 51.4168 70.7734 50.9272 66.3312C50.906 65.3099 51.1047 64.2961 51.5097 63.3584C52.6303 61.1208 55.6271 59.2419 60.442 57.7917ZM49.2319 125.718L40.2194 124.184L29.5051 122.344L41.5557 111.009L49.0027 104.015C46.6285 113.043 46.7356 120.321 49.3287 125.689L49.2319 125.718ZM90.0094 228.339L80.636 226.571L61.0467 222.865C60.0721 222.567 59.1756 222.057 58.4215 221.371C57.6675 220.686 57.0747 219.842 56.6858 218.9L30.5394 132.087L62.6825 137.607L90.0094 228.339ZM167.984 243.121L158.693 241.274L100.593 230.272L73.2225 139.394L136.976 150.33C138.04 150.498 139.118 150.554 140.193 150.496L167.984 243.121ZM223.573 195.053L216.743 201.729L177.057 240.388L149.169 147.792C150.098 147.247 150.966 146.605 151.759 145.877L196.173 104.079L223.573 195.053ZM256.474 158.754C256.67 159.757 256.639 160.791 256.385 161.78C256.131 162.77 255.659 163.69 255.004 164.475L250.708 168.698L231.322 187.573L203.98 96.7923L230.432 71.936L256.474 158.754Z" fill="#FF9E1C"/>
</svg>
