<svg width="109" height="123" viewBox="0 0 109 123" fill="none" xmlns="http://www.w3.org/2000/svg">
<path d="M71.5048 52.4393C71.1482 51.8247 70.8623 51.3461 70.5825 50.8951C69.9181 50.085 69.5617 49.0659 69.5764 48.0182C69.6783 47.4697 69.9022 46.951 70.2314 46.5005C70.5607 46.05 70.9869 45.6792 71.4786 45.4154C72.7616 44.4884 73.9526 43.4402 75.0352 42.2853C76.5869 40.6566 79.2396 36.0132 78.2252 32.5965C77.6523 30.6026 75.7673 29.1831 72.6225 28.3903C70.5536 27.9093 68.4367 27.666 66.3127 27.6653C64.1697 27.6289 62.0322 27.8937 59.9629 28.4518C58.8649 29.0364 57.8174 29.7112 56.831 30.4692C56.7905 30.6817 56.7375 30.8917 56.6725 31.0981L52.09 49.2764C52.0135 49.5799 51.9 49.8728 51.752 50.1486C52.6713 51.4569 53.6702 52.7075 54.743 53.8932C57.0422 56.4271 61.7499 60.9061 67.5832 62.3766C69.1402 62.7809 70.7539 62.9217 72.3574 62.7931C72.5395 62.5578 72.6922 62.3012 72.8124 62.029C74.1041 59.2985 72.7744 54.6874 71.5048 52.4393Z" fill="#F5F5F5"/>
<path d="M42.9652 54.0461L42.7186 53.9839L40.5423 62.6167L50.5194 65.1318L51.0417 63.06C47.9078 60.4825 45.1845 57.4431 42.9652 54.0461Z" fill="#F5F5F5"/>
<path d="M47.465 32.5547L40.4848 30.7951L36.9904 44.6569L43.9706 46.4166L47.465 32.5547Z" fill="#F5F5F5"/>
<path d="M30.6081 50.9314C29.8877 51.222 29.1551 51.4746 28.4103 51.689C26.7185 52.4953 24.972 53.1814 23.1839 53.7424L22.1393 57.8862L32.1164 60.4013L34.2926 51.7685L30.6081 50.9314Z" fill="#F5F5F5"/>
<path d="M0.954748 46.3938C0.577351 45.7431 0.290228 45.0442 0.101288 44.3161C0.165318 45.0799 0.46335 45.8055 0.954748 46.3938Z" fill="#F5F5F5"/>
<path d="M7.42287 24.6904C7.37696 24.5083 7.32181 24.3108 7.27289 24.0886C7.32596 24.4798 7.40351 24.8673 7.50506 25.2489C7.69492 25.9525 7.8881 26.539 8.06906 27.0699L8.18004 27.0979C7.93152 26.4188 7.74798 25.638 7.42287 24.6904Z" fill="#F5F5F5"/>
<path d="M27.6469 46.132L32.2419 27.9044C32.2792 27.7565 32.3134 27.6208 32.3507 27.4728C30.3426 22.714 26.7054 18.8259 22.091 16.5051C20.2205 15.4989 18.2412 14.7095 16.1916 14.1523C15.2937 13.917 14.3718 13.7858 13.4439 13.7613C11.3072 16.4099 11.427 21.3456 11.9936 23.4166C12.3967 24.9501 12.9528 26.4393 13.6537 27.8617C13.9533 28.3302 14.1469 28.8584 14.221 29.4095C14.295 29.9606 14.2477 30.5212 14.0824 31.0521C13.5987 31.9816 12.8018 32.7099 11.8327 33.1083C11.4343 33.3358 10.9587 33.6094 10.2885 34.0306C8.10497 35.4083 4.74827 38.838 4.52352 41.7588C4.48733 42.4374 4.61957 43.1145 4.90845 43.7297C5.19733 44.3449 5.63389 44.8791 6.17923 45.2847C7.87712 46.7399 9.89664 47.7705 12.0712 48.2915C17.4359 49.6439 23.1606 48.3195 26.559 47.2218L27.4915 46.7486C27.5246 46.5388 27.5767 46.3325 27.6469 46.132Z" fill="#F5F5F5"/>
<path d="M12.5291 55.5287L13.6884 55.821L13.763 55.525C13.3281 55.5334 12.9455 55.5419 12.5291 55.5287Z" fill="#F5F5F5"/>
<path d="M-4.67492 43.2305C-4.34282 39.0515 -1.18925 35.3869 1.39072 33.2173L-11.2502 30.0306L-15.668 47.5553C-15.7191 47.758 -15.6875 47.9728 -15.5803 48.1524C-15.473 48.3319 -15.2989 48.4615 -15.0961 48.5126L1.31858 52.6506C0.353606 52.0926 -0.559747 51.4497 -1.41066 50.7296C-2.51939 49.8357 -3.39536 48.6868 -3.96378 47.381C-4.5322 46.0752 -4.77619 44.6511 -4.67492 43.2305Z" fill="#F5F5F5"/>
<path d="M11.8195 63.2327L-8.01129 58.2336L-21.5102 111.782L-1.67939 116.781L11.8195 63.2327Z" fill="#F5F5F5"/>
<path d="M30.2323 67.8745L20.2552 65.3594L6.75635 118.908L16.7334 121.423L30.2323 67.8745Z" fill="#F5F5F5"/>
<path d="M48.6572 72.5191L38.6801 70.004L25.1812 123.552L35.1583 126.067L48.6572 72.5191Z" fill="#F5F5F5"/>
<path d="M76.9356 79.6477L57.1048 74.6486L43.6059 128.197L63.4367 133.196L76.9356 79.6477Z" fill="#F5F5F5"/>
<path d="M77.72 55.6726C77.5301 54.5116 77.219 53.3738 76.7921 52.2776L76.6687 52.2465C77.1109 53.3584 77.4625 54.5041 77.72 55.6726Z" fill="#F5F5F5"/>
<path d="M92.368 56.2042L82.1813 53.6363C82.9603 56.4319 82.8226 59.4036 81.7883 62.1152C81.2054 63.4132 80.3162 64.5503 79.1968 65.4288C78.0775 66.3072 76.7616 66.9008 75.3623 67.1584C75.1092 67.2258 74.8685 67.2438 74.6217 67.2865C73.4977 68.103 72.2143 68.6733 70.8551 68.9602C69.7641 69.1886 68.6554 69.3216 67.5414 69.3578L88.5068 74.643L92.9152 57.1554C92.9621 56.957 92.9316 56.7481 92.83 56.5714C92.7283 56.3947 92.5631 56.2634 92.368 56.2042Z" fill="#F5F5F5"/>
<path d="M86.1109 78.9964L90.4396 80.0877C91.8701 80.4483 93.3852 80.2267 94.6526 79.4717C95.9199 78.7166 96.836 77.4897 97.1999 76.06L102.128 56.5129C102.485 55.0816 102.26 53.567 101.502 52.3014C100.744 51.0357 99.5149 50.1224 98.0845 49.7618L81.2504 45.5182C81.7789 45.0349 82.3753 44.4901 83.0091 43.7448C85.1265 41.5373 88.9733 35.1226 87.3342 29.4497C86.5959 26.8633 84.4216 23.469 78.3047 21.927C75.878 21.36 73.3952 21.0685 70.9032 21.058C64.9069 20.8893 59.0337 22.7784 54.2601 26.4111L53.8655 26.3116L41.5329 23.2027C41.3349 23.1393 41.133 23.0884 40.9286 23.0504C38.4418 17.579 34.1603 13.1215 28.7936 10.4164C26.5941 9.24505 24.2698 8.32474 21.8647 7.67279C15.6984 6.11834 12.2242 8.08878 10.3481 10.0161C6.46283 13.9815 6.54198 20.7957 7.22964 24.0514C7.27856 24.2736 7.33368 24.4711 7.3796 24.6532C7.64305 25.5853 7.88825 26.3817 8.08745 27.0483L-8.59854 22.842C-9.30628 22.6636 -10.0422 22.6263 -10.7644 22.7323C-11.4865 22.8383 -12.1807 23.0855 -12.8073 23.4598C-13.4339 23.8341 -13.9806 24.3281 -14.4163 24.9137C-14.852 25.4993 -15.1681 26.165 -15.3465 26.8727L-20.2741 46.4199C-20.5221 47.4155 -20.4857 48.4609 -20.169 49.4369C-20.0799 49.7178 -19.969 49.9913 -19.8374 50.255C-19.4827 50.9701 -18.9781 51.6005 -18.3579 52.1031C-17.7377 52.6057 -17.0165 52.9689 -16.2434 53.1678L-11.9023 54.2621L-26.2219 111.066C-26.3595 111.612 -26.3883 112.179 -26.3065 112.736C-26.2248 113.293 -26.0341 113.828 -25.7455 114.312C-25.4568 114.795 -25.0759 115.217 -24.6243 115.553C-24.1727 115.888 -23.6593 116.132 -23.1136 116.27L66.569 138.878C67.1154 139.017 67.684 139.048 68.2421 138.967C68.8002 138.886 69.337 138.696 69.8215 138.408C70.3061 138.119 70.729 137.738 71.0659 137.286C71.4029 136.834 71.6473 136.319 71.7851 135.773L86.1109 78.9964ZM96.8754 54.4019C97.0794 54.4533 97.2549 54.5828 97.3642 54.7625C97.4735 54.9422 97.5077 55.1576 97.4596 55.3624L92.5319 74.9095C92.4773 75.1126 92.345 75.2861 92.1636 75.3925C91.9822 75.4989 91.7662 75.5297 91.5623 75.4783L58.9056 67.2459L59.6828 64.1627C61.7929 65.4295 64.073 66.3886 66.4542 67.0109C69.1273 67.7033 71.9202 67.7983 74.6342 67.2891C74.8811 67.2464 75.1217 67.2284 75.3748 67.161C76.7742 66.9034 78.09 66.3099 79.2094 65.4314C80.3287 64.553 81.218 63.4159 81.8008 62.1179C82.8351 59.4063 82.9729 56.4345 82.1939 53.6389C81.9461 52.5446 81.6162 51.4705 81.2069 50.4258L96.8754 54.4019ZM70.8722 25.8638C72.9961 25.8652 75.113 26.1084 77.182 26.5888C80.3268 27.3816 82.2241 28.8042 82.797 30.7981C83.7744 34.2055 81.1587 38.8582 79.607 40.4869C78.5174 41.6382 77.3225 42.6851 76.038 43.6139C75.5502 43.8827 75.1271 44.2549 74.7985 44.7046C74.4699 45.1542 74.2437 45.6704 74.1358 46.2168C74.1261 47.2666 74.4867 48.2864 75.1543 49.0967C75.3849 49.4828 75.6862 49.9522 76.0766 50.6409C76.3728 51.1771 76.6315 51.7331 76.8507 52.3051C77.2777 53.4012 77.5887 54.5391 77.7787 55.7C78.097 57.2083 77.9925 58.7751 77.4768 60.2277C77.1897 60.8445 76.7531 61.3797 76.2066 61.7849C75.6601 62.19 75.021 62.4521 74.3474 62.5474C73.7413 62.6797 73.1269 62.7703 72.5084 62.8183C70.9049 62.947 69.2912 62.8061 67.7342 62.4018C61.9008 60.9313 57.187 56.477 54.8939 53.9184C53.8212 52.7327 52.8223 51.4821 51.903 50.1739C52.051 49.8981 52.1645 49.6051 52.2409 49.3016L56.8079 31.185C56.8729 30.9786 56.9259 30.7686 56.9665 30.556C57.9528 29.7981 59.0003 29.1233 60.0983 28.5387C63.3977 26.7216 67.112 25.7914 70.8784 25.8392L70.8722 25.8638ZM51.972 30.7529L47.775 47.4019L37.0456 44.6971L41.2426 28.0481L51.972 30.7529ZM20.7295 12.384C22.8004 12.9433 24.8005 13.7379 26.6906 14.7524C31.2992 17.0756 34.9313 20.962 36.9379 25.7169C36.9037 25.8526 36.8664 26.0006 36.8322 26.1362L32.259 44.2775C32.197 44.5218 32.1603 44.7719 32.1496 45.0237C30.6612 45.8016 29.1199 46.4737 27.5371 47.0351L26.7037 47.3235C23.3053 48.4211 17.5775 49.7578 12.216 48.3931C10.0414 47.8721 8.02188 46.8415 6.324 45.3863C5.77865 44.9807 5.34208 44.4465 5.0532 43.8313C4.76432 43.2161 4.63209 42.5391 4.66829 41.8604C4.90548 38.8903 8.26216 35.4606 10.4333 34.1323C11.0417 33.7479 11.5173 33.4743 11.9774 33.2099C12.9465 32.8115 13.7434 32.0832 14.2271 31.1538C14.3925 30.6229 14.4398 30.0622 14.3657 29.5111C14.2917 28.96 14.0981 28.4318 13.7985 27.9634C13.0976 26.541 12.5415 25.0518 12.1384 23.5182C11.5718 21.4472 11.4519 16.5115 13.5887 13.8629C13.7 13.7336 13.7989 13.6011 13.9226 13.4749C15.2521 11.8951 17.5848 11.5387 20.7419 12.3346L20.7295 12.384ZM2.11917 117.791L-21.5224 111.831L-7.30845 55.4464L16.3331 61.4062L2.11917 117.791ZM17.4865 56.8308L-15.0962 48.6171C-15.299 48.5659 -15.4731 48.4364 -15.5804 48.2568C-15.6876 48.0773 -15.7191 47.8625 -15.668 47.6597L-10.728 28.0632C-10.6715 27.8664 -10.5407 27.6992 -10.3632 27.597C-10.1857 27.4949 -9.97538 27.4658 -9.77681 27.516L5.92256 31.4737C3.33026 33.6402 0.176703 37.3047 -0.155402 41.4838C-0.233045 42.447 -0.139923 43.4162 0.119673 44.3469C0.308613 45.075 0.595731 45.774 0.973127 46.4246C1.54277 47.384 2.26521 48.244 3.11197 48.9706C5.37304 50.933 8.07205 52.324 10.9823 53.027C13.3737 53.6087 15.8362 53.8452 18.2946 53.7292L17.4865 56.8308ZM20.544 122.436L6.74389 118.957L20.9578 62.5721L34.758 66.0509L20.544 122.436ZM35.9114 61.4755L22.1112 57.9967L23.3362 53.1376C25.0466 52.7968 26.7331 52.3457 28.3853 51.7872C29.1488 51.5337 29.8814 51.2812 30.5831 51.0296C31.9986 50.4676 33.3791 49.8214 34.7173 49.0944L38.7747 50.1172L35.9114 61.4755ZM38.9566 127.077L25.1688 123.601L39.3827 67.2168L53.1706 70.6925L38.9566 127.077ZM54.324 66.1171L40.5361 62.6414L43.4087 51.2461L47.4785 52.272C49.6972 55.6594 52.4185 58.6895 55.5489 61.2581L54.324 66.1171ZM67.2352 134.206L43.532 128.231L57.7459 71.8459L81.3998 77.8088L67.2352 134.206Z" fill="#F8E22C"/>
</svg>
