<svg width="30" height="34" viewBox="0 0 30 34" fill="none" xmlns="http://www.w3.org/2000/svg">
<path d="M21.0828 0.3335C21.7903 0.331838 22.3498 0.881563 22.3515 1.61453L22.3531 2.8639C26.9442 3.22372 29.9769 6.35216 29.9819 11.1498L30 25.1927C30.0066 30.4234 26.7204 33.6418 21.453 33.6502L8.58648 33.6668C3.352 33.6735 0.0247053 30.3785 0.0181231 25.1328L1.10457e-05 11.2547C-0.00656006 6.42545 2.91922 3.30535 7.5103 2.88389L7.50865 1.63452C7.507 0.901552 8.05004 0.350162 8.77408 0.350162C9.49812 0.348496 10.0411 0.898221 10.0428 1.63119L10.0444 2.79727L19.819 2.78394L19.8173 1.61786C19.8157 0.884894 20.3587 0.335169 21.0828 0.3335ZM21.7541 23.9867H21.7377C20.9807 24.005 20.3735 24.6397 20.39 25.4059C20.3916 26.1722 21.0021 26.8036 21.7591 26.8202C22.5308 26.8186 23.1562 26.1839 23.1545 25.401C23.1545 24.618 22.5276 23.9867 21.7541 23.9867ZM8.19484 23.9883C7.43789 24.0216 6.8455 24.6563 6.84714 25.4226C6.8817 26.1889 7.50701 26.7886 8.26396 26.7536C9.0061 26.7203 9.59685 26.0856 9.56229 25.3193C9.54584 24.5697 8.93534 23.9867 8.19484 23.9883ZM14.9745 23.98C14.2175 24.015 13.6268 24.648 13.6268 25.4143C13.6613 26.1806 14.2867 26.7786 15.0436 26.7453C15.7841 26.7103 16.3765 26.0773 16.3419 25.3093C16.3255 24.5614 15.715 23.9783 14.9745 23.98ZM8.18662 17.9913C7.42966 18.0246 6.83891 18.6593 6.84056 19.4256C6.87347 20.1919 7.50042 20.7916 8.25737 20.7566C8.99787 20.7233 9.58862 20.0886 9.55406 19.3223C9.53761 18.5727 8.92876 17.9897 8.18662 17.9913ZM14.9679 17.933C14.211 17.9663 13.6186 18.601 13.6202 19.3673C13.6531 20.1336 14.2801 20.7316 15.037 20.6983C15.7775 20.6633 16.3683 20.0303 16.3354 19.264C16.3173 18.5144 15.7084 17.9314 14.9679 17.933ZM21.7476 17.9413C20.9906 17.958 20.3982 18.5744 20.3999 19.3407V19.359C20.4163 20.1253 21.0416 20.7066 21.8002 20.69C22.5407 20.6717 23.1315 20.037 23.115 19.2707C23.0805 18.5377 22.4864 17.9397 21.7476 17.9413ZM19.8223 5.34932L10.0477 5.36265L10.0494 6.71031C10.0494 7.42828 9.50799 7.99467 8.78395 7.99467C8.05991 7.99633 7.51523 7.43162 7.51523 6.71364L7.51359 5.43095C4.30477 5.75246 2.52923 7.63818 2.53415 11.2514L2.53581 11.7694L27.4494 11.7361V11.1531C27.3786 7.57155 25.5817 5.69249 22.3564 5.41263L22.3581 6.69532C22.3581 7.41163 21.8002 7.97967 21.0926 7.97967C20.3686 7.98134 19.8239 7.41496 19.8239 6.69865L19.8223 5.34932Z" fill="#0E1856"/>
</svg>
