<svg width="41" height="40" viewBox="0 0 41 40" fill="none" xmlns="http://www.w3.org/2000/svg">
<path fill-rule="evenodd" clip-rule="evenodd" d="M23.0468 5.70963C24.1833 5.24114 25.4016 5 26.6318 5C27.8621 5 29.0803 5.24114 30.2169 5.70963C31.3532 6.17804 32.3857 6.86456 33.2553 7.72996C34.1253 8.59508 34.8158 9.62268 35.2867 10.7531C35.7576 11.8838 36 13.0957 36 14.3196C36 15.5435 35.7576 16.7554 35.2867 17.8861C34.8158 19.0167 34.1256 20.0439 33.2556 20.909L20.5184 33.5802C19.9558 34.1399 19.0435 34.1399 18.4808 33.5802L5.74365 20.909C3.98692 19.1614 3 16.7911 3 14.3196C3 11.8481 3.98692 9.47782 5.74365 7.7302C7.50037 5.98257 9.88301 5.00077 12.3674 5.00077C14.8518 5.00077 17.2344 5.98257 18.9911 7.7302L19.4996 8.23603L20.0078 7.73043C20.8775 6.86492 21.9103 6.17809 23.0468 5.70963ZM26.6318 7.86677C25.7801 7.86677 24.9367 8.03371 24.1499 8.35806C23.363 8.6824 22.6481 9.15779 22.046 9.75707L20.5184 11.2767C19.9558 11.8365 19.0435 11.8365 18.4808 11.2767L16.9535 9.75731C15.7372 8.54731 14.0875 7.86754 12.3674 7.86754C10.6473 7.86754 8.99762 8.54731 7.78132 9.75731C6.56502 10.9673 5.8817 12.6084 5.8817 14.3196C5.8817 16.0308 6.56502 17.6719 7.78132 18.8819L19.4996 30.5395L31.2179 18.8819C31.8203 18.2829 32.2984 17.5715 32.6245 16.7887C32.9505 16.0059 33.1183 15.1669 33.1183 14.3196C33.1183 13.4723 32.9505 12.6333 32.6245 11.8505C32.2984 11.0677 31.8205 10.3565 31.2181 9.75755C30.616 9.15827 29.9006 8.6824 29.1138 8.35806C28.3269 8.03371 27.4836 7.86677 26.6318 7.86677Z" fill="#0E1856"/>
<circle cx="35.5" cy="10.5" r="5.5" fill="#E80866"/>
</svg>
