<svg width="48" height="48" viewBox="0 0 48 48" fill="none" xmlns="http://www.w3.org/2000/svg">
<path fill-rule="evenodd" clip-rule="evenodd" d="M23.5862 11.1725C19.164 11.1725 15.5959 14.7266 15.5959 19.0903C15.5959 23.454 19.164 27.0081 23.5862 27.0081C28.0084 27.0081 31.5765 23.454 31.5765 19.0903C31.5765 14.7266 28.0084 11.1725 23.5862 11.1725ZM13.1131 19.0903C13.1131 13.337 17.8113 8.6897 23.5862 8.6897C29.3611 8.6897 34.0593 13.337 34.0593 19.0903C34.0593 24.8436 29.3611 29.4909 23.5862 29.4909C17.8113 29.4909 13.1131 24.8436 13.1131 19.0903Z" fill="#0E1856"/>
<path fill-rule="evenodd" clip-rule="evenodd" d="M8.27449 33.8493C9.287 29.5489 12.0862 25.939 15.8451 23.8245L17.0624 25.9883C13.8917 27.772 11.5401 30.8127 10.6912 34.4183C10.5028 35.2182 11.1668 36.1739 12.4138 36.1739H34.7586C36.0056 36.1739 36.6696 35.2182 36.4812 34.4183C35.6323 30.8127 33.2807 27.772 30.11 25.9883L31.3273 23.8245C35.0862 25.939 37.8854 29.5489 38.8979 33.8493C39.5476 36.6085 37.1681 38.6567 34.7586 38.6567H12.4138C10.0043 38.6567 7.62482 36.6085 8.27449 33.8493Z" fill="#0E1856"/>
</svg>
