<svg width="48" height="48" viewBox="0 0 48 48" fill="none" xmlns="http://www.w3.org/2000/svg">
<path fill-rule="evenodd" clip-rule="evenodd" d="M12.8417 13.6551C11.9212 13.6551 11.1724 14.4018 11.1724 15.3303V32.9303C11.1724 33.8589 11.9212 34.6056 12.8417 34.6056H35.4143C36.3349 34.6056 37.0837 33.8589 37.0837 32.9303V15.3303C37.0837 14.4018 36.3349 13.6551 35.4143 13.6551H12.8417ZM8.68967 15.3303C8.68967 13.0353 10.5452 11.1724 12.8417 11.1724H35.4143C37.7108 11.1724 39.5664 13.0353 39.5664 15.3303V32.9303C39.5664 35.2254 37.7108 37.0883 35.4143 37.0883H12.8417C10.5452 37.0883 8.68967 35.2254 8.68967 32.9303V15.3303Z" fill="#0E1856"/>
<path fill-rule="evenodd" clip-rule="evenodd" d="M23.8965 25.1093C24.0311 25.2152 24.225 25.2152 24.3596 25.1093L24.3621 25.1073L37.5408 14.3682L39.1092 16.2928L25.915 27.0445C24.872 27.8805 23.384 27.8805 22.3411 27.0445L22.3333 27.0382L9.14685 16.2928L10.7152 14.3682L23.8965 25.1093Z" fill="#0E1856"/>
</svg>
