<svg width="48" height="48" viewBox="0 0 48 48" fill="none" xmlns="http://www.w3.org/2000/svg">
<path fill-rule="evenodd" clip-rule="evenodd" d="M12.2109 16.6401C11.2485 16.6401 10.4829 17.4118 10.4829 18.3503V36.1615C10.4829 37.0999 11.2485 37.8716 12.2109 37.8716H35.2391C36.2015 37.8716 36.9671 37.0999 36.9671 36.1615V18.3503C36.9671 17.4118 36.2015 16.6401 35.2391 16.6401H12.2109ZM8 18.3503C8 16.0265 9.89131 14.1572 12.2109 14.1572H35.2391C37.5587 14.1572 39.45 16.0265 39.45 18.3503V36.1615C39.45 38.4853 37.5587 40.3545 35.2391 40.3545H12.2109C9.89131 40.3545 8 38.4853 8 36.1615V18.3503Z" fill="#0E1856"/>
<path fill-rule="evenodd" clip-rule="evenodd" d="M23.7279 24.8139C22.2852 24.8139 21.1283 25.9745 21.1283 27.3905C21.1283 28.8064 22.2852 29.967 23.7279 29.967C25.1707 29.967 26.3275 28.8064 26.3275 27.3905C26.3275 25.9745 25.1707 24.8139 23.7279 24.8139ZM18.6454 27.3905C18.6454 24.5892 20.928 22.3311 23.7279 22.3311C26.5279 22.3311 28.8104 24.5892 28.8104 27.3905C28.8104 30.1917 26.5279 32.4499 23.7279 32.4499C20.928 32.4499 18.6454 30.1917 18.6454 27.3905Z" fill="#0E1856"/>
<path fill-rule="evenodd" clip-rule="evenodd" d="M23.7291 29.9609C24.4147 29.9615 24.97 30.5179 24.9694 31.2035L24.9664 34.6234C24.9658 35.3091 24.4095 35.8644 23.7238 35.8638C23.0382 35.8632 22.4829 35.3069 22.4835 34.6212L22.4865 31.2013C22.4871 30.5157 23.0434 29.9603 23.7291 29.9609Z" fill="#0E1856"/>
<path fill-rule="evenodd" clip-rule="evenodd" d="M23.728 9.48289C20.6322 9.48289 18.153 11.9509 18.153 14.9513V15.2932H15.6701V14.9513C15.6701 10.5428 19.2981 7 23.728 7C28.158 7 31.786 10.5428 31.786 14.9513V15.2932H29.3031V14.9513C29.3031 11.9509 26.8239 9.48289 23.728 9.48289Z" fill="#0E1856"/>
</svg>
