<svg width="109" height="102" viewBox="0 0 109 102" fill="none" xmlns="http://www.w3.org/2000/svg">
<g clip-path="url(#clip0_1600_20169)">
<path d="M80.9246 11.1274C81.9568 8.86072 83.8148 8.65466 85.6727 9.27284C95.7882 12.1577 103.839 17.5153 106.73 28.2304C111.891 48.2183 109.62 66.9698 95.9947 82.8365C82.989 98.085 65.4417 103.03 46.2428 101.794C34.4757 101.176 24.1538 96.6425 15.4833 88.4001C-3.50911 70.2668 -4.95418 40.594 12.3867 19.3698C22.2958 7.00617 35.0951 0.618292 50.7845 0.000110149C54.9132 -0.20595 59.042 0.000110175 62.1386 3.09102C63.3773 4.32738 64.6159 6.59405 64.203 8.03647C63.7901 9.27284 61.5193 10.9213 60.0742 11.1274C47.6879 12.5698 37.1595 17.7213 28.0761 25.7577C11.1481 40.594 9.29013 66.3516 23.328 82.4244C34.6822 95.4062 54.7068 99.1153 71.4284 91.491C88.9757 83.4547 98.6784 69.2365 100.949 50.0728C101.569 44.5092 101.362 38.3274 100.33 32.7637C98.2655 22.8728 93.1045 15.0425 82.7826 12.1577C82.1632 12.1577 81.5439 11.5395 80.9246 11.1274ZM81.9568 64.4971C84.4341 60.994 85.8792 56.6668 87.5307 52.5456C87.9436 51.7213 87.5307 50.0728 86.9113 49.6607C86.292 49.4547 84.6405 49.4547 84.0212 50.0728C82.5761 51.5153 81.131 53.1637 80.0988 55.0183C77.2087 59.1395 75.1443 63.8789 71.6348 67.3819C62.5515 76.6547 47.8943 76.0365 39.6367 66.1456C37.1595 63.0547 35.9208 58.9334 33.65 55.6365C32.2049 53.5759 30.5534 51.3092 28.489 49.8668C26.631 48.6304 24.7731 49.6607 24.9795 52.1334C25.3924 55.6365 25.5988 59.5516 27.2504 62.6425C32.8242 74.1819 42.9398 78.5092 53.6746 79.1274C66.6803 79.1274 75.5572 73.9759 81.9568 64.4971ZM44.1784 26.1698C41.0818 25.7577 39.8432 27.8183 39.2238 30.4971C39.0174 31.5274 38.811 32.3516 38.811 33.3819C38.6045 36.0607 39.4303 38.5334 42.3204 39.1516C45.0042 39.7698 46.8621 38.1213 48.1007 35.6486C48.5136 34.4122 48.7201 33.1759 48.9265 32.5577C48.7201 28.4365 47.0685 26.3759 44.1784 26.1698ZM67.9189 31.7334C66.061 31.7334 63.5837 32.3516 62.3451 34.0001C61.7257 35.0304 62.3451 37.2971 63.7901 37.2971C64.4095 37.2971 64.8223 37.091 65.4417 36.885C67.5061 36.0607 69.7769 36.0607 71.8413 36.6789C74.1121 37.2971 75.9701 38.5334 77.828 39.5637C78.2409 39.7698 78.6538 39.9759 79.0667 39.9759C79.8924 39.7698 80.3053 38.7395 80.3053 37.9153C80.3053 37.091 79.8924 36.4728 79.4795 35.8547C78.0345 34.0001 75.5572 32.5577 73.2863 32.1456C71.8413 31.7334 70.6026 31.5274 67.9189 31.7334Z" fill="#28D6BF"/>
</g>
<defs>
<clipPath id="clip0_1600_20169">
<rect width="109" height="102" fill="white"/>
</clipPath>
</defs>
</svg>
